<svg xmlns="http://www.w3.org/2000/svg" xmlns:xlink="http://www.w3.org/1999/xlink" style="margin:auto;background:#ffffff;display:block;z-index:1;position:relative" width="1920" height="977" preserveAspectRatio="xMidYMid" viewBox="0 0 1920 977">
<g transform="translate(960,488.5) scale(1,1) translate(-960,-488.5)"><linearGradient id="lg-0.05429242783714194" x1="0" x2="1" y1="0" y2="0">
  <stop stop-color="#ff00ff" offset="0"></stop>
  <stop stop-color="#00ffff" offset="1"></stop>
</linearGradient><path d="M 1444 489 C 1444 643 1232 826 1085 874 C 938 922 685 878 595 753 C 505 628 502 347 593 222 C 684 97 945 38 1091 86 C 1237 134 1444 335 1444 489" fill="url(#lg-0.05429242783714194)" opacity="0.4">
  <animate attributeName="d" dur="10s" repeatCount="indefinite" keyTimes="0;0.3333333333333333;0.6666666666666666;1" calcmod="spline" keySplines="0.3 0.1 0.7 0.9;0.3 0.1 0.7 0.9;0.3 0.1 0.7 0.9" begin="-4s" values="M 1444 489 C 1444 643 1232 826 1085 874 C 938 922 685 878 595 753 C 505 628 502 347 593 222 C 684 97 945 38 1091 86 C 1237 134 1444 335 1444 489;M 1544 489 C 1544 660 1270 892 1108 945 C 946 998 592 967 492 829 C 392 691 393 287 493 149 C 593 11 958 -56 1120 -3 C 1282 50 1544 318 1544 489;M 1523 489 C 1523 659 1276 910 1114 963 C 952 1016 552 996 452 858 C 352 720 372 272 472 134 C 572 -4 917 70 1079 123 C 1241 176 1523 319 1523 489;M 1444 489 C 1444 643 1232 826 1085 874 C 938 922 685 878 595 753 C 505 628 502 347 593 222 C 684 97 945 38 1091 86 C 1237 134 1444 335 1444 489"></animate>
</path><path d="M 1555 489 C 1555 657 1240 806 1080 858 C 920 910 571 979 472 843 C 373 707 445 322 543 186 C 641 50 926 48 1086 100 C 1246 152 1555 321 1555 489" fill="url(#lg-0.05429242783714194)" opacity="0.4">
  <animate attributeName="d" dur="10s" repeatCount="indefinite" keyTimes="0;0.3333333333333333;0.6666666666666666;1" calcmod="spline" keySplines="0.3 0.1 0.7 0.9;0.3 0.1 0.7 0.9;0.3 0.1 0.7 0.9" begin="-4s" values="M 1555 489 C 1555 657 1240 806 1080 858 C 920 910 571 979 472 843 C 373 707 445 322 543 186 C 641 50 926 48 1086 100 C 1246 152 1555 321 1555 489;M 1575 489 C 1575 670 1293 927 1121 983 C 949 1039 590 980 484 834 C 378 688 384 293 490 147 C 596 1 915 42 1087 98 C 1259 154 1575 308 1575 489;M 1572 489 C 1572 654 1250 846 1093 897 C 936 948 647 920 550 786 C 453 652 470 337 567 203 C 664 69 942 9 1099 60 C 1256 111 1572 324 1572 489;M 1555 489 C 1555 657 1240 806 1080 858 C 920 910 571 979 472 843 C 373 707 445 322 543 186 C 641 50 926 48 1086 100 C 1246 152 1555 321 1555 489"></animate>
</path><path d="M 1668 489 C 1668 674 1283 884 1107 941 C 931 998 605 976 496 826 C 387 676 340 267 449 117 C 558 -33 915 30 1091 87 C 1267 144 1668 304 1668 489" fill="url(#lg-0.05429242783714194)" opacity="0.4">
  <animate attributeName="d" dur="10s" repeatCount="indefinite" keyTimes="0;0.3333333333333333;0.6666666666666666;1" calcmod="spline" keySplines="0.3 0.1 0.7 0.9;0.3 0.1 0.7 0.9;0.3 0.1 0.7 0.9" begin="-4s" values="M 1668 489 C 1668 674 1283 884 1107 941 C 931 998 605 976 496 826 C 387 676 340 267 449 117 C 558 -33 915 30 1091 87 C 1267 144 1668 304 1668 489;M 1563 489 C 1563 654 1240 815 1083 866 C 926 917 677 898 580 765 C 483 632 425 303 522 170 C 619 37 940 17 1097 68 C 1254 119 1563 324 1563 489;M 1528 489 C 1528 668 1281 898 1111 953 C 941 1008 527 1025 422 880 C 317 735 375 285 480 140 C 585 -5 943 -37 1113 18 C 1283 73 1528 310 1528 489;M 1668 489 C 1668 674 1283 884 1107 941 C 931 998 605 976 496 826 C 387 676 340 267 449 117 C 558 -33 915 30 1091 87 C 1267 144 1668 304 1668 489"></animate>
</path><path d="M 1622 489 C 1622 670 1293 928 1121 984 C 949 1040 602 972 496 825 C 390 678 334 258 441 111 C 548 -36 957 -87 1129 -31 C 1301 25 1622 308 1622 489" fill="url(#lg-0.05429242783714194)" opacity="0.4">
  <animate attributeName="d" dur="10s" repeatCount="indefinite" keyTimes="0;0.3333333333333333;0.6666666666666666;1" calcmod="spline" keySplines="0.3 0.1 0.7 0.9;0.3 0.1 0.7 0.9;0.3 0.1 0.7 0.9" begin="-4s" values="M 1622 489 C 1622 670 1293 928 1121 984 C 949 1040 602 972 496 825 C 390 678 334 258 441 111 C 548 -36 957 -87 1129 -31 C 1301 25 1622 308 1622 489;M 1631 489 C 1631 666 1269 867 1101 922 C 933 977 601 968 497 825 C 393 682 350 264 454 121 C 558 -22 954 -65 1122 -10 C 1290 45 1631 312 1631 489;M 1546 489 C 1546 648 1261 902 1110 951 C 959 1000 627 928 533 799 C 439 670 460 322 553 193 C 646 64 947 15 1098 64 C 1249 113 1546 330 1546 489;M 1622 489 C 1622 670 1293 928 1121 984 C 949 1040 602 972 496 825 C 390 678 334 258 441 111 C 548 -36 957 -87 1129 -31 C 1301 25 1622 308 1622 489"></animate>
</path><path d="M 1591 489 C 1591 661 1262 863 1099 916 C 936 969 639 934 538 795 C 437 656 409 300 510 161 C 611 22 925 41 1088 94 C 1251 147 1591 317 1591 489" fill="url(#lg-0.05429242783714194)" opacity="0.4">
  <animate attributeName="d" dur="10s" repeatCount="indefinite" keyTimes="0;0.3333333333333333;0.6666666666666666;1" calcmod="spline" keySplines="0.3 0.1 0.7 0.9;0.3 0.1 0.7 0.9;0.3 0.1 0.7 0.9" begin="-4s" values="M 1591 489 C 1591 661 1262 863 1099 916 C 936 969 639 934 538 795 C 437 656 409 300 510 161 C 611 22 925 41 1088 94 C 1251 147 1591 317 1591 489;M 1460 489 C 1460 649 1262 900 1110 949 C 958 998 578 963 484 834 C 390 705 444 311 538 182 C 632 53 924 81 1076 130 C 1228 179 1460 329 1460 489;M 1579 489 C 1579 648 1250 863 1098 912 C 946 961 640 918 546 789 C 452 660 442 309 536 180 C 630 51 957 -20 1109 29 C 1261 78 1579 330 1579 489;M 1591 489 C 1591 661 1262 863 1099 916 C 936 969 639 934 538 795 C 437 656 409 300 510 161 C 611 22 925 41 1088 94 C 1251 147 1591 317 1591 489"></animate>
</path></g>
</svg>