<svg xmlns="http://www.w3.org/2000/svg" xmlns:xlink="http://www.w3.org/1999/xlink" style="margin:auto;background:#f1f2f3;display:block;z-index:1;position:relative" width="1920" height="977" preserveAspectRatio="xMidYMid" viewBox="0 0 1920 977">
<g transform="translate(960,488.5) scale(1,1) translate(-960,-488.5)"><linearGradient id="lg-0.5501757638692275" x1="0" x2="1" y1="0" y2="0">
  <stop stop-color="#0a0a0a" offset="0"></stop>
  <stop stop-color="#28292f" offset="1"></stop>
</linearGradient><path d="M 1484 489 C 1484 647 1225 794 1075 843 C 925 892 616 934 523 806 C 430 678 470 328 563 200 C 656 72 921 97 1071 146 C 1221 195 1484 331 1484 489" fill="url(#lg-0.5501757638692275)" opacity="0.4">
  <animate attributeName="d" dur="10s" repeatCount="indefinite" keyTimes="0;0.3333333333333333;0.6666666666666666;1" calcmod="spline" keySplines="0.3 0.1 0.7 0.9;0.3 0.1 0.7 0.9;0.3 0.1 0.7 0.9" begin="-4s" values="M 1484 489 C 1484 647 1225 794 1075 843 C 925 892 616 934 523 806 C 430 678 470 328 563 200 C 656 72 921 97 1071 146 C 1221 195 1484 331 1484 489;M 1507 489 C 1507 647 1225 793 1075 842 C 925 891 679 888 586 760 C 493 632 413 287 506 159 C 599 31 930 69 1080 118 C 1230 167 1507 331 1507 489;M 1491 489 C 1491 652 1258 877 1103 928 C 948 979 658 910 562 778 C 466 646 450 320 546 188 C 642 56 932 48 1087 99 C 1242 150 1491 326 1491 489;M 1484 489 C 1484 647 1225 794 1075 843 C 925 892 616 934 523 806 C 430 678 470 328 563 200 C 656 72 921 97 1071 146 C 1221 195 1484 331 1484 489"></animate>
</path><path d="M 1605 489 C 1605 660 1269 887 1107 940 C 945 993 637 934 537 796 C 437 658 437 319 537 181 C 637 43 948 -25 1110 28 C 1272 81 1605 318 1605 489" fill="url(#lg-0.5501757638692275)" opacity="0.4">
  <animate attributeName="d" dur="10s" repeatCount="indefinite" keyTimes="0;0.3333333333333333;0.6666666666666666;1" calcmod="spline" keySplines="0.3 0.1 0.7 0.9;0.3 0.1 0.7 0.9;0.3 0.1 0.7 0.9" begin="-4s" values="M 1605 489 C 1605 660 1269 887 1107 940 C 945 993 637 934 537 796 C 437 658 437 319 537 181 C 637 43 948 -25 1110 28 C 1272 81 1605 318 1605 489;M 1477 489 C 1477 651 1265 902 1111 952 C 957 1002 595 954 500 823 C 405 692 484 343 579 212 C 674 81 959 -32 1113 18 C 1267 68 1477 327 1477 489;M 1600 489 C 1600 675 1270 842 1093 899 C 916 956 517 1040 408 890 C 299 740 335 264 444 114 C 553 -36 947 -74 1124 -17 C 1301 40 1600 303 1600 489;M 1605 489 C 1605 660 1269 887 1107 940 C 945 993 637 934 537 796 C 437 658 437 319 537 181 C 637 43 948 -25 1110 28 C 1272 81 1605 318 1605 489"></animate>
</path><path d="M 1603 489 C 1603 661 1259 851 1095 904 C 931 957 575 981 474 842 C 373 703 452 332 553 193 C 654 54 939 -4 1103 49 C 1267 102 1603 317 1603 489" fill="url(#lg-0.5501757638692275)" opacity="0.4">
  <animate attributeName="d" dur="10s" repeatCount="indefinite" keyTimes="0;0.3333333333333333;0.6666666666666666;1" calcmod="spline" keySplines="0.3 0.1 0.7 0.9;0.3 0.1 0.7 0.9;0.3 0.1 0.7 0.9" begin="-4s" values="M 1603 489 C 1603 661 1259 851 1095 904 C 931 957 575 981 474 842 C 373 703 452 332 553 193 C 654 54 939 -4 1103 49 C 1267 102 1603 317 1603 489;M 1532 489 C 1532 674 1283 885 1107 942 C 931 999 519 1036 411 887 C 303 738 406 314 515 165 C 624 16 947 -69 1123 -12 C 1299 45 1532 304 1532 489;M 1532 489 C 1532 643 1241 852 1094 900 C 947 948 603 939 512 814 C 421 689 469 323 560 198 C 651 73 934 73 1080 121 C 1226 169 1532 335 1532 489;M 1603 489 C 1603 661 1259 851 1095 904 C 931 957 575 981 474 842 C 373 703 452 332 553 193 C 654 54 939 -4 1103 49 C 1267 102 1603 317 1603 489"></animate>
</path><path d="M 1540 489 C 1540 654 1243 826 1086 877 C 929 928 568 977 471 844 C 374 711 371 265 468 131 C 565 -3 934 34 1091 85 C 1248 136 1540 324 1540 489" fill="url(#lg-0.5501757638692275)" opacity="0.4">
  <animate attributeName="d" dur="10s" repeatCount="indefinite" keyTimes="0;0.3333333333333333;0.6666666666666666;1" calcmod="spline" keySplines="0.3 0.1 0.7 0.9;0.3 0.1 0.7 0.9;0.3 0.1 0.7 0.9" begin="-4s" values="M 1540 489 C 1540 654 1243 826 1086 877 C 929 928 568 977 471 844 C 374 711 371 265 468 131 C 565 -3 934 34 1091 85 C 1248 136 1540 324 1540 489;M 1572 489 C 1572 648 1253 874 1101 923 C 949 972 658 905 564 776 C 470 647 494 347 588 218 C 682 89 946 16 1098 65 C 1250 114 1572 330 1572 489;M 1528 489 C 1528 667 1250 807 1081 862 C 912 917 640 941 535 798 C 430 655 408 307 512 163 C 616 19 957 -78 1126 -23 C 1295 32 1528 311 1528 489;M 1540 489 C 1540 654 1243 826 1086 877 C 929 928 568 977 471 844 C 374 711 371 265 468 131 C 565 -3 934 34 1091 85 C 1248 136 1540 324 1540 489"></animate>
</path><path d="M 1639 489 C 1639 666 1286 919 1118 974 C 950 1029 589 976 485 833 C 381 690 436 326 540 183 C 644 40 928 14 1096 69 C 1264 124 1639 312 1639 489" fill="url(#lg-0.5501757638692275)" opacity="0.4">
  <animate attributeName="d" dur="10s" repeatCount="indefinite" keyTimes="0;0.3333333333333333;0.6666666666666666;1" calcmod="spline" keySplines="0.3 0.1 0.7 0.9;0.3 0.1 0.7 0.9;0.3 0.1 0.7 0.9" begin="-4s" values="M 1639 489 C 1639 666 1286 919 1118 974 C 950 1029 589 976 485 833 C 381 690 436 326 540 183 C 644 40 928 14 1096 69 C 1264 124 1639 312 1639 489;M 1556 489 C 1556 654 1235 800 1078 851 C 921 902 667 905 570 772 C 473 639 478 341 575 208 C 672 75 936 28 1093 79 C 1250 130 1556 324 1556 489;M 1568 489 C 1568 666 1253 817 1085 872 C 917 927 554 1002 450 859 C 346 716 409 307 513 164 C 617 21 919 44 1087 99 C 1255 154 1568 312 1568 489;M 1639 489 C 1639 666 1286 919 1118 974 C 950 1029 589 976 485 833 C 381 690 436 326 540 183 C 644 40 928 14 1096 69 C 1264 124 1639 312 1639 489"></animate>
</path></g>
</svg>