<svg xmlns="http://www.w3.org/2000/svg" xmlns:xlink="http://www.w3.org/1999/xlink" style="margin:auto;background:#f1f2f3;display:block;z-index:1;position:relative" preserveAspectRatio="xMidYMid" viewBox="0 0 1920 977">
<g transform="translate(960,488.5) scale(1,1) translate(-960,-488.5)"><linearGradient id="lg-0.42951734875167036" x1="0" x2="1" y1="0" y2="0">
  <stop stop-color="#df1317" offset="0"></stop>
  <stop stop-color="#e4934b" offset="1"></stop>
</linearGradient><path d="M 1626 489 C 1626 671 1268 849 1095 905 C 922 961 614 965 507 818 C 400 671 420 321 527 174 C 634 27 913 45 1086 101 C 1259 157 1626 307 1626 489" fill="url(#lg-0.42951734875167036)" opacity="0.4">
  <animate attributeName="d" dur="10s" repeatCount="indefinite" keyTimes="0;0.3333333333333333;0.6666666666666666;1" calcmod="spline" keySplines="0.3 0.1 0.7 0.9;0.3 0.1 0.7 0.9;0.3 0.1 0.7 0.9" begin="-4s" values="M 1626 489 C 1626 671 1268 849 1095 905 C 922 961 614 965 507 818 C 400 671 420 321 527 174 C 634 27 913 45 1086 101 C 1259 157 1626 307 1626 489;M 1499 489 C 1499 645 1241 850 1093 898 C 945 946 685 880 594 754 C 503 628 462 319 554 193 C 646 67 918 115 1066 163 C 1214 211 1499 333 1499 489;M 1592 489 C 1592 656 1265 885 1106 937 C 947 989 659 913 561 778 C 463 643 396 285 494 150 C 592 15 939 12 1098 64 C 1257 116 1592 322 1592 489;M 1626 489 C 1626 671 1268 849 1095 905 C 922 961 614 965 507 818 C 400 671 420 321 527 174 C 634 27 913 45 1086 101 C 1259 157 1626 307 1626 489"></animate>
</path><path d="M 1596 489 C 1596 653 1259 880 1104 931 C 949 982 593 957 497 825 C 401 693 429 305 525 173 C 621 41 955 -27 1111 23 C 1267 73 1596 325 1596 489" fill="url(#lg-0.42951734875167036)" opacity="0.4">
  <animate attributeName="d" dur="10s" repeatCount="indefinite" keyTimes="0;0.3333333333333333;0.6666666666666666;1" calcmod="spline" keySplines="0.3 0.1 0.7 0.9;0.3 0.1 0.7 0.9;0.3 0.1 0.7 0.9" begin="-4s" values="M 1596 489 C 1596 653 1259 880 1104 931 C 949 982 593 957 497 825 C 401 693 429 305 525 173 C 621 41 955 -27 1111 23 C 1267 73 1596 325 1596 489;M 1535 489 C 1535 651 1237 818 1083 868 C 929 918 641 920 546 789 C 451 658 443 313 538 182 C 633 51 917 96 1071 146 C 1225 196 1535 327 1535 489;M 1579 489 C 1579 666 1273 882 1105 936 C 937 990 550 1005 446 862 C 342 719 428 320 532 177 C 636 34 917 49 1085 104 C 1253 159 1579 312 1579 489;M 1596 489 C 1596 653 1259 880 1104 931 C 949 982 593 957 497 825 C 401 693 429 305 525 173 C 621 41 955 -27 1111 23 C 1267 73 1596 325 1596 489"></animate>
</path><path d="M 1508 489 C 1508 665 1254 826 1087 880 C 920 934 599 967 496 825 C 393 683 426 318 529 176 C 632 34 940 -19 1107 35 C 1274 89 1508 313 1508 489" fill="url(#lg-0.42951734875167036)" opacity="0.4">
  <animate attributeName="d" dur="10s" repeatCount="indefinite" keyTimes="0;0.3333333333333333;0.6666666666666666;1" calcmod="spline" keySplines="0.3 0.1 0.7 0.9;0.3 0.1 0.7 0.9;0.3 0.1 0.7 0.9" begin="-4s" values="M 1508 489 C 1508 665 1254 826 1087 880 C 920 934 599 967 496 825 C 393 683 426 318 529 176 C 632 34 940 -19 1107 35 C 1274 89 1508 313 1508 489;M 1469 489 C 1469 642 1248 879 1102 926 C 956 973 624 922 534 798 C 444 674 428 291 518 167 C 608 43 928 91 1074 138 C 1220 185 1469 336 1469 489;M 1576 489 C 1576 652 1244 836 1089 886 C 934 936 627 933 531 801 C 435 669 415 294 511 162 C 607 30 916 97 1071 147 C 1226 197 1576 326 1576 489;M 1508 489 C 1508 665 1254 826 1087 880 C 920 934 599 967 496 825 C 393 683 426 318 529 176 C 632 34 940 -19 1107 35 C 1274 89 1508 313 1508 489"></animate>
</path><path d="M 1587 489 C 1587 656 1232 786 1074 838 C 916 890 655 917 557 782 C 459 647 389 280 487 145 C 585 10 936 21 1095 72 C 1254 123 1587 322 1587 489" fill="url(#lg-0.42951734875167036)" opacity="0.4">
  <animate attributeName="d" dur="10s" repeatCount="indefinite" keyTimes="0;0.3333333333333333;0.6666666666666666;1" calcmod="spline" keySplines="0.3 0.1 0.7 0.9;0.3 0.1 0.7 0.9;0.3 0.1 0.7 0.9" begin="-4s" values="M 1587 489 C 1587 656 1232 786 1074 838 C 916 890 655 917 557 782 C 459 647 389 280 487 145 C 585 10 936 21 1095 72 C 1254 123 1587 322 1587 489;M 1576 489 C 1576 647 1223 785 1072 834 C 921 883 596 948 503 820 C 410 692 461 321 554 193 C 647 65 952 0 1103 49 C 1254 98 1576 331 1576 489;M 1488 489 C 1488 651 1237 818 1083 868 C 929 918 604 947 509 816 C 414 685 404 284 499 153 C 594 22 941 24 1095 74 C 1249 124 1488 327 1488 489;M 1587 489 C 1587 656 1232 786 1074 838 C 916 890 655 917 557 782 C 459 647 389 280 487 145 C 585 10 936 21 1095 72 C 1254 123 1587 322 1587 489"></animate>
</path><path d="M 1554 489 C 1554 673 1272 854 1097 911 C 922 968 528 1030 420 881 C 312 732 421 325 529 176 C 637 27 944 -59 1119 -2 C 1294 55 1554 305 1554 489" fill="url(#lg-0.42951734875167036)" opacity="0.4">
  <animate attributeName="d" dur="10s" repeatCount="indefinite" keyTimes="0;0.3333333333333333;0.6666666666666666;1" calcmod="spline" keySplines="0.3 0.1 0.7 0.9;0.3 0.1 0.7 0.9;0.3 0.1 0.7 0.9" begin="-4s" values="M 1554 489 C 1554 673 1272 854 1097 911 C 922 968 528 1030 420 881 C 312 732 421 325 529 176 C 637 27 944 -59 1119 -2 C 1294 55 1554 305 1554 489;M 1613 489 C 1613 654 1250 845 1093 896 C 936 947 578 970 481 836 C 384 702 432 309 529 175 C 626 41 934 34 1091 85 C 1248 136 1613 324 1613 489;M 1538 489 C 1538 674 1309 965 1133 1022 C 957 1079 550 1015 441 866 C 332 717 309 243 418 94 C 527 -55 929 -14 1105 43 C 1281 100 1538 304 1538 489;M 1554 489 C 1554 673 1272 854 1097 911 C 922 968 528 1030 420 881 C 312 732 421 325 529 176 C 637 27 944 -59 1119 -2 C 1294 55 1554 305 1554 489"></animate>
</path></g>
</svg>