<svg xmlns="http://www.w3.org/2000/svg" xmlns:xlink="http://www.w3.org/1999/xlink" style="margin:auto;background:#f1f2f3;display:block;z-index:1;position:relative"  preserveAspectRatio="xMidYMid" viewBox="0 0 1920 977">
<g transform="translate(960,488.5) scale(1,1) translate(-960,-488.5)"><linearGradient id="lg-0.0023521954452081495" x1="0" x2="1" y1="0" y2="0">
  <stop stop-color="#1c4595" offset="0"></stop>
  <stop stop-color="#e76a24" offset="1"></stop>
</linearGradient><path d="M 1584 489 C 1584 651 1239 823 1085 873 C 931 923 619 936 524 805 C 429 674 384 270 479 139 C 574 8 928 62 1082 112 C 1236 162 1584 327 1584 489" fill="url(#lg-0.0023521954452081495)" opacity="0.4">
  <animate attributeName="d" dur="10s" repeatCount="indefinite" keyTimes="0;0.3333333333333333;0.6666666666666666;1" calcmod="spline" keySplines="0.3 0.1 0.7 0.9;0.3 0.1 0.7 0.9;0.3 0.1 0.7 0.9" begin="-4s" values="M 1584 489 C 1584 651 1239 823 1085 873 C 931 923 619 936 524 805 C 429 674 384 270 479 139 C 574 8 928 62 1082 112 C 1236 162 1584 327 1584 489;M 1548 489 C 1548 647 1254 882 1104 931 C 954 980 580 960 487 832 C 394 704 479 335 572 207 C 665 79 957 -14 1107 35 C 1257 84 1548 331 1548 489;M 1451 489 C 1451 645 1229 814 1081 862 C 933 910 689 877 598 751 C 507 625 418 287 509 161 C 600 35 932 71 1080 119 C 1228 167 1451 333 1451 489;M 1584 489 C 1584 651 1239 823 1085 873 C 931 923 619 936 524 805 C 429 674 384 270 479 139 C 574 8 928 62 1082 112 C 1236 162 1584 327 1584 489"></animate>
</path><path d="M 1537 489 C 1537 665 1253 818 1085 873 C 917 928 617 957 513 814 C 409 671 425 318 529 175 C 633 32 927 20 1095 75 C 1263 130 1537 313 1537 489" fill="url(#lg-0.0023521954452081495)" opacity="0.4">
  <animate attributeName="d" dur="10s" repeatCount="indefinite" keyTimes="0;0.3333333333333333;0.6666666666666666;1" calcmod="spline" keySplines="0.3 0.1 0.7 0.9;0.3 0.1 0.7 0.9;0.3 0.1 0.7 0.9" begin="-4s" values="M 1537 489 C 1537 665 1253 818 1085 873 C 917 928 617 957 513 814 C 409 671 425 318 529 175 C 633 32 927 20 1095 75 C 1263 130 1537 313 1537 489;M 1514 489 C 1514 667 1263 845 1094 900 C 925 955 643 938 539 794 C 435 650 332 252 436 108 C 540 -36 923 29 1092 84 C 1261 139 1514 311 1514 489;M 1569 489 C 1569 657 1278 924 1118 976 C 958 1028 621 943 522 807 C 423 671 439 318 538 182 C 637 46 936 18 1096 70 C 1256 122 1569 321 1569 489;M 1537 489 C 1537 665 1253 818 1085 873 C 917 928 617 957 513 814 C 409 671 425 318 529 175 C 633 32 927 20 1095 75 C 1263 130 1537 313 1537 489"></animate>
</path><path d="M 1463 489 C 1463 646 1229 806 1079 855 C 929 904 656 904 563 777 C 470 650 436 302 528 175 C 620 48 943 30 1093 79 C 1243 128 1463 332 1463 489" fill="url(#lg-0.0023521954452081495)" opacity="0.4">
  <animate attributeName="d" dur="10s" repeatCount="indefinite" keyTimes="0;0.3333333333333333;0.6666666666666666;1" calcmod="spline" keySplines="0.3 0.1 0.7 0.9;0.3 0.1 0.7 0.9;0.3 0.1 0.7 0.9" begin="-4s" values="M 1463 489 C 1463 646 1229 806 1079 855 C 929 904 656 904 563 777 C 470 650 436 302 528 175 C 620 48 943 30 1093 79 C 1243 128 1463 332 1463 489;M 1501 489 C 1501 663 1274 893 1109 947 C 944 1001 547 1004 445 863 C 343 722 341 254 443 113 C 545 -28 921 48 1086 102 C 1251 156 1501 315 1501 489;M 1686 489 C 1686 675 1286 894 1110 951 C 934 1008 583 992 474 842 C 365 692 293 233 402 83 C 511 -67 931 -21 1107 36 C 1283 93 1686 303 1686 489;M 1463 489 C 1463 646 1229 806 1079 855 C 929 904 656 904 563 777 C 470 650 436 302 528 175 C 620 48 943 30 1093 79 C 1243 128 1463 332 1463 489"></animate>
</path><path d="M 1602 489 C 1602 671 1271 857 1098 913 C 925 969 525 1029 418 882 C 311 735 429 328 536 181 C 643 34 938 -31 1111 25 C 1284 81 1602 307 1602 489" fill="url(#lg-0.0023521954452081495)" opacity="0.4">
  <animate attributeName="d" dur="10s" repeatCount="indefinite" keyTimes="0;0.3333333333333333;0.6666666666666666;1" calcmod="spline" keySplines="0.3 0.1 0.7 0.9;0.3 0.1 0.7 0.9;0.3 0.1 0.7 0.9" begin="-4s" values="M 1602 489 C 1602 671 1271 857 1098 913 C 925 969 525 1029 418 882 C 311 735 429 328 536 181 C 643 34 938 -31 1111 25 C 1284 81 1602 307 1602 489;M 1655 489 C 1655 670 1297 941 1125 997 C 953 1053 581 987 475 841 C 369 695 364 278 470 132 C 576 -14 935 -19 1107 37 C 1279 93 1655 308 1655 489;M 1504 489 C 1504 648 1222 782 1071 831 C 920 880 580 962 486 833 C 392 704 389 271 483 142 C 577 13 937 46 1088 95 C 1239 144 1504 330 1504 489;M 1602 489 C 1602 671 1271 857 1098 913 C 925 969 525 1029 418 882 C 311 735 429 328 536 181 C 643 34 938 -31 1111 25 C 1284 81 1602 307 1602 489"></animate>
</path><path d="M 1542 489 C 1542 661 1283 927 1120 980 C 957 1033 656 922 555 783 C 454 644 343 252 444 113 C 545 -26 931 19 1095 72 C 1259 125 1542 317 1542 489" fill="url(#lg-0.0023521954452081495)" opacity="0.4">
  <animate attributeName="d" dur="10s" repeatCount="indefinite" keyTimes="0;0.3333333333333333;0.6666666666666666;1" calcmod="spline" keySplines="0.3 0.1 0.7 0.9;0.3 0.1 0.7 0.9;0.3 0.1 0.7 0.9" begin="-4s" values="M 1542 489 C 1542 661 1283 927 1120 980 C 957 1033 656 922 555 783 C 454 644 343 252 444 113 C 545 -26 931 19 1095 72 C 1259 125 1542 317 1542 489;M 1629 489 C 1629 675 1273 851 1096 908 C 919 965 621 964 512 814 C 403 664 317 251 426 101 C 535 -49 916 21 1093 78 C 1270 135 1629 303 1629 489;M 1525 489 C 1525 651 1239 823 1085 873 C 931 923 594 954 499 823 C 404 692 422 298 517 167 C 612 36 935 42 1089 92 C 1243 142 1525 327 1525 489;M 1542 489 C 1542 661 1283 927 1120 980 C 957 1033 656 922 555 783 C 454 644 343 252 444 113 C 545 -26 931 19 1095 72 C 1259 125 1542 317 1542 489"></animate>
</path></g>
</svg>