<svg xmlns="http://www.w3.org/2000/svg" xmlns:xlink="http://www.w3.org/1999/xlink" style="margin:auto;background:#f1f2f3;display:block;z-index:1;position:relative"  preserveAspectRatio="xMidYMid" viewBox="0 0 1920 977">
<g transform="translate(960,488.5) scale(1,1) translate(-960,-488.5)"><linearGradient id="lg-0.9710133039627251" x1="0" x2="1" y1="0" y2="0">
  <stop stop-color="#facd9e" offset="0"></stop>
  <stop stop-color="#389798" offset="1"></stop>
</linearGradient><path d="M 1570 489 C 1570 643 1235 837 1088 884 C 941 931 620 927 529 802 C 438 677 470 323 560 198 C 650 73 946 31 1093 78 C 1240 125 1570 335 1570 489" fill="url(#lg-0.9710133039627251)" opacity="0.4">
  <animate attributeName="d" dur="10s" repeatCount="indefinite" keyTimes="0;0.3333333333333333;0.6666666666666666;1" calcmod="spline" keySplines="0.3 0.1 0.7 0.9;0.3 0.1 0.7 0.9;0.3 0.1 0.7 0.9" begin="-4s" values="M 1570 489 C 1570 643 1235 837 1088 884 C 941 931 620 927 529 802 C 438 677 470 323 560 198 C 650 73 946 31 1093 78 C 1240 125 1570 335 1570 489;M 1463 489 C 1463 643 1243 864 1097 911 C 951 958 596 943 506 819 C 416 695 455 311 545 187 C 635 63 927 93 1073 140 C 1219 187 1463 335 1463 489;M 1545 489 C 1545 643 1242 858 1096 906 C 950 954 615 928 525 804 C 435 680 473 324 563 200 C 653 76 951 19 1097 66 C 1243 113 1545 335 1545 489;M 1570 489 C 1570 643 1235 837 1088 884 C 941 931 620 927 529 802 C 438 677 470 323 560 198 C 650 73 946 31 1093 78 C 1240 125 1570 335 1570 489"></animate>
</path><path d="M 1627 489 C 1627 661 1241 796 1077 849 C 913 902 624 945 523 806 C 422 667 385 283 486 144 C 587 5 931 21 1095 74 C 1259 127 1627 317 1627 489" fill="url(#lg-0.9710133039627251)" opacity="0.4">
  <animate attributeName="d" dur="10s" repeatCount="indefinite" keyTimes="0;0.3333333333333333;0.6666666666666666;1" calcmod="spline" keySplines="0.3 0.1 0.7 0.9;0.3 0.1 0.7 0.9;0.3 0.1 0.7 0.9" begin="-4s" values="M 1627 489 C 1627 661 1241 796 1077 849 C 913 902 624 945 523 806 C 422 667 385 283 486 144 C 587 5 931 21 1095 74 C 1259 127 1627 317 1627 489;M 1687 489 C 1687 675 1304 947 1128 1004 C 952 1061 599 980 490 830 C 381 680 380 296 489 146 C 598 -4 938 -42 1114 15 C 1290 72 1687 303 1687 489;M 1563 489 C 1563 669 1274 869 1102 925 C 930 981 624 956 518 810 C 412 664 367 281 473 135 C 579 -11 922 20 1094 76 C 1266 132 1563 309 1563 489;M 1627 489 C 1627 661 1241 796 1077 849 C 913 902 624 945 523 806 C 422 667 385 283 486 144 C 587 5 931 21 1095 74 C 1259 127 1627 317 1627 489"></animate>
</path><path d="M 1560 489 C 1560 674 1310 967 1134 1024 C 958 1081 616 967 507 818 C 398 669 300 237 409 88 C 518 -61 919 16 1095 73 C 1271 130 1560 304 1560 489" fill="url(#lg-0.9710133039627251)" opacity="0.4">
  <animate attributeName="d" dur="10s" repeatCount="indefinite" keyTimes="0;0.3333333333333333;0.6666666666666666;1" calcmod="spline" keySplines="0.3 0.1 0.7 0.9;0.3 0.1 0.7 0.9;0.3 0.1 0.7 0.9" begin="-4s" values="M 1560 489 C 1560 674 1310 967 1134 1024 C 958 1081 616 967 507 818 C 398 669 300 237 409 88 C 518 -61 919 16 1095 73 C 1271 130 1560 304 1560 489;M 1490 489 C 1490 657 1237 799 1078 851 C 919 903 625 940 526 804 C 427 668 397 287 496 151 C 595 15 924 55 1084 107 C 1244 159 1490 321 1490 489;M 1512 489 C 1512 660 1249 825 1087 878 C 925 931 619 947 519 809 C 419 671 422 308 522 170 C 622 32 951 -36 1113 17 C 1275 70 1512 318 1512 489;M 1560 489 C 1560 674 1310 967 1134 1024 C 958 1081 616 967 507 818 C 398 669 300 237 409 88 C 518 -61 919 16 1095 73 C 1271 130 1560 304 1560 489"></animate>
</path><path d="M 1519 489 C 1519 650 1241 831 1088 881 C 935 931 678 891 584 761 C 490 631 420 295 515 165 C 610 35 957 -23 1110 27 C 1263 77 1519 328 1519 489" fill="url(#lg-0.9710133039627251)" opacity="0.4">
  <animate attributeName="d" dur="10s" repeatCount="indefinite" keyTimes="0;0.3333333333333333;0.6666666666666666;1" calcmod="spline" keySplines="0.3 0.1 0.7 0.9;0.3 0.1 0.7 0.9;0.3 0.1 0.7 0.9" begin="-4s" values="M 1519 489 C 1519 650 1241 831 1088 881 C 935 931 678 891 584 761 C 490 631 420 295 515 165 C 610 35 957 -23 1110 27 C 1263 77 1519 328 1519 489;M 1568 489 C 1568 667 1255 822 1086 877 C 917 932 555 1003 450 859 C 345 715 383 290 488 146 C 593 2 942 -31 1111 24 C 1280 79 1568 311 1568 489;M 1530 489 C 1530 650 1263 901 1110 951 C 957 1001 635 924 540 794 C 445 664 477 336 572 206 C 667 76 945 13 1098 63 C 1251 113 1530 328 1530 489;M 1519 489 C 1519 650 1241 831 1088 881 C 935 931 678 891 584 761 C 490 631 420 295 515 165 C 610 35 957 -23 1110 27 C 1263 77 1519 328 1519 489"></animate>
</path><path d="M 1580 489 C 1580 653 1227 781 1071 831 C 915 881 679 894 583 762 C 487 630 480 341 576 209 C 672 77 957 -32 1113 19 C 1269 70 1580 325 1580 489" fill="url(#lg-0.9710133039627251)" opacity="0.4">
  <animate attributeName="d" dur="10s" repeatCount="indefinite" keyTimes="0;0.3333333333333333;0.6666666666666666;1" calcmod="spline" keySplines="0.3 0.1 0.7 0.9;0.3 0.1 0.7 0.9;0.3 0.1 0.7 0.9" begin="-4s" values="M 1580 489 C 1580 653 1227 781 1071 831 C 915 881 679 894 583 762 C 487 630 480 341 576 209 C 672 77 957 -32 1113 19 C 1269 70 1580 325 1580 489;M 1573 489 C 1573 644 1224 799 1077 847 C 930 895 648 906 557 781 C 466 656 487 336 578 211 C 669 86 923 102 1070 150 C 1217 198 1573 334 1573 489;M 1525 489 C 1525 670 1297 941 1125 997 C 953 1053 544 1014 438 867 C 332 720 429 326 536 180 C 643 34 911 53 1083 109 C 1255 165 1525 308 1525 489;M 1580 489 C 1580 653 1227 781 1071 831 C 915 881 679 894 583 762 C 487 630 480 341 576 209 C 672 77 957 -32 1113 19 C 1269 70 1580 325 1580 489"></animate>
</path></g>
</svg>