<svg xmlns="http://www.w3.org/2000/svg" xmlns:xlink="http://www.w3.org/1999/xlink" style="margin:auto;background:#f1f2f3;display:block;z-index:1;position:relative" width="1920" height="977" preserveAspectRatio="xMidYMid" viewBox="0 0 1920 977">
<g transform="translate(960,488.5) scale(1,1) translate(-960,-488.5)"><linearGradient id="lg-0.5869900983467256" x1="0" x2="1" y1="0" y2="0">
  <stop stop-color="#eb7f19" offset="0"></stop>
  <stop stop-color="#dfa950" offset="1"></stop>
</linearGradient><path d="M 1490 489 C 1490 642 1240 858 1095 905 C 950 952 637 913 547 789 C 457 665 438 299 528 175 C 618 51 920 117 1065 164 C 1210 211 1490 336 1490 489" fill="url(#lg-0.5869900983467256)" opacity="0.4">
  <animate attributeName="d" dur="10s" repeatCount="indefinite" keyTimes="0;0.3333333333333333;0.6666666666666666;1" calcmod="spline" keySplines="0.3 0.1 0.7 0.9;0.3 0.1 0.7 0.9;0.3 0.1 0.7 0.9" begin="-4s" values="M 1490 489 C 1490 642 1240 858 1095 905 C 950 952 637 913 547 789 C 457 665 438 299 528 175 C 618 51 920 117 1065 164 C 1210 211 1490 336 1490 489;M 1542 489 C 1542 664 1256 832 1089 886 C 922 940 630 945 527 803 C 424 661 383 286 486 144 C 589 2 936 -5 1103 49 C 1270 103 1542 314 1542 489;M 1622 489 C 1622 671 1304 960 1131 1016 C 958 1072 561 1003 454 856 C 347 709 343 265 450 118 C 557 -29 926 4 1099 60 C 1272 116 1622 307 1622 489;M 1490 489 C 1490 642 1240 858 1095 905 C 950 952 637 913 547 789 C 457 665 438 299 528 175 C 618 51 920 117 1065 164 C 1210 211 1490 336 1490 489"></animate>
</path><path d="M 1568 489 C 1568 665 1252 815 1084 870 C 916 925 542 1011 438 868 C 334 725 360 271 464 128 C 568 -15 956 -71 1124 -16 C 1292 39 1568 313 1568 489" fill="url(#lg-0.5869900983467256)" opacity="0.4">
  <animate attributeName="d" dur="10s" repeatCount="indefinite" keyTimes="0;0.3333333333333333;0.6666666666666666;1" calcmod="spline" keySplines="0.3 0.1 0.7 0.9;0.3 0.1 0.7 0.9;0.3 0.1 0.7 0.9" begin="-4s" values="M 1568 489 C 1568 665 1252 815 1084 870 C 916 925 542 1011 438 868 C 334 725 360 271 464 128 C 568 -15 956 -71 1124 -16 C 1292 39 1568 313 1568 489;M 1567 489 C 1567 661 1258 849 1094 902 C 930 955 655 923 554 783 C 453 643 397 293 498 153 C 599 13 950 -39 1114 14 C 1278 67 1567 317 1567 489;M 1582 489 C 1582 658 1262 872 1101 924 C 940 976 558 991 458 854 C 358 717 394 287 493 150 C 592 13 958 -53 1119 -1 C 1280 51 1582 320 1582 489;M 1568 489 C 1568 665 1252 815 1084 870 C 916 925 542 1011 438 868 C 334 725 360 271 464 128 C 568 -15 956 -71 1124 -16 C 1292 39 1568 313 1568 489"></animate>
</path><path d="M 1651 489 C 1651 665 1285 920 1118 974 C 951 1028 556 999 453 857 C 350 715 329 247 432 105 C 535 -37 919 46 1086 100 C 1253 154 1651 313 1651 489" fill="url(#lg-0.5869900983467256)" opacity="0.4">
  <animate attributeName="d" dur="10s" repeatCount="indefinite" keyTimes="0;0.3333333333333333;0.6666666666666666;1" calcmod="spline" keySplines="0.3 0.1 0.7 0.9;0.3 0.1 0.7 0.9;0.3 0.1 0.7 0.9" begin="-4s" values="M 1651 489 C 1651 665 1285 920 1118 974 C 951 1028 556 999 453 857 C 350 715 329 247 432 105 C 535 -37 919 46 1086 100 C 1253 154 1651 313 1651 489;M 1609 489 C 1609 667 1268 861 1099 916 C 930 971 565 996 460 852 C 355 708 355 269 460 125 C 565 -19 937 -17 1106 38 C 1275 93 1609 311 1609 489;M 1540 489 C 1540 648 1220 774 1069 823 C 918 872 684 885 591 756 C 498 627 451 316 545 187 C 639 58 946 17 1097 66 C 1248 115 1540 330 1540 489;M 1651 489 C 1651 665 1285 920 1118 974 C 951 1028 556 999 453 857 C 350 715 329 247 432 105 C 535 -37 919 46 1086 100 C 1253 154 1651 313 1651 489"></animate>
</path><path d="M 1521 489 C 1521 651 1227 785 1073 835 C 919 885 596 953 501 822 C 406 691 448 317 543 186 C 638 55 926 68 1080 118 C 1234 168 1521 327 1521 489" fill="url(#lg-0.5869900983467256)" opacity="0.4">
  <animate attributeName="d" dur="10s" repeatCount="indefinite" keyTimes="0;0.3333333333333333;0.6666666666666666;1" calcmod="spline" keySplines="0.3 0.1 0.7 0.9;0.3 0.1 0.7 0.9;0.3 0.1 0.7 0.9" begin="-4s" values="M 1521 489 C 1521 651 1227 785 1073 835 C 919 885 596 953 501 822 C 406 691 448 317 543 186 C 638 55 926 68 1080 118 C 1234 168 1521 327 1521 489;M 1547 489 C 1547 662 1283 919 1118 973 C 953 1027 639 936 537 796 C 435 656 356 263 458 123 C 560 -17 945 -28 1110 26 C 1275 80 1547 316 1547 489;M 1564 489 C 1564 656 1236 795 1077 847 C 918 899 590 963 492 828 C 394 693 474 342 572 207 C 670 72 937 17 1096 69 C 1255 121 1564 322 1564 489;M 1521 489 C 1521 651 1227 785 1073 835 C 919 885 596 953 501 822 C 406 691 448 317 543 186 C 638 55 926 68 1080 118 C 1234 168 1521 327 1521 489"></animate>
</path><path d="M 1621 489 C 1621 672 1291 915 1117 972 C 943 1029 558 1007 450 859 C 342 711 311 243 419 95 C 527 -53 939 -40 1113 17 C 1287 74 1621 306 1621 489" fill="url(#lg-0.5869900983467256)" opacity="0.4">
  <animate attributeName="d" dur="10s" repeatCount="indefinite" keyTimes="0;0.3333333333333333;0.6666666666666666;1" calcmod="spline" keySplines="0.3 0.1 0.7 0.9;0.3 0.1 0.7 0.9;0.3 0.1 0.7 0.9" begin="-4s" values="M 1621 489 C 1621 672 1291 915 1117 972 C 943 1029 558 1007 450 859 C 342 711 311 243 419 95 C 527 -53 939 -40 1113 17 C 1287 74 1621 306 1621 489;M 1579 489 C 1579 646 1249 870 1099 918 C 949 966 585 956 492 829 C 399 702 491 342 584 215 C 677 88 953 1 1103 50 C 1253 99 1579 332 1579 489;M 1609 489 C 1609 666 1248 802 1080 857 C 912 912 629 947 525 804 C 421 661 370 278 474 135 C 578 -8 947 -44 1115 11 C 1283 66 1609 312 1609 489;M 1621 489 C 1621 672 1291 915 1117 972 C 943 1029 558 1007 450 859 C 342 711 311 243 419 95 C 527 -53 939 -40 1113 17 C 1287 74 1621 306 1621 489"></animate>
</path></g>
</svg>