<svg xmlns="http://www.w3.org/2000/svg" xmlns:xlink="http://www.w3.org/1999/xlink" style="margin:auto;background:#f1f2f3;display:block;z-index:1;position:relative" width="1360" height="947" preserveAspectRatio="xMidYMid" viewBox="0 0 1360 947">
<g transform="translate(680,473.5) scale(1,1) translate(-680,-473.5)"><defs>
<linearGradient id="lg-0.15164928196031768" x1="0" x2="0" y1="0" y2="1">
  <stop stop-color="#2b6340" offset="0.3"></stop>
  <stop stop-color="#a6c8cf" offset="0.6499999999999999"></stop>
  <stop stop-color="#a6c8cf" offset="1"></stop>
</linearGradient>
<linearGradient id="fg-lg-0.15164928196031768" x1="0" x2="0" y1="0" y2="1">
  <stop stop-color="#2b6340" stop-opacity="1" offset="0.3"></stop>
  <stop stop-color="#a6c8cf" stop-opacity="0.66" offset="0.6499999999999999"></stop>
  <stop stop-color="#a6c8cf" stop-opacity="0" offset="1"></stop>
</linearGradient>
<style type="text/css">
  path { fill: none; stroke: #bb4f4c; stroke-width: 2px }
</style>
</defs>
<rect x="0" y="0" width="1360" height="947" fill="url(#lg-0.15164928196031768)"></rect><path d="M0 284.09999999999997 L-9520 947"></path><path d="M17.435897435897434 284.09999999999997 L-9258.461538461539 947"></path><path d="M34.87179487179487 284.09999999999997 L-8996.923076923076 947"></path><path d="M52.30769230769231 284.09999999999997 L-8735.384615384615 947"></path><path d="M69.74358974358974 284.09999999999997 L-8473.846153846154 947"></path><path d="M87.17948717948718 284.09999999999997 L-8212.307692307691 947"></path><path d="M104.61538461538461 284.09999999999997 L-7950.7692307692305 947"></path><path d="M122.05128205128206 284.09999999999997 L-7689.2307692307695 947"></path><path d="M139.48717948717947 284.09999999999997 L-7427.692307692308 947"></path><path d="M156.92307692307693 284.09999999999997 L-7166.153846153846 947"></path><path d="M174.35897435897436 284.09999999999997 L-6904.615384615385 947"></path><path d="M191.7948717948718 284.09999999999997 L-6643.076923076923 947"></path><path d="M209.23076923076923 284.09999999999997 L-6381.538461538461 947"></path><path d="M226.66666666666666 284.09999999999997 L-6120 947"></path><path d="M244.10256410256412 284.09999999999997 L-5858.461538461539 947"></path><path d="M261.53846153846155 284.09999999999997 L-5596.923076923077 947"></path><path d="M278.97435897435895 284.09999999999997 L-5335.384615384615 947"></path><path d="M296.4102564102564 284.09999999999997 L-5073.846153846154 947"></path><path d="M313.84615384615387 284.09999999999997 L-4812.307692307692 947"></path><path d="M331.28205128205127 284.09999999999997 L-4550.7692307692305 947"></path><path d="M348.71794871794873 284.09999999999997 L-4289.2307692307695 947"></path><path d="M366.15384615384613 284.09999999999997 L-4027.6923076923076 947"></path><path d="M383.5897435897436 284.09999999999997 L-3766.1538461538457 947"></path><path d="M401.02564102564105 284.09999999999997 L-3504.6153846153848 947"></path><path d="M418.46153846153845 284.09999999999997 L-3243.076923076923 947"></path><path d="M435.8974358974359 284.09999999999997 L-2981.538461538462 947"></path><path d="M453.3333333333333 284.09999999999997 L-2720 947"></path><path d="M470.7692307692308 284.09999999999997 L-2458.461538461538 947"></path><path d="M488.20512820512823 284.09999999999997 L-2196.923076923077 947"></path><path d="M505.64102564102564 284.09999999999997 L-1935.3846153846152 947"></path><path d="M523.0769230769231 284.09999999999997 L-1673.8461538461543 947"></path><path d="M540.5128205128206 284.09999999999997 L-1412.3076923076924 947"></path><path d="M557.9487179487179 284.09999999999997 L-1150.7692307692305 947"></path><path d="M575.3846153846154 284.09999999999997 L-889.2307692307695 947"></path><path d="M592.8205128205128 284.09999999999997 L-627.6923076923085 947"></path><path d="M610.2564102564103 284.09999999999997 L-366.15384615384573 947"></path><path d="M627.6923076923077 284.09999999999997 L-104.61538461538476 947"></path><path d="M645.1282051282051 284.09999999999997 L156.92307692307622 947"></path><path d="M662.5641025641025 284.09999999999997 L418.461538461539 947"></path><path d="M680 284.09999999999997 L680 947"></path><path d="M697.4358974358975 284.09999999999997 L941.538461538461 947"></path><path d="M714.8717948717949 284.09999999999997 L1203.0769230769238 947"></path><path d="M732.3076923076923 284.09999999999997 L1464.6153846153848 947"></path><path d="M749.7435897435897 284.09999999999997 L1726.1538461538457 947"></path><path d="M767.1794871794872 284.09999999999997 L1987.6923076923085 947"></path><path d="M784.6153846153846 284.09999999999997 L2249.2307692307695 947"></path><path d="M802.0512820512821 284.09999999999997 L2510.7692307692305 947"></path><path d="M819.4871794871794 284.09999999999997 L2772.3076923076915 947"></path><path d="M836.9230769230769 284.09999999999997 L3033.8461538461543 947"></path><path d="M854.3589743589744 284.09999999999997 L3295.3846153846152 947"></path><path d="M871.7948717948718 284.09999999999997 L3556.923076923076 947"></path><path d="M889.2307692307693 284.09999999999997 L3818.461538461539 947"></path><path d="M906.6666666666666 284.09999999999997 L4080 947"></path><path d="M924.1025641025641 284.09999999999997 L4341.538461538461 947"></path><path d="M941.5384615384615 284.09999999999997 L4603.076923076924 947"></path><path d="M958.974358974359 284.09999999999997 L4864.615384615385 947"></path><path d="M976.4102564102565 284.09999999999997 L5126.153846153846 947"></path><path d="M993.8461538461538 284.09999999999997 L5387.6923076923085 947"></path><path d="M1011.2820512820513 284.09999999999997 L5649.2307692307695 947"></path><path d="M1028.7179487179487 284.09999999999997 L5910.7692307692305 947"></path><path d="M1046.1538461538462 284.09999999999997 L6172.3076923076915 947"></path><path d="M1063.5897435897436 284.09999999999997 L6433.846153846154 947"></path><path d="M1081.025641025641 284.09999999999997 L6695.384615384615 947"></path><path d="M1098.4615384615386 284.09999999999997 L6956.923076923078 947"></path><path d="M1115.8974358974358 284.09999999999997 L7218.461538461539 947"></path><path d="M1133.3333333333333 284.09999999999997 L7480 947"></path><path d="M1150.7692307692307 284.09999999999997 L7741.538461538461 947"></path><path d="M1168.2051282051282 284.09999999999997 L8003.076923076922 947"></path><path d="M1185.6410256410256 284.09999999999997 L8264.615384615383 947"></path><path d="M1203.076923076923 284.09999999999997 L8526.153846153848 947"></path><path d="M1220.5128205128206 284.09999999999997 L8787.692307692309 947"></path><path d="M1237.948717948718 284.09999999999997 L9049.23076923077 947"></path><path d="M1255.3846153846155 284.09999999999997 L9310.76923076923 947"></path><path d="M1272.820512820513 284.09999999999997 L9572.307692307691 947"></path><path d="M1290.2564102564102 284.09999999999997 L9833.846153846152 947"></path><path d="M1307.6923076923076 284.09999999999997 L10095.384615384617 947"></path><path d="M1325.128205128205 284.09999999999997 L10356.923076923078 947"></path><path d="M1342.5641025641025 284.09999999999997 L10618.461538461539 947"></path><path d="M1360 284.09999999999997 L10880 947"></path><g>
<path d="M0 284.09999999999997 L1360 284.09999999999997"></path>
<animateTransform attributeName="transform" type="translate" repeatCount="indefinite" calcMode="linear" keyTimes="0;1" values="0 0;0 13.946614069690993" begin="0s" dur="0.8333333333333334s"></animateTransform>

</g><g>
<path d="M0 298.046614069691 L1360 298.046614069691"></path>
<animateTransform attributeName="transform" type="translate" repeatCount="indefinite" calcMode="linear" keyTimes="0;1" values="0 0;0 27.893228139381982" begin="0s" dur="0.8333333333333334s"></animateTransform>

</g><g>
<path d="M0 325.93984220907294 L1360 325.93984220907294"></path>
<animateTransform attributeName="transform" type="translate" repeatCount="indefinite" calcMode="linear" keyTimes="0;1" values="0 0;0 41.83984220907298" begin="0s" dur="0.8333333333333334s"></animateTransform>

</g><g>
<path d="M0 367.7796844181459 L1360 367.7796844181459"></path>
<animateTransform attributeName="transform" type="translate" repeatCount="indefinite" calcMode="linear" keyTimes="0;1" values="0 0;0 55.786456278763964" begin="0s" dur="0.8333333333333334s"></animateTransform>

</g><g>
<path d="M0 423.5661406969099 L1360 423.5661406969099"></path>
<animateTransform attributeName="transform" type="translate" repeatCount="indefinite" calcMode="linear" keyTimes="0;1" values="0 0;0 69.73307034845496" begin="0s" dur="0.8333333333333334s"></animateTransform>

</g><g>
<path d="M0 493.2992110453648 L1360 493.2992110453648"></path>
<animateTransform attributeName="transform" type="translate" repeatCount="indefinite" calcMode="linear" keyTimes="0;1" values="0 0;0 83.67968441814595" begin="0s" dur="0.8333333333333334s"></animateTransform>

</g><g>
<path d="M0 576.9788954635108 L1360 576.9788954635108"></path>
<animateTransform attributeName="transform" type="translate" repeatCount="indefinite" calcMode="linear" keyTimes="0;1" values="0 0;0 97.62629848783695" begin="0s" dur="0.8333333333333334s"></animateTransform>

</g><g>
<path d="M0 674.6051939513477 L1360 674.6051939513477"></path>
<animateTransform attributeName="transform" type="translate" repeatCount="indefinite" calcMode="linear" keyTimes="0;1" values="0 0;0 111.57291255752794" begin="0s" dur="0.8333333333333334s"></animateTransform>

</g><g>
<path d="M0 786.1781065088757 L1360 786.1781065088757"></path>
<animateTransform attributeName="transform" type="translate" repeatCount="indefinite" calcMode="linear" keyTimes="0;1" values="0 0;0 125.51952662721892" begin="0s" dur="0.8333333333333334s"></animateTransform>

</g><g>
<path d="M0 911.6976331360946 L1360 911.6976331360946"></path>
<animateTransform attributeName="transform" type="translate" repeatCount="indefinite" calcMode="linear" keyTimes="0;1" values="0 0;0 139.46614069690992" begin="0s" dur="0.8333333333333334s"></animateTransform>

</g><rect x="0" y="0" width="1360" height="947" fill="url(#fg-lg-0.15164928196031768)"></rect></g>
</svg>