<svg xmlns="http://www.w3.org/2000/svg" xmlns:xlink="http://www.w3.org/1999/xlink" style="margin:auto;background:#012c32;display:block;z-index:1;position:relative"  preserveAspectRatio="xMidYMid" viewBox="0 0 1920 977">
<g transform="translate(960,488.5) scale(1,1) translate(-960,-488.5)"><path d="M-100 580.98C-64.06 581.45 -63.64 569.71 -31.61 569.71S3 577.27 36.77 577.27S73.16 588.96 105.16 588.96S139.53 572.39 173.55 572.39S209.64 578.9 241.94 578.9S277.74 579.54 310.32 579.54S344.77 584.09 378.71 584.09S413.51 568.63 447.1 568.63S482.15 568 515.48 568S550.86 568.18 583.87 568.18S619 568.53 652.26 568.53S687.68 570.56 720.65 570.56S755.86 575.53 789.03 575.53S823.55 568.15 857.42 568.15S893.31 574.24 925.81 574.24S960.55 572.43 994.19 572.43S1030.22 586.4 1062.58 586.4S1097.41 577.2 1130.97 577.2S1166.81 570.58 1199.35 570.58S1235.64 574.37 1267.74 574.37S1304.14 581.47 1336.13 581.47S1371.83 589.52 1404.52 589.52S1438.98 585.41 1472.9 585.41S1507.17 589.22 1541.29 589.22S1577.13 567.68 1609.68 567.68S1645.84 586.61 1678.06 586.61S1712.86 569.8 1746.45 569.8S1782.1 579.9 1814.84 579.9S1850.09 569.68 1883.23 569.68S1917.99 590.57 1951.61 590.57S1988.22 579.78 2020 579.78S2056.44 575.02 2088.39 575.02L2020 977 L-100 977 Z" fill="#0f3135" stroke-width="0">
  <animate attributeName="d" dur="25s" repeatCount="indefinite" values="M-100 580.98C-64.06 581.45 -63.64 569.71 -31.61 569.71S3 577.27 36.77 577.27S73.16 588.96 105.16 588.96S139.53 572.39 173.55 572.39S209.64 578.9 241.94 578.9S277.74 579.54 310.32 579.54S344.77 584.09 378.71 584.09S413.51 568.63 447.1 568.63S482.15 568 515.48 568S550.86 568.18 583.87 568.18S619 568.53 652.26 568.53S687.68 570.56 720.65 570.56S755.86 575.53 789.03 575.53S823.55 568.15 857.42 568.15S893.31 574.24 925.81 574.24S960.55 572.43 994.19 572.43S1030.22 586.4 1062.58 586.4S1097.41 577.2 1130.97 577.2S1166.81 570.58 1199.35 570.58S1235.64 574.37 1267.74 574.37S1304.14 581.47 1336.13 581.47S1371.83 589.52 1404.52 589.52S1438.98 585.41 1472.9 585.41S1507.17 589.22 1541.29 589.22S1577.13 567.68 1609.68 567.68S1645.84 586.61 1678.06 586.61S1712.86 569.8 1746.45 569.8S1782.1 579.9 1814.84 579.9S1850.09 569.68 1883.23 569.68S1917.99 590.57 1951.61 590.57S1988.22 579.78 2020 579.78S2056.44 575.02 2088.39 575.02L2020 977 L-100 977 Z;M-100 580.76C-65.63 583.24 -64.18 579.91 -31.61 579.91S3.31 573.59 36.77 573.59S73.4 587.5 105.16 587.5S139.45 582.28 173.55 582.28S209.1 577.3 241.94 577.3S277.03 571.45 310.32 571.45S345.32 583.76 378.71 583.76S415.1 571.07 447.1 571.07S482.89 568.11 515.48 568.11S551.66 579.39 583.87 579.39S618.5 579.12 652.26 579.12S687.02 581.04 720.65 581.04S756.93 577.39 789.03 577.39S824.97 581.77 857.42 581.77S893.64 582.34 925.81 582.34S962.04 571.19 994.19 571.19S1030.82 580.23 1062.58 580.23S1097.4 586.98 1130.97 586.98S1166.46 571.38 1199.35 571.38S1234.43 576.11 1267.74 576.11S1304.32 580.72 1336.13 580.72S1372.52 588.62 1404.52 588.62S1439.02 588.91 1472.9 588.91S1508.02 590.06 1541.29 590.06S1577.08 585.45 1609.68 585.45S1645.9 584.41 1678.06 584.41S1714.28 567.78 1746.45 567.78S1781.08 579.98 1814.84 579.98S1851.39 586.66 1883.23 586.66S1918.73 571.95 1951.61 571.95S1988.05 587.08 2020 587.08S2054.39 589.69 2088.39 589.69L2020 977 L-100 977 Z;M-100 580.98C-64.06 581.45 -63.64 569.71 -31.61 569.71S3 577.27 36.77 577.27S73.16 588.96 105.16 588.96S139.53 572.39 173.55 572.39S209.64 578.9 241.94 578.9S277.74 579.54 310.32 579.54S344.77 584.09 378.71 584.09S413.51 568.63 447.1 568.63S482.15 568 515.48 568S550.86 568.18 583.87 568.18S619 568.53 652.26 568.53S687.68 570.56 720.65 570.56S755.86 575.53 789.03 575.53S823.55 568.15 857.42 568.15S893.31 574.24 925.81 574.24S960.55 572.43 994.19 572.43S1030.22 586.4 1062.58 586.4S1097.41 577.2 1130.97 577.2S1166.81 570.58 1199.35 570.58S1235.64 574.37 1267.74 574.37S1304.14 581.47 1336.13 581.47S1371.83 589.52 1404.52 589.52S1438.98 585.41 1472.9 585.41S1507.17 589.22 1541.29 589.22S1577.13 567.68 1609.68 567.68S1645.84 586.61 1678.06 586.61S1712.86 569.8 1746.45 569.8S1782.1 579.9 1814.84 579.9S1850.09 569.68 1883.23 569.68S1917.99 590.57 1951.61 590.57S1988.22 579.78 2020 579.78S2056.44 575.02 2088.39 575.02L2020 977 L-100 977 Z"></animate>
  <animateTransform attributeName="transform" type="translate" dur="25s" begin="0s" repeatCount="indefinite" values="0;10;0" calcMode="spline" keySplines="0.3 0 0.7 1;0.3 0 0.7 1"></animateTransform>
</path><path d="M-100 611.29C-63.31 597.36 -62.72 619.71 -29.8 619.71S6.81 601.23 40.4 601.23S76.28 612.27 110.6 612.27S146.9 613.21 180.79 613.21S217.19 609.9 250.99 609.9S287.02 611 321.19 611S358.64 609.12 391.39 609.12S427.22 612.91 461.59 612.91S498.53 599.98 531.79 599.98S567.05 602.15 601.99 602.15S638.84 613.12 672.19 613.12S708.01 596.78 742.38 596.78S779.04 605.66 812.58 605.66S848.09 611.45 882.78 611.45S920.05 599.97 952.98 599.97S988.39 596.01 1023.18 596.01S1058.7 609.89 1093.38 609.89S1129.42 609.32 1163.58 609.32S1201.09 603.1 1233.77 603.1S1270.79 603.22 1303.97 603.22S1339.71 608.53 1374.17 608.53S1410.22 613.46 1444.37 613.46S1479.48 602.79 1514.57 602.79S1551.59 614.46 1584.77 614.46S1622.23 617.83 1654.97 617.83S1692.38 611.17 1725.17 611.17S1760.56 619.77 1795.36 619.77S1832.47 601 1865.56 601S1901.06 617.41 1935.76 617.41S1972.3 593.85 2005.96 593.85S2041.49 610.46 2076.16 610.46L2020 977 L-100 977 Z" fill="#254346" stroke-width="0">
  <animate attributeName="d" dur="22.5s" repeatCount="indefinite" values="M-100 611.29C-63.31 597.36 -62.72 619.71 -29.8 619.71S6.81 601.23 40.4 601.23S76.28 612.27 110.6 612.27S146.9 613.21 180.79 613.21S217.19 609.9 250.99 609.9S287.02 611 321.19 611S358.64 609.12 391.39 609.12S427.22 612.91 461.59 612.91S498.53 599.98 531.79 599.98S567.05 602.15 601.99 602.15S638.84 613.12 672.19 613.12S708.01 596.78 742.38 596.78S779.04 605.66 812.58 605.66S848.09 611.45 882.78 611.45S920.05 599.97 952.98 599.97S988.39 596.01 1023.18 596.01S1058.7 609.89 1093.38 609.89S1129.42 609.32 1163.58 609.32S1201.09 603.1 1233.77 603.1S1270.79 603.22 1303.97 603.22S1339.71 608.53 1374.17 608.53S1410.22 613.46 1444.37 613.46S1479.48 602.79 1514.57 602.79S1551.59 614.46 1584.77 614.46S1622.23 617.83 1654.97 617.83S1692.38 611.17 1725.17 611.17S1760.56 619.77 1795.36 619.77S1832.47 601 1865.56 601S1901.06 617.41 1935.76 617.41S1972.3 593.85 2005.96 593.85S2041.49 610.46 2076.16 610.46L2020 977 L-100 977 Z;M-100 597.29C-63.57 617.1 -62.54 610.92 -29.8 610.92S5.88 609.93 40.4 609.93S76.68 599.07 110.6 599.07S146.13 613.8 180.79 613.8S216.16 610.32 250.99 610.32S287.38 604.61 321.19 604.61S358.7 604.36 391.39 604.36S427.52 592.45 461.59 592.45S499 609.02 531.79 609.02S566.97 599.42 601.99 599.42S637.2 614.79 672.19 614.79S707.65 598.59 742.38 598.59S778.28 599.68 812.58 599.68S849.1 598.03 882.78 598.03S920.2 598.53 952.98 598.53S989.21 599.2 1023.18 599.2S1060.42 607.77 1093.38 607.77S1130.64 611.83 1163.58 611.83S1199.35 616.7 1233.77 616.7S1269.63 607.32 1303.97 607.32S1340.18 617.04 1374.17 617.04S1411.46 606.91 1444.37 606.91S1481.81 610.72 1514.57 610.72S1551.42 614.58 1584.77 614.58S1622.08 609.85 1654.97 609.85S1692.06 607.63 1725.17 607.63S1762.46 616.57 1795.36 616.57S1831.14 598.48 1865.56 598.48S1902.55 604.72 1935.76 604.72S1972.57 612.07 2005.96 612.07S2041.46 615.32 2076.16 615.32L2020 977 L-100 977 Z;M-100 611.29C-63.31 597.36 -62.72 619.71 -29.8 619.71S6.81 601.23 40.4 601.23S76.28 612.27 110.6 612.27S146.9 613.21 180.79 613.21S217.19 609.9 250.99 609.9S287.02 611 321.19 611S358.64 609.12 391.39 609.12S427.22 612.91 461.59 612.91S498.53 599.98 531.79 599.98S567.05 602.15 601.99 602.15S638.84 613.12 672.19 613.12S708.01 596.78 742.38 596.78S779.04 605.66 812.58 605.66S848.09 611.45 882.78 611.45S920.05 599.97 952.98 599.97S988.39 596.01 1023.18 596.01S1058.7 609.89 1093.38 609.89S1129.42 609.32 1163.58 609.32S1201.09 603.1 1233.77 603.1S1270.79 603.22 1303.97 603.22S1339.71 608.53 1374.17 608.53S1410.22 613.46 1444.37 613.46S1479.48 602.79 1514.57 602.79S1551.59 614.46 1584.77 614.46S1622.23 617.83 1654.97 617.83S1692.38 611.17 1725.17 611.17S1760.56 619.77 1795.36 619.77S1832.47 601 1865.56 601S1901.06 617.41 1935.76 617.41S1972.3 593.85 2005.96 593.85S2041.49 610.46 2076.16 610.46L2020 977 L-100 977 Z"></animate>
  <animateTransform attributeName="transform" type="translate" dur="22.5s" begin="-2.25s" repeatCount="indefinite" values="0;10;0" calcMode="spline" keySplines="0.3 0 0.7 1;0.3 0 0.7 1"></animateTransform>
</path><path d="M-100 630.59C-61.95 624.58 -61.77 631.34 -27.89 631.34S8.48 639.61 44.22 639.61S82.35 628.32 116.33 628.32S153.47 630.03 188.44 630.03S225.5 648.29 260.54 648.29S297.34 633.57 332.65 633.57S369.78 637.42 404.76 637.42S443.15 647.16 476.87 647.16S515.14 626.97 548.98 626.97S586.98 627.49 621.09 627.49S657.37 639.05 693.2 639.05S730.62 635.37 765.31 635.37S802.97 638.53 837.41 638.53S875.42 625.68 909.52 625.68S947.84 634.7 981.63 634.7S1019.29 627.54 1053.74 627.54S1091.37 638.93 1125.85 638.93S1164.06 630.95 1197.96 630.95S1234.02 625.65 1270.07 625.65S1306.87 631.08 1342.18 631.08S1380.28 639.92 1414.29 639.92S1452.74 631.16 1486.39 631.16S1522.69 631.22 1558.5 631.22S1594.79 624.38 1630.61 624.38S1667.43 647.46 1702.72 647.46S1739.61 631.71 1774.83 631.71S1812.11 639.7 1846.94 639.7S1884.22 633.35 1919.05 633.35S1956.1 628.2 1991.16 628.2S2028.08 625.83 2063.27 625.83L2020 977 L-100 977 Z" fill="#3b5658" stroke-width="0">
  <animate attributeName="d" dur="20s" repeatCount="indefinite" values="M-100 630.59C-61.95 624.58 -61.77 631.34 -27.89 631.34S8.48 639.61 44.22 639.61S82.35 628.32 116.33 628.32S153.47 630.03 188.44 630.03S225.5 648.29 260.54 648.29S297.34 633.57 332.65 633.57S369.78 637.42 404.76 637.42S443.15 647.16 476.87 647.16S515.14 626.97 548.98 626.97S586.98 627.49 621.09 627.49S657.37 639.05 693.2 639.05S730.62 635.37 765.31 635.37S802.97 638.53 837.41 638.53S875.42 625.68 909.52 625.68S947.84 634.7 981.63 634.7S1019.29 627.54 1053.74 627.54S1091.37 638.93 1125.85 638.93S1164.06 630.95 1197.96 630.95S1234.02 625.65 1270.07 625.65S1306.87 631.08 1342.18 631.08S1380.28 639.92 1414.29 639.92S1452.74 631.16 1486.39 631.16S1522.69 631.22 1558.5 631.22S1594.79 624.38 1630.61 624.38S1667.43 647.46 1702.72 647.46S1739.61 631.71 1774.83 631.71S1812.11 639.7 1846.94 639.7S1884.22 633.35 1919.05 633.35S1956.1 628.2 1991.16 628.2S2028.08 625.83 2063.27 625.83L2020 977 L-100 977 Z;M-100 633.36C-62.07 637.22 -61.51 634.13 -27.89 634.13S8.87 633.8 44.22 633.8S81.27 629.08 116.33 629.08S153.86 640.07 188.44 640.07S226.85 633.08 260.54 633.08S297.4 617.37 332.65 617.37S370.08 646.86 404.76 646.86S443.07 634.67 476.87 634.67S514.63 643.59 548.98 643.59S587.15 635.05 621.09 635.05S659.29 647.36 693.2 647.36S729.69 625.54 765.31 625.54S801.78 640.2 837.41 640.2S873.73 634.28 909.52 634.28S947.82 649.48 981.63 649.48S1019.79 618.74 1053.74 618.74S1091.9 646.86 1125.85 646.86S1163.93 637.55 1197.96 637.55S1234.77 644.3 1270.07 644.3S1307.54 618.74 1342.18 618.74S1378.57 631.35 1414.29 631.35S1451.01 633.11 1486.39 633.11S1523.93 641.79 1558.5 641.79S1595.83 637.01 1630.61 637.01S1669.09 640.39 1702.72 640.39S1741.12 631.99 1774.83 631.99S1812.44 645.46 1846.94 645.46S1884.97 634.62 1919.05 634.62S1955.56 638.09 1991.16 638.09S2028.88 636.3 2063.27 636.3L2020 977 L-100 977 Z;M-100 630.59C-61.95 624.58 -61.77 631.34 -27.89 631.34S8.48 639.61 44.22 639.61S82.35 628.32 116.33 628.32S153.47 630.03 188.44 630.03S225.5 648.29 260.54 648.29S297.34 633.57 332.65 633.57S369.78 637.42 404.76 637.42S443.15 647.16 476.87 647.16S515.14 626.97 548.98 626.97S586.98 627.49 621.09 627.49S657.37 639.05 693.2 639.05S730.62 635.37 765.31 635.37S802.97 638.53 837.41 638.53S875.42 625.68 909.52 625.68S947.84 634.7 981.63 634.7S1019.29 627.54 1053.74 627.54S1091.37 638.93 1125.85 638.93S1164.06 630.95 1197.96 630.95S1234.02 625.65 1270.07 625.65S1306.87 631.08 1342.18 631.08S1380.28 639.92 1414.29 639.92S1452.74 631.16 1486.39 631.16S1522.69 631.22 1558.5 631.22S1594.79 624.38 1630.61 624.38S1667.43 647.46 1702.72 647.46S1739.61 631.71 1774.83 631.71S1812.11 639.7 1846.94 639.7S1884.22 633.35 1919.05 633.35S1956.1 628.2 1991.16 628.2S2028.08 625.83 2063.27 625.83L2020 977 L-100 977 Z"></animate>
  <animateTransform attributeName="transform" type="translate" dur="20s" begin="-4s" repeatCount="indefinite" values="0;10;0" calcMode="spline" keySplines="0.3 0 0.7 1;0.3 0 0.7 1"></animateTransform>
</path><path d="M-100 663.29C-61.2 660.5 -61.58 647.96 -25.87 647.96S11.74 654.47 48.25 654.47S86.94 643.27 122.38 643.27S160.46 651.43 196.5 651.43S234.75 663.82 270.63 663.82S307.99 659.58 344.76 659.58S384.19 677.86 418.88 677.86S458.19 654.82 493.01 654.82S531.23 674.52 567.13 674.52S605.55 654.21 641.26 654.21S679.88 673.48 715.38 673.48S754.25 644.68 789.51 644.68S828.51 675.19 863.64 675.19S903.06 657.53 937.76 657.53S976.94 678.42 1011.89 678.42S1050.46 656.88 1086.01 656.88S1123.37 663.44 1160.14 663.44S1198.5 661.39 1234.27 661.39S1272.11 664.67 1308.39 664.67S1345.57 656.63 1382.52 656.63S1420.56 661.84 1456.64 661.84S1495.79 661.36 1530.77 661.36S1568.08 657.83 1604.9 657.83S1642.2 659.22 1679.02 659.22S1716.41 659.79 1753.15 659.79S1792.12 642 1827.27 642S1865.55 668.71 1901.4 668.71S1939.5 662.85 1975.52 662.85S2014.83 675.39 2049.65 675.39L2020 977 L-100 977 Z" fill="#51696b" stroke-width="0">
  <animate attributeName="d" dur="17.5s" repeatCount="indefinite" values="M-100 663.29C-61.2 660.5 -61.58 647.96 -25.87 647.96S11.74 654.47 48.25 654.47S86.94 643.27 122.38 643.27S160.46 651.43 196.5 651.43S234.75 663.82 270.63 663.82S307.99 659.58 344.76 659.58S384.19 677.86 418.88 677.86S458.19 654.82 493.01 654.82S531.23 674.52 567.13 674.52S605.55 654.21 641.26 654.21S679.88 673.48 715.38 673.48S754.25 644.68 789.51 644.68S828.51 675.19 863.64 675.19S903.06 657.53 937.76 657.53S976.94 678.42 1011.89 678.42S1050.46 656.88 1086.01 656.88S1123.37 663.44 1160.14 663.44S1198.5 661.39 1234.27 661.39S1272.11 664.67 1308.39 664.67S1345.57 656.63 1382.52 656.63S1420.56 661.84 1456.64 661.84S1495.79 661.36 1530.77 661.36S1568.08 657.83 1604.9 657.83S1642.2 659.22 1679.02 659.22S1716.41 659.79 1753.15 659.79S1792.12 642 1827.27 642S1865.55 668.71 1901.4 668.71S1939.5 662.85 1975.52 662.85S2014.83 675.39 2049.65 675.39L2020 977 L-100 977 Z;M-100 651.25C-60.89 650.35 -61.13 654.66 -25.87 654.66S11.98 646.51 48.25 646.51S87.07 661.39 122.38 661.39S159.53 654.78 196.5 654.78S235.71 662.2 270.63 662.2S309.01 657.35 344.76 657.35S382.94 656.4 418.88 656.4S456.46 663.29 493.01 663.29S531.81 678.9 567.13 678.9S605.94 646.82 641.26 646.82S679.91 678.31 715.38 678.31S752.96 646.59 789.51 646.59S828.2 658.07 863.64 658.07S902.62 659.87 937.76 659.87S976 671.95 1011.89 671.95S1050.26 656.38 1086.01 656.38S1124.37 674.21 1160.14 674.21S1198.18 662.61 1234.27 662.61S1272.84 663.52 1308.39 663.52S1346.79 673.35 1382.52 673.35S1421.95 655.46 1456.64 655.46S1495.28 659.25 1530.77 659.25S1570.25 678.67 1604.9 678.67S1643.65 655.64 1679.02 655.64S1716.95 665.99 1753.15 665.99S1790.78 646.72 1827.27 646.72S1865.58 675.1 1901.4 675.1S1938.94 655.79 1975.52 655.79S2013.26 677.14 2049.65 677.14L2020 977 L-100 977 Z;M-100 663.29C-61.2 660.5 -61.58 647.96 -25.87 647.96S11.74 654.47 48.25 654.47S86.94 643.27 122.38 643.27S160.46 651.43 196.5 651.43S234.75 663.82 270.63 663.82S307.99 659.58 344.76 659.58S384.19 677.86 418.88 677.86S458.19 654.82 493.01 654.82S531.23 674.52 567.13 674.52S605.55 654.21 641.26 654.21S679.88 673.48 715.38 673.48S754.25 644.68 789.51 644.68S828.51 675.19 863.64 675.19S903.06 657.53 937.76 657.53S976.94 678.42 1011.89 678.42S1050.46 656.88 1086.01 656.88S1123.37 663.44 1160.14 663.44S1198.5 661.39 1234.27 661.39S1272.11 664.67 1308.39 664.67S1345.57 656.63 1382.52 656.63S1420.56 661.84 1456.64 661.84S1495.79 661.36 1530.77 661.36S1568.08 657.83 1604.9 657.83S1642.2 659.22 1679.02 659.22S1716.41 659.79 1753.15 659.79S1792.12 642 1827.27 642S1865.55 668.71 1901.4 668.71S1939.5 662.85 1975.52 662.85S2014.83 675.39 2049.65 675.39L2020 977 L-100 977 Z"></animate>
  <animateTransform attributeName="transform" type="translate" dur="17.5s" begin="-5.25s" repeatCount="indefinite" values="0;10;0" calcMode="spline" keySplines="0.3 0 0.7 1;0.3 0 0.7 1"></animateTransform>
</path><path d="M-100 682.92C-60.31 664.76 -59.77 708.04 -23.74 708.04S15.04 678.23 52.52 678.23S91.42 689.05 128.78 689.05S167.43 687.12 205.04 687.12S244.14 681.6 281.29 681.6S321.53 700.35 357.55 700.35S397.98 689.22 433.81 689.22S473.9 668.78 510.07 668.78S550.06 699.7 586.33 699.7S625.72 667.66 662.59 667.66S701.88 692.3 738.85 692.3S778.03 672.48 815.11 672.48S855.28 684.23 891.37 684.23S931.86 683.13 967.63 683.13S1006.05 696.76 1043.88 696.76S1083.59 677.68 1120.14 677.68S1158.34 692.38 1196.4 692.38S1234.96 671.04 1272.66 671.04S1311.48 691.41 1348.92 691.41S1388.13 674.19 1425.18 674.19S1463.33 688.95 1501.44 688.95S1540.77 676.3 1577.7 676.3S1617.59 704.78 1653.96 704.78S1694.29 671.96 1730.22 671.96S1770.53 679.29 1806.47 679.29S1846.07 673.39 1882.73 673.39S1922.36 698.38 1958.99 698.38S1999.3 677.42 2035.25 677.42L2020 977 L-100 977 Z" fill="#677d7f" stroke-width="0">
  <animate attributeName="d" dur="15s" repeatCount="indefinite" values="M-100 682.92C-60.31 664.76 -59.77 708.04 -23.74 708.04S15.04 678.23 52.52 678.23S91.42 689.05 128.78 689.05S167.43 687.12 205.04 687.12S244.14 681.6 281.29 681.6S321.53 700.35 357.55 700.35S397.98 689.22 433.81 689.22S473.9 668.78 510.07 668.78S550.06 699.7 586.33 699.7S625.72 667.66 662.59 667.66S701.88 692.3 738.85 692.3S778.03 672.48 815.11 672.48S855.28 684.23 891.37 684.23S931.86 683.13 967.63 683.13S1006.05 696.76 1043.88 696.76S1083.59 677.68 1120.14 677.68S1158.34 692.38 1196.4 692.38S1234.96 671.04 1272.66 671.04S1311.48 691.41 1348.92 691.41S1388.13 674.19 1425.18 674.19S1463.33 688.95 1501.44 688.95S1540.77 676.3 1577.7 676.3S1617.59 704.78 1653.96 704.78S1694.29 671.96 1730.22 671.96S1770.53 679.29 1806.47 679.29S1846.07 673.39 1882.73 673.39S1922.36 698.38 1958.99 698.38S1999.3 677.42 2035.25 677.42L2020 977 L-100 977 Z;M-100 680.21C-61.48 669.98 -61.6 703.65 -23.74 703.65S14.68 682.7 52.52 682.7S90.8 707.92 128.78 707.92S168.62 681.9 205.04 681.9S244.91 706.26 281.29 706.26S320.29 680.85 357.55 680.85S397.16 691.61 433.81 691.61S472.36 664.4 510.07 664.4S548.25 701.12 586.33 701.12S625.42 688.47 662.59 688.47S702.69 691.71 738.85 691.71S777.08 682.31 815.11 682.31S855.48 693.52 891.37 693.52S931.5 666.99 967.63 666.99S1008.15 681.03 1043.88 681.03S1082.3 688.46 1120.14 688.46S1160.43 704.12 1196.4 704.12S1236.96 671.66 1272.66 671.66S1313.1 696.49 1348.92 696.49S1388.67 671.11 1425.18 671.11S1463.78 687.75 1501.44 687.75S1541.2 667.9 1577.7 667.9S1616.14 689.22 1653.96 689.22S1692.26 678.07 1730.22 678.07S1770.72 703.7 1806.47 703.7S1846.3 667.04 1882.73 667.04S1921.66 698.88 1958.99 698.88S1998.34 707.92 2035.25 707.92L2020 977 L-100 977 Z;M-100 682.92C-60.31 664.76 -59.77 708.04 -23.74 708.04S15.04 678.23 52.52 678.23S91.42 689.05 128.78 689.05S167.43 687.12 205.04 687.12S244.14 681.6 281.29 681.6S321.53 700.35 357.55 700.35S397.98 689.22 433.81 689.22S473.9 668.78 510.07 668.78S550.06 699.7 586.33 699.7S625.72 667.66 662.59 667.66S701.88 692.3 738.85 692.3S778.03 672.48 815.11 672.48S855.28 684.23 891.37 684.23S931.86 683.13 967.63 683.13S1006.05 696.76 1043.88 696.76S1083.59 677.68 1120.14 677.68S1158.34 692.38 1196.4 692.38S1234.96 671.04 1272.66 671.04S1311.48 691.41 1348.92 691.41S1388.13 674.19 1425.18 674.19S1463.33 688.95 1501.44 688.95S1540.77 676.3 1577.7 676.3S1617.59 704.78 1653.96 704.78S1694.29 671.96 1730.22 671.96S1770.53 679.29 1806.47 679.29S1846.07 673.39 1882.73 673.39S1922.36 698.38 1958.99 698.38S1999.3 677.42 2035.25 677.42L2020 977 L-100 977 Z"></animate>
  <animateTransform attributeName="transform" type="translate" dur="15s" begin="-6s" repeatCount="indefinite" values="0;10;0" calcMode="spline" keySplines="0.3 0 0.7 1;0.3 0 0.7 1"></animateTransform>
</path><path d="M-100 696.43C-58.89 692.44 -60.43 728.94 -21.48 728.94S18.4 696.48 57.04 696.48S98.18 724.68 135.56 724.68S175.99 690.41 214.07 690.41S253.5 714.33 292.59 714.33S332.41 709.82 371.11 709.82S410.89 726.65 449.63 726.65S489.4 735.02 528.15 735.02S568.01 727.47 606.67 727.47S647.12 716.18 685.19 716.18S725.75 727.72 763.7 727.72S804.33 699.54 842.22 699.54S882.81 721 920.74 721S960.17 701.11 999.26 701.11S1039.17 692.86 1077.78 692.86S1118.07 711.89 1156.3 711.89S1196.84 717.66 1234.81 717.66S1274.86 707.84 1313.33 707.84S1354.35 722.4 1391.85 722.4S1433.28 689.3 1470.37 689.3S1511.33 716.76 1548.89 716.76S1588.17 689.75 1627.41 689.75S1668.98 729.71 1705.93 729.71S1746.32 692.66 1784.44 692.66S1824.5 726.77 1862.96 726.77S1902.69 712.14 1941.48 712.14S1980.95 706.48 2020 706.48S2061.1 696.3 2098.52 696.3L2020 977 L-100 977 Z" fill="#7e9193" stroke-width="0">
  <animate attributeName="d" dur="12.5s" repeatCount="indefinite" values="M-100 696.43C-58.89 692.44 -60.43 728.94 -21.48 728.94S18.4 696.48 57.04 696.48S98.18 724.68 135.56 724.68S175.99 690.41 214.07 690.41S253.5 714.33 292.59 714.33S332.41 709.82 371.11 709.82S410.89 726.65 449.63 726.65S489.4 735.02 528.15 735.02S568.01 727.47 606.67 727.47S647.12 716.18 685.19 716.18S725.75 727.72 763.7 727.72S804.33 699.54 842.22 699.54S882.81 721 920.74 721S960.17 701.11 999.26 701.11S1039.17 692.86 1077.78 692.86S1118.07 711.89 1156.3 711.89S1196.84 717.66 1234.81 717.66S1274.86 707.84 1313.33 707.84S1354.35 722.4 1391.85 722.4S1433.28 689.3 1470.37 689.3S1511.33 716.76 1548.89 716.76S1588.17 689.75 1627.41 689.75S1668.98 729.71 1705.93 729.71S1746.32 692.66 1784.44 692.66S1824.5 726.77 1862.96 726.77S1902.69 712.14 1941.48 712.14S1980.95 706.48 2020 706.48S2061.1 696.3 2098.52 696.3L2020 977 L-100 977 Z;M-100 702.84C-60.15 703.86 -60.33 721.46 -21.48 721.46S20.04 711.29 57.04 711.29S96.8 724.2 135.56 724.2S175.3 705.19 214.07 705.19S253.63 724.09 292.59 724.09S332.34 694.42 371.11 694.42S410.98 731.47 449.63 731.47S489.92 715.41 528.15 715.41S568.53 737.09 606.67 737.09S647.7 737.38 685.19 737.38S726.05 713.76 763.7 713.76S803.08 691.76 842.22 691.76S882.12 717.53 920.74 717.53S960.27 707.05 999.26 707.05S1039.09 721.09 1077.78 721.09S1117.31 693.88 1156.3 693.88S1196.15 708.04 1234.81 708.04S1274.38 710.42 1313.33 710.42S1354.41 727.59 1391.85 727.59S1431.78 694.46 1470.37 694.46S1509.65 692.77 1548.89 692.77S1588.4 711.88 1627.41 711.88S1667.06 720.37 1705.93 720.37S1746.34 734.56 1784.44 734.56S1824.91 715.64 1862.96 715.64S1903.22 704.85 1941.48 704.85S1982.48 713.31 2020 713.31S2060.38 707.73 2098.52 707.73L2020 977 L-100 977 Z;M-100 696.43C-58.89 692.44 -60.43 728.94 -21.48 728.94S18.4 696.48 57.04 696.48S98.18 724.68 135.56 724.68S175.99 690.41 214.07 690.41S253.5 714.33 292.59 714.33S332.41 709.82 371.11 709.82S410.89 726.65 449.63 726.65S489.4 735.02 528.15 735.02S568.01 727.47 606.67 727.47S647.12 716.18 685.19 716.18S725.75 727.72 763.7 727.72S804.33 699.54 842.22 699.54S882.81 721 920.74 721S960.17 701.11 999.26 701.11S1039.17 692.86 1077.78 692.86S1118.07 711.89 1156.3 711.89S1196.84 717.66 1234.81 717.66S1274.86 707.84 1313.33 707.84S1354.35 722.4 1391.85 722.4S1433.28 689.3 1470.37 689.3S1511.33 716.76 1548.89 716.76S1588.17 689.75 1627.41 689.75S1668.98 729.71 1705.93 729.71S1746.32 692.66 1784.44 692.66S1824.5 726.77 1862.96 726.77S1902.69 712.14 1941.48 712.14S1980.95 706.48 2020 706.48S2061.1 696.3 2098.52 696.3L2020 977 L-100 977 Z"></animate>
  <animateTransform attributeName="transform" type="translate" dur="12.5s" begin="-6.25s" repeatCount="indefinite" values="0;10;0" calcMode="spline" keySplines="0.3 0 0.7 1;0.3 0 0.7 1"></animateTransform>
</path><path d="M-100 721.42C-57.18 731.55 -58.37 763.62 -19.08 763.62S22.77 729.86 61.83 729.86S104.44 748.66 142.75 748.66S185.07 728.43 223.66 728.43S265.48 760.46 304.58 760.46S346.58 726.6 385.5 726.6S426.43 747.15 466.41 747.15S508.56 715.8 547.33 715.8S589.22 760.45 628.24 760.45S670.65 724.27 709.16 724.27S750.02 746 790.08 746S830.68 728.63 870.99 728.63S913.79 749.86 951.91 749.86S993.07 761.28 1032.82 761.28S1075.68 751.77 1113.74 751.77S1155.73 724.34 1194.66 724.34S1236.41 755.27 1275.57 755.27S1316.57 723.17 1356.49 723.17S1398.96 761.99 1437.4 761.99S1479.38 730.67 1518.32 730.67S1559.12 756.22 1599.24 756.22S1640.99 726.2 1680.15 726.2S1721.93 765.03 1761.07 765.03S1802.67 742.7 1841.98 742.7S1883.2 756.07 1922.9 756.07S1963.56 730.89 2003.82 730.89S2045.79 746.36 2084.73 746.36L2020 977 L-100 977 Z" fill="#95a6a7" stroke-width="0">
  <animate attributeName="d" dur="10s" repeatCount="indefinite" values="M-100 721.42C-57.18 731.55 -58.37 763.62 -19.08 763.62S22.77 729.86 61.83 729.86S104.44 748.66 142.75 748.66S185.07 728.43 223.66 728.43S265.48 760.46 304.58 760.46S346.58 726.6 385.5 726.6S426.43 747.15 466.41 747.15S508.56 715.8 547.33 715.8S589.22 760.45 628.24 760.45S670.65 724.27 709.16 724.27S750.02 746 790.08 746S830.68 728.63 870.99 728.63S913.79 749.86 951.91 749.86S993.07 761.28 1032.82 761.28S1075.68 751.77 1113.74 751.77S1155.73 724.34 1194.66 724.34S1236.41 755.27 1275.57 755.27S1316.57 723.17 1356.49 723.17S1398.96 761.99 1437.4 761.99S1479.38 730.67 1518.32 730.67S1559.12 756.22 1599.24 756.22S1640.99 726.2 1680.15 726.2S1721.93 765.03 1761.07 765.03S1802.67 742.7 1841.98 742.7S1883.2 756.07 1922.9 756.07S1963.56 730.89 2003.82 730.89S2045.79 746.36 2084.73 746.36L2020 977 L-100 977 Z;M-100 714.03C-59.28 731.76 -58.98 743.82 -19.08 743.82S21.57 716.86 61.83 716.86S104.2 766.51 142.75 766.51S185.33 713.93 223.66 713.93S265.29 750.63 304.58 750.63S347.32 714.95 385.5 714.95S427.67 762.47 466.41 762.47S508.98 716.72 547.33 716.72S588.37 757.08 628.24 757.08S670.61 732.8 709.16 732.8S750.47 747.94 790.08 747.94S832.13 728.62 870.99 728.62S912.26 762.54 951.91 762.54S994.11 716.78 1032.82 716.78S1075.43 751.23 1113.74 751.23S1155.33 731.49 1194.66 731.49S1237.1 713.64 1275.57 713.64S1318.27 757.68 1356.49 757.68S1397.76 757.53 1437.4 757.53S1478.31 714.4 1518.32 714.4S1560.02 734.79 1599.24 734.79S1641.99 755.47 1680.15 755.47S1722.52 758.79 1761.07 758.79S1801.65 754.26 1841.98 754.26S1884.72 755.34 1922.9 755.34S1964.64 723.24 2003.82 723.24S2045.04 748.43 2084.73 748.43L2020 977 L-100 977 Z;M-100 721.42C-57.18 731.55 -58.37 763.62 -19.08 763.62S22.77 729.86 61.83 729.86S104.44 748.66 142.75 748.66S185.07 728.43 223.66 728.43S265.48 760.46 304.58 760.46S346.58 726.6 385.5 726.6S426.43 747.15 466.41 747.15S508.56 715.8 547.33 715.8S589.22 760.45 628.24 760.45S670.65 724.27 709.16 724.27S750.02 746 790.08 746S830.68 728.63 870.99 728.63S913.79 749.86 951.91 749.86S993.07 761.28 1032.82 761.28S1075.68 751.77 1113.74 751.77S1155.73 724.34 1194.66 724.34S1236.41 755.27 1275.57 755.27S1316.57 723.17 1356.49 723.17S1398.96 761.99 1437.4 761.99S1479.38 730.67 1518.32 730.67S1559.12 756.22 1599.24 756.22S1640.99 726.2 1680.15 726.2S1721.93 765.03 1761.07 765.03S1802.67 742.7 1841.98 742.7S1883.2 756.07 1922.9 756.07S1963.56 730.89 2003.82 730.89S2045.79 746.36 2084.73 746.36L2020 977 L-100 977 Z"></animate>
  <animateTransform attributeName="transform" type="translate" dur="10s" begin="-6s" repeatCount="indefinite" values="0;10;0" calcMode="spline" keySplines="0.3 0 0.7 1;0.3 0 0.7 1"></animateTransform>
</path><path d="M-100 776.39C-56.83 790.47 -55.89 778.64 -16.54 778.64S25.93 754.06 66.93 754.06S110.03 790.18 150.39 790.18S194.09 738.94 233.86 738.94S275.79 737.97 317.32 737.97S361.27 758.78 400.79 758.78S442.64 781.91 484.25 781.91S526.11 742.96 567.72 742.96S611.37 794.64 651.18 794.64S693.73 748.65 734.65 748.65S777.42 789.27 818.11 789.27S861.63 759.55 901.57 759.55S945.56 796.03 985.04 796.03S1028.59 759.26 1068.5 759.26S1111.3 781.89 1151.97 781.89S1194.61 752.93 1235.43 752.93S1277.31 753.55 1318.9 753.55S1361.01 775.91 1402.36 775.91S1444.69 776.37 1485.83 776.37S1528.58 744.58 1569.29 744.58S1613.4 784.03 1652.76 784.03S1694.73 752.12 1736.22 752.12S1779.59 755.4 1819.69 755.4S1862.51 755.85 1903.15 755.85S1945.27 789.43 1986.61 789.43S2028.46 744.01 2070.08 744.01L2020 977 L-100 977 Z" fill="#adbcbc" stroke-width="0">
  <animate attributeName="d" dur="7.5s" repeatCount="indefinite" values="M-100 776.39C-56.83 790.47 -55.89 778.64 -16.54 778.64S25.93 754.06 66.93 754.06S110.03 790.18 150.39 790.18S194.09 738.94 233.86 738.94S275.79 737.97 317.32 737.97S361.27 758.78 400.79 758.78S442.64 781.91 484.25 781.91S526.11 742.96 567.72 742.96S611.37 794.64 651.18 794.64S693.73 748.65 734.65 748.65S777.42 789.27 818.11 789.27S861.63 759.55 901.57 759.55S945.56 796.03 985.04 796.03S1028.59 759.26 1068.5 759.26S1111.3 781.89 1151.97 781.89S1194.61 752.93 1235.43 752.93S1277.31 753.55 1318.9 753.55S1361.01 775.91 1402.36 775.91S1444.69 776.37 1485.83 776.37S1528.58 744.58 1569.29 744.58S1613.4 784.03 1652.76 784.03S1694.73 752.12 1736.22 752.12S1779.59 755.4 1819.69 755.4S1862.51 755.85 1903.15 755.85S1945.27 789.43 1986.61 789.43S2028.46 744.01 2070.08 744.01L2020 977 L-100 977 Z;M-100 791.55C-56.95 786.09 -55.9 779.48 -16.54 779.48S27.61 759.12 66.93 759.12S109.08 795.66 150.39 795.66S192.84 754.9 233.86 754.9S277.44 774.89 317.32 774.89S359.93 754.37 400.79 754.37S443.78 773.12 484.25 773.12S526.61 746.78 567.72 746.78S610.59 782.89 651.18 782.89S694.38 742.56 734.65 742.56S777.56 782.26 818.11 782.26S860.39 749.58 901.57 749.58S944.94 774.54 985.04 774.54S1027.55 759.57 1068.5 759.57S1112.63 775.74 1151.97 775.74S1193.73 749.78 1235.43 749.78S1278.22 789.21 1318.9 789.21S1361.82 760.01 1402.36 760.01S1445.65 785.04 1485.83 785.04S1529.52 740.5 1569.29 740.5S1611.43 792.9 1652.76 792.9S1695.78 742.06 1736.22 742.06S1778.03 796.06 1819.69 796.06S1861.78 753.88 1903.15 753.88S1947.08 779.48 1986.61 779.48S2029.54 752.06 2070.08 752.06L2020 977 L-100 977 Z;M-100 776.39C-56.83 790.47 -55.89 778.64 -16.54 778.64S25.93 754.06 66.93 754.06S110.03 790.18 150.39 790.18S194.09 738.94 233.86 738.94S275.79 737.97 317.32 737.97S361.27 758.78 400.79 758.78S442.64 781.91 484.25 781.91S526.11 742.96 567.72 742.96S611.37 794.64 651.18 794.64S693.73 748.65 734.65 748.65S777.42 789.27 818.11 789.27S861.63 759.55 901.57 759.55S945.56 796.03 985.04 796.03S1028.59 759.26 1068.5 759.26S1111.3 781.89 1151.97 781.89S1194.61 752.93 1235.43 752.93S1277.31 753.55 1318.9 753.55S1361.01 775.91 1402.36 775.91S1444.69 776.37 1485.83 776.37S1528.58 744.58 1569.29 744.58S1613.4 784.03 1652.76 784.03S1694.73 752.12 1736.22 752.12S1779.59 755.4 1819.69 755.4S1862.51 755.85 1903.15 755.85S1945.27 789.43 1986.61 789.43S2028.46 744.01 2070.08 744.01L2020 977 L-100 977 Z"></animate>
  <animateTransform attributeName="transform" type="translate" dur="7.5s" begin="-5.25s" repeatCount="indefinite" values="0;10;0" calcMode="spline" keySplines="0.3 0 0.7 1;0.3 0 0.7 1"></animateTransform>
</path><path d="M-100 776.26C-56.51 773.19 -55.65 780.07 -13.82 780.07S31.52 781.34 72.36 781.34S116.8 773.55 158.54 773.55S203.84 774.14 244.72 774.14S288.25 806.38 330.89 806.38S375.68 772.45 417.07 772.45S462.4 818.34 503.25 818.34S546.93 775.35 589.43 775.35S632.81 814.88 675.61 814.88S719.65 772.19 761.79 772.19S805.05 776.41 847.97 776.41S892.5 782.48 934.15 782.48S977.89 818.46 1020.33 818.46S1064.44 784.01 1106.5 784.01S1151.65 801.77 1192.68 801.77S1237.35 807.34 1278.86 807.34S1322.86 808.17 1365.04 808.17S1409.03 825.43 1451.22 825.43S1495.64 802.96 1537.4 802.96S1580.58 783.15 1623.58 783.15S1667.51 816.32 1709.76 816.32S1753.67 772.16 1795.93 772.16S1840.81 825.33 1882.11 825.33S1926.63 808.26 1968.29 808.26S2012.38 808.84 2054.47 808.84L2020 977 L-100 977 Z" fill="#c6d2d2" stroke-width="0">
  <animate attributeName="d" dur="5s" repeatCount="indefinite" values="M-100 776.26C-56.51 773.19 -55.65 780.07 -13.82 780.07S31.52 781.34 72.36 781.34S116.8 773.55 158.54 773.55S203.84 774.14 244.72 774.14S288.25 806.38 330.89 806.38S375.68 772.45 417.07 772.45S462.4 818.34 503.25 818.34S546.93 775.35 589.43 775.35S632.81 814.88 675.61 814.88S719.65 772.19 761.79 772.19S805.05 776.41 847.97 776.41S892.5 782.48 934.15 782.48S977.89 818.46 1020.33 818.46S1064.44 784.01 1106.5 784.01S1151.65 801.77 1192.68 801.77S1237.35 807.34 1278.86 807.34S1322.86 808.17 1365.04 808.17S1409.03 825.43 1451.22 825.43S1495.64 802.96 1537.4 802.96S1580.58 783.15 1623.58 783.15S1667.51 816.32 1709.76 816.32S1753.67 772.16 1795.93 772.16S1840.81 825.33 1882.11 825.33S1926.63 808.26 1968.29 808.26S2012.38 808.84 2054.47 808.84L2020 977 L-100 977 Z;M-100 767.05C-56.01 764.93 -54.53 804.76 -13.82 804.76S30.51 768.32 72.36 768.32S117.77 804.91 158.54 804.91S201.89 781.61 244.72 781.61S287.98 812.22 330.89 812.22S374.22 825.53 417.07 825.53S462.07 825.11 503.25 825.11S548.64 777.99 589.43 777.99S634.45 802.26 675.61 802.26S719 779.4 761.79 779.4S806.1 814.59 847.97 814.59S893.37 767.33 934.15 767.33S977.67 823.49 1020.33 823.49S1064.14 781.48 1106.5 781.48S1150.37 777.31 1192.68 777.31S1237.19 775.33 1278.86 775.33S1322.88 765.33 1365.04 765.33S1409.42 785.87 1451.22 785.87S1495.76 807.64 1537.4 807.64S1582.29 779.92 1623.58 779.92S1667.82 821.77 1709.76 821.77S1755.01 776.65 1795.93 776.65S1839.43 823.24 1882.11 823.24S1927 806.21 1968.29 806.21S2012.53 824.67 2054.47 824.67L2020 977 L-100 977 Z;M-100 776.26C-56.51 773.19 -55.65 780.07 -13.82 780.07S31.52 781.34 72.36 781.34S116.8 773.55 158.54 773.55S203.84 774.14 244.72 774.14S288.25 806.38 330.89 806.38S375.68 772.45 417.07 772.45S462.4 818.34 503.25 818.34S546.93 775.35 589.43 775.35S632.81 814.88 675.61 814.88S719.65 772.19 761.79 772.19S805.05 776.41 847.97 776.41S892.5 782.48 934.15 782.48S977.89 818.46 1020.33 818.46S1064.44 784.01 1106.5 784.01S1151.65 801.77 1192.68 801.77S1237.35 807.34 1278.86 807.34S1322.86 808.17 1365.04 808.17S1409.03 825.43 1451.22 825.43S1495.64 802.96 1537.4 802.96S1580.58 783.15 1623.58 783.15S1667.51 816.32 1709.76 816.32S1753.67 772.16 1795.93 772.16S1840.81 825.33 1882.11 825.33S1926.63 808.26 1968.29 808.26S2012.38 808.84 2054.47 808.84L2020 977 L-100 977 Z"></animate>
  <animateTransform attributeName="transform" type="translate" dur="5s" begin="-4s" repeatCount="indefinite" values="0;10;0" calcMode="spline" keySplines="0.3 0 0.7 1;0.3 0 0.7 1"></animateTransform>
</path><path d="M-100 832.66C-54.2 851.33 -55.43 849.64 -10.92 849.64S35.96 806.54 78.15 806.54S123.82 839.68 167.23 839.68S213.98 793.56 256.3 793.56S302.73 837.32 345.38 837.32S390.55 799.92 434.45 799.92S481.23 850.49 523.53 850.49S569.08 788.36 612.61 788.36S657.35 833.86 701.68 833.86S746.63 808.96 790.76 808.96S835.76 834.08 879.83 834.08S924.68 808.22 968.91 808.22S1013.89 844.93 1057.98 844.93S1102.61 795.9 1147.06 795.9S1191.88 851.05 1236.13 851.05S1281.89 850.72 1325.21 850.72S1371.48 839.85 1414.29 839.85S1460.47 805.14 1503.36 805.14S1547.94 786.9 1592.44 786.9S1638.58 799.81 1681.51 799.81S1728.11 844.04 1770.59 844.04S1817.56 808.39 1859.66 808.39S1905.3 834.6 1948.74 834.6S1995.51 844.94 2037.82 844.94L2020 977 L-100 977 Z" fill="#dfe8e8" stroke-width="0">
  <animate attributeName="d" dur="2.5s" repeatCount="indefinite" values="M-100 832.66C-54.2 851.33 -55.43 849.64 -10.92 849.64S35.96 806.54 78.15 806.54S123.82 839.68 167.23 839.68S213.98 793.56 256.3 793.56S302.73 837.32 345.38 837.32S390.55 799.92 434.45 799.92S481.23 850.49 523.53 850.49S569.08 788.36 612.61 788.36S657.35 833.86 701.68 833.86S746.63 808.96 790.76 808.96S835.76 834.08 879.83 834.08S924.68 808.22 968.91 808.22S1013.89 844.93 1057.98 844.93S1102.61 795.9 1147.06 795.9S1191.88 851.05 1236.13 851.05S1281.89 850.72 1325.21 850.72S1371.48 839.85 1414.29 839.85S1460.47 805.14 1503.36 805.14S1547.94 786.9 1592.44 786.9S1638.58 799.81 1681.51 799.81S1728.11 844.04 1770.59 844.04S1817.56 808.39 1859.66 808.39S1905.3 834.6 1948.74 834.6S1995.51 844.94 2037.82 844.94L2020 977 L-100 977 Z;M-100 809.06C-55.32 795.66 -53.06 841.94 -10.92 841.94S35.48 791.58 78.15 791.58S123.63 850.98 167.23 850.98S213.06 803.77 256.3 803.77S302.98 838.37 345.38 838.37S391.12 851.88 434.45 851.88S480.47 847.14 523.53 847.14S570.4 794.94 612.61 794.94S658 848.32 701.68 848.32S746.78 849.97 790.76 849.97S835.55 841.21 879.83 841.21S924.86 787.23 968.91 787.23S1015.17 838.94 1057.98 838.94S1104.74 789.91 1147.06 789.91S1192.8 834.74 1236.13 834.74S1282.54 787.89 1325.21 787.89S1371.59 833.68 1414.29 833.68S1460.88 799.01 1503.36 799.01S1549.88 833.34 1592.44 833.34S1637.88 843.43 1681.51 843.43S1726.84 840.91 1770.59 840.91S1815.49 798.11 1859.66 798.11S1904.71 836.94 1948.74 836.94S1994.45 810.43 2037.82 810.43L2020 977 L-100 977 Z;M-100 832.66C-54.2 851.33 -55.43 849.64 -10.92 849.64S35.96 806.54 78.15 806.54S123.82 839.68 167.23 839.68S213.98 793.56 256.3 793.56S302.73 837.32 345.38 837.32S390.55 799.92 434.45 799.92S481.23 850.49 523.53 850.49S569.08 788.36 612.61 788.36S657.35 833.86 701.68 833.86S746.63 808.96 790.76 808.96S835.76 834.08 879.83 834.08S924.68 808.22 968.91 808.22S1013.89 844.93 1057.98 844.93S1102.61 795.9 1147.06 795.9S1191.88 851.05 1236.13 851.05S1281.89 850.72 1325.21 850.72S1371.48 839.85 1414.29 839.85S1460.47 805.14 1503.36 805.14S1547.94 786.9 1592.44 786.9S1638.58 799.81 1681.51 799.81S1728.11 844.04 1770.59 844.04S1817.56 808.39 1859.66 808.39S1905.3 834.6 1948.74 834.6S1995.51 844.94 2037.82 844.94L2020 977 L-100 977 Z"></animate>
  <animateTransform attributeName="transform" type="translate" dur="2.5s" begin="-2.25s" repeatCount="indefinite" values="0;10;0" calcMode="spline" keySplines="0.3 0 0.7 1;0.3 0 0.7 1"></animateTransform>
</path></g>
</svg>