<svg xmlns="http://www.w3.org/2000/svg" xmlns:xlink="http://www.w3.org/1999/xlink" style="margin:auto;background:#f1f2f3;display:block;z-index:1;position:relative" width="1920" height="977" preserveAspectRatio="xMidYMid" viewBox="0 0 1920 977">
<g transform="translate(960,488.5) scale(1,1) translate(-960,-488.5)"><path d="M-100 582.34C-65.05 581.16 -64.29 583.93 -31.61 583.93S3.15 577.7 36.77 577.7S71.65 585.31 105.16 585.31S141.1 577.67 173.55 577.67S209.12 583.35 241.94 583.35S277.63 589.65 310.32 589.65S345.51 582.95 378.71 582.95S414.54 576.41 447.1 576.41S482.69 587.32 515.48 587.32S550.3 580.34 583.87 580.34S620.43 574.91 652.26 574.91S687.3 585.61 720.65 585.61S756.1 591.03 789.03 591.03S823.71 569.8 857.42 569.8S893.53 585.6 925.81 585.6S961.75 573.37 994.19 573.37S1029.94 574.51 1062.58 574.51S1098.09 572.93 1130.97 572.93S1166.85 573.48 1199.35 573.48S1235.6 573.66 1267.74 573.66S1303.85 577.09 1336.13 577.09S1371.22 580.27 1404.52 580.27S1439.54 571.47 1472.9 571.47S1507.15 586.31 1541.29 586.31S1577.16 566.99 1609.68 566.99S1644.9 582.81 1678.06 582.81S1713.38 578.02 1746.45 578.02S1781.62 587.45 1814.84 587.45S1850.63 580.76 1883.23 580.76S1919.29 566.69 1951.61 566.69S1987.95 574.76 2020 574.76S2055.48 568.39 2088.39 568.39L2020 977 L-100 977 Z" fill="#912623" stroke-width="0">
  <animate attributeName="d" dur="25s" repeatCount="indefinite" values="M-100 582.34C-65.05 581.16 -64.29 583.93 -31.61 583.93S3.15 577.7 36.77 577.7S71.65 585.31 105.16 585.31S141.1 577.67 173.55 577.67S209.12 583.35 241.94 583.35S277.63 589.65 310.32 589.65S345.51 582.95 378.71 582.95S414.54 576.41 447.1 576.41S482.69 587.32 515.48 587.32S550.3 580.34 583.87 580.34S620.43 574.91 652.26 574.91S687.3 585.61 720.65 585.61S756.1 591.03 789.03 591.03S823.71 569.8 857.42 569.8S893.53 585.6 925.81 585.6S961.75 573.37 994.19 573.37S1029.94 574.51 1062.58 574.51S1098.09 572.93 1130.97 572.93S1166.85 573.48 1199.35 573.48S1235.6 573.66 1267.74 573.66S1303.85 577.09 1336.13 577.09S1371.22 580.27 1404.52 580.27S1439.54 571.47 1472.9 571.47S1507.15 586.31 1541.29 586.31S1577.16 566.99 1609.68 566.99S1644.9 582.81 1678.06 582.81S1713.38 578.02 1746.45 578.02S1781.62 587.45 1814.84 587.45S1850.63 580.76 1883.23 580.76S1919.29 566.69 1951.61 566.69S1987.95 574.76 2020 574.76S2055.48 568.39 2088.39 568.39L2020 977 L-100 977 Z;M-100 579.95C-65.43 580.73 -64.15 579.16 -31.61 579.16S3.49 581.06 36.77 581.06S71.2 572.31 105.16 572.31S141.11 584.47 173.55 584.47S209.9 575.57 241.94 575.57S278.14 588.91 310.32 588.91S345.33 590.56 378.71 590.56S414.48 590.13 447.1 590.13S483.13 584.6 515.48 584.6S549.99 576.58 583.87 576.58S620 575.47 652.26 575.47S688.25 568.22 720.65 568.22S755.93 569.86 789.03 569.86S824.74 575.91 857.42 575.91S891.86 569.34 925.81 569.34S961.51 576.68 994.19 576.68S1029.34 586.49 1062.58 586.49S1098.37 579.08 1130.97 579.08S1167.55 574.82 1199.35 574.82S1234.07 568.27 1267.74 568.27S1304.37 575.96 1336.13 575.96S1371.58 584.15 1404.52 584.15S1439.78 570.77 1472.9 570.77S1509.26 571.98 1541.29 571.98S1576.41 584.28 1609.68 584.28S1645.1 573.56 1678.06 573.56S1713.2 578.79 1746.45 578.79S1781.12 575.56 1814.84 575.56S1850.56 583.49 1883.23 583.49S1918.59 577.59 1951.61 577.59S1986.31 580.95 2020 580.95S2055.48 571.96 2088.39 571.96L2020 977 L-100 977 Z;M-100 582.34C-65.05 581.16 -64.29 583.93 -31.61 583.93S3.15 577.7 36.77 577.7S71.65 585.31 105.16 585.31S141.1 577.67 173.55 577.67S209.12 583.35 241.94 583.35S277.63 589.65 310.32 589.65S345.51 582.95 378.71 582.95S414.54 576.41 447.1 576.41S482.69 587.32 515.48 587.32S550.3 580.34 583.87 580.34S620.43 574.91 652.26 574.91S687.3 585.61 720.65 585.61S756.1 591.03 789.03 591.03S823.71 569.8 857.42 569.8S893.53 585.6 925.81 585.6S961.75 573.37 994.19 573.37S1029.94 574.51 1062.58 574.51S1098.09 572.93 1130.97 572.93S1166.85 573.48 1199.35 573.48S1235.6 573.66 1267.74 573.66S1303.85 577.09 1336.13 577.09S1371.22 580.27 1404.52 580.27S1439.54 571.47 1472.9 571.47S1507.15 586.31 1541.29 586.31S1577.16 566.99 1609.68 566.99S1644.9 582.81 1678.06 582.81S1713.38 578.02 1746.45 578.02S1781.62 587.45 1814.84 587.45S1850.63 580.76 1883.23 580.76S1919.29 566.69 1951.61 566.69S1987.95 574.76 2020 574.76S2055.48 568.39 2088.39 568.39L2020 977 L-100 977 Z"></animate>
  <animateTransform attributeName="transform" type="translate" dur="25s" begin="0s" repeatCount="indefinite" values="0;10;0" calcMode="spline" keySplines="0.3 0 0.7 1;0.3 0 0.7 1"></animateTransform>
</path><path d="M-100 613.58C-64.19 603.82 -63.83 614.78 -29.8 614.78S6.59 593.42 40.4 593.42S77.17 608.63 110.6 608.63S148.12 603.99 180.79 603.99S217.28 613.94 250.99 613.94S286.24 610.83 321.19 610.83S358.59 598.96 391.39 598.96S427.42 605.63 461.59 605.63S498.91 606.89 531.79 606.89S567.23 595.18 601.99 595.18S637.84 615.17 672.19 615.17S708.45 608.74 742.38 608.74S778.2 614.05 812.58 614.05S849.39 602.76 882.78 602.76S920.11 596.31 952.98 596.31S988.25 613.99 1023.18 613.99S1059.04 603.14 1093.38 603.14S1130.87 596.63 1163.58 596.63S1201 618.37 1233.77 618.37S1269.54 607.87 1303.97 607.87S1341.19 611.38 1374.17 611.38S1411.29 601.28 1444.37 601.28S1481.55 615.16 1514.57 615.16S1550.19 604.2 1584.77 604.2S1620.91 605.4 1654.97 605.4S1690.3 603.84 1725.17 603.84S1761.31 606.34 1795.36 606.34S1831 603.59 1865.56 603.59S1901.45 613.36 1935.76 613.36S1972.58 609.92 2005.96 609.92S2043.05 598.78 2076.16 598.78L2020 977 L-100 977 Z" fill="#93481f" stroke-width="0">
  <animate attributeName="d" dur="22.5s" repeatCount="indefinite" values="M-100 613.58C-64.19 603.82 -63.83 614.78 -29.8 614.78S6.59 593.42 40.4 593.42S77.17 608.63 110.6 608.63S148.12 603.99 180.79 603.99S217.28 613.94 250.99 613.94S286.24 610.83 321.19 610.83S358.59 598.96 391.39 598.96S427.42 605.63 461.59 605.63S498.91 606.89 531.79 606.89S567.23 595.18 601.99 595.18S637.84 615.17 672.19 615.17S708.45 608.74 742.38 608.74S778.2 614.05 812.58 614.05S849.39 602.76 882.78 602.76S920.11 596.31 952.98 596.31S988.25 613.99 1023.18 613.99S1059.04 603.14 1093.38 603.14S1130.87 596.63 1163.58 596.63S1201 618.37 1233.77 618.37S1269.54 607.87 1303.97 607.87S1341.19 611.38 1374.17 611.38S1411.29 601.28 1444.37 601.28S1481.55 615.16 1514.57 615.16S1550.19 604.2 1584.77 604.2S1620.91 605.4 1654.97 605.4S1690.3 603.84 1725.17 603.84S1761.31 606.34 1795.36 606.34S1831 603.59 1865.56 603.59S1901.45 613.36 1935.76 613.36S1972.58 609.92 2005.96 609.92S2043.05 598.78 2076.16 598.78L2020 977 L-100 977 Z;M-100 611.82C-64.31 612.45 -63.62 603.55 -29.8 603.55S6.72 602.61 40.4 602.61S76.61 596.85 110.6 596.85S147.36 610.23 180.79 610.23S216.91 610.63 250.99 610.63S286.38 614.11 321.19 614.11S357.52 596.62 391.39 596.62S427.81 595.29 461.59 595.29S498.78 600.73 531.79 600.73S567.85 610.4 601.99 610.4S638.36 603.76 672.19 603.76S708.51 598.94 742.38 598.94S778.53 602.22 812.58 602.22S847.74 607.38 882.78 607.38S918.2 600.86 952.98 600.86S989.28 591.65 1023.18 591.65S1060.41 606.33 1093.38 606.33S1128.76 609.93 1163.58 609.93S1201.09 596.88 1233.77 596.88S1269.85 602.64 1303.97 602.64S1339.28 611.12 1374.17 611.12S1409.72 593.17 1444.37 593.17S1481.03 612.66 1514.57 612.66S1549.72 611.23 1584.77 611.23S1620.96 600.28 1654.97 600.28S1691.73 601.12 1725.17 601.12S1760.71 607.84 1795.36 607.84S1832.05 591.77 1865.56 591.77S1902.49 611.74 1935.76 611.74S1970.91 601.23 2005.96 601.23S2042.58 612.73 2076.16 612.73L2020 977 L-100 977 Z;M-100 613.58C-64.19 603.82 -63.83 614.78 -29.8 614.78S6.59 593.42 40.4 593.42S77.17 608.63 110.6 608.63S148.12 603.99 180.79 603.99S217.28 613.94 250.99 613.94S286.24 610.83 321.19 610.83S358.59 598.96 391.39 598.96S427.42 605.63 461.59 605.63S498.91 606.89 531.79 606.89S567.23 595.18 601.99 595.18S637.84 615.17 672.19 615.17S708.45 608.74 742.38 608.74S778.2 614.05 812.58 614.05S849.39 602.76 882.78 602.76S920.11 596.31 952.98 596.31S988.25 613.99 1023.18 613.99S1059.04 603.14 1093.38 603.14S1130.87 596.63 1163.58 596.63S1201 618.37 1233.77 618.37S1269.54 607.87 1303.97 607.87S1341.19 611.38 1374.17 611.38S1411.29 601.28 1444.37 601.28S1481.55 615.16 1514.57 615.16S1550.19 604.2 1584.77 604.2S1620.91 605.4 1654.97 605.4S1690.3 603.84 1725.17 603.84S1761.31 606.34 1795.36 606.34S1831 603.59 1865.56 603.59S1901.45 613.36 1935.76 613.36S1972.58 609.92 2005.96 609.92S2043.05 598.78 2076.16 598.78L2020 977 L-100 977 Z"></animate>
  <animateTransform attributeName="transform" type="translate" dur="22.5s" begin="-2.25s" repeatCount="indefinite" values="0;10;0" calcMode="spline" keySplines="0.3 0 0.7 1;0.3 0 0.7 1"></animateTransform>
</path><path d="M-100 638.39C-63.39 618.07 -63.49 645.25 -27.89 645.25S9.04 631.48 44.22 631.48S81.63 629.62 116.33 629.62S153.88 648.65 188.44 648.65S226.33 635 260.54 635S297.76 616.75 332.65 616.75S369.01 627.01 404.76 627.01S443.23 630.36 476.87 630.36S514.06 642.92 548.98 642.92S586.32 631.17 621.09 631.17S658.94 632.8 693.2 632.8S730.24 631.47 765.31 631.47S803 627.79 837.41 627.79S874 639.16 909.52 639.16S945.86 631.18 981.63 631.18S1019.36 636.62 1053.74 636.62S1091.04 626.57 1125.85 626.57S1164.15 634.56 1197.96 634.56S1235.44 635.85 1270.07 635.85S1306.47 635.47 1342.18 635.47S1380.35 647.93 1414.29 647.93S1452.7 620.45 1486.39 620.45S1524.51 628.57 1558.5 628.57S1596.61 620.69 1630.61 620.69S1667.81 627.07 1702.72 627.07S1738.81 629.74 1774.83 629.74S1812.7 648.57 1846.94 648.57S1885.37 627.14 1919.05 627.14S1956.07 648.31 1991.16 648.31S2028.08 634.63 2063.27 634.63L2020 977 L-100 977 Z" fill="#916326" stroke-width="0">
  <animate attributeName="d" dur="20s" repeatCount="indefinite" values="M-100 638.39C-63.39 618.07 -63.49 645.25 -27.89 645.25S9.04 631.48 44.22 631.48S81.63 629.62 116.33 629.62S153.88 648.65 188.44 648.65S226.33 635 260.54 635S297.76 616.75 332.65 616.75S369.01 627.01 404.76 627.01S443.23 630.36 476.87 630.36S514.06 642.92 548.98 642.92S586.32 631.17 621.09 631.17S658.94 632.8 693.2 632.8S730.24 631.47 765.31 631.47S803 627.79 837.41 627.79S874 639.16 909.52 639.16S945.86 631.18 981.63 631.18S1019.36 636.62 1053.74 636.62S1091.04 626.57 1125.85 626.57S1164.15 634.56 1197.96 634.56S1235.44 635.85 1270.07 635.85S1306.47 635.47 1342.18 635.47S1380.35 647.93 1414.29 647.93S1452.7 620.45 1486.39 620.45S1524.51 628.57 1558.5 628.57S1596.61 620.69 1630.61 620.69S1667.81 627.07 1702.72 627.07S1738.81 629.74 1774.83 629.74S1812.7 648.57 1846.94 648.57S1885.37 627.14 1919.05 627.14S1956.07 648.31 1991.16 648.31S2028.08 634.63 2063.27 634.63L2020 977 L-100 977 Z;M-100 631.69C-62.25 631.75 -62.87 643.17 -27.89 643.17S9.38 625.04 44.22 625.04S81.9 633.5 116.33 633.5S153.59 647.54 188.44 647.54S226.42 628.47 260.54 628.47S296.6 619.88 332.65 619.88S370.03 628.88 404.76 628.88S441.45 633.12 476.87 633.12S513.9 632.95 548.98 632.95S586.44 618.97 621.09 618.97S657.9 628.78 693.2 628.78S731.48 630.69 765.31 630.69S802.38 639.73 837.41 639.73S874.25 631.38 909.52 631.38S947.48 636.18 981.63 636.18S1018.45 632.87 1053.74 632.87S1090.94 641.98 1125.85 641.98S1163.84 621.23 1197.96 621.23S1234.52 647.1 1270.07 647.1S1308.03 635.59 1342.18 635.59S1378.43 649.56 1414.29 649.56S1450.65 621.47 1486.39 621.47S1523.94 644.49 1558.5 644.49S1594.64 617.97 1630.61 617.97S1668.22 638.81 1702.72 638.81S1740.92 616.36 1774.83 616.36S1812.67 629.69 1846.94 629.69S1884.6 636.52 1919.05 636.52S1955.64 630.98 1991.16 630.98S2027.89 620.37 2063.27 620.37L2020 977 L-100 977 Z;M-100 638.39C-63.39 618.07 -63.49 645.25 -27.89 645.25S9.04 631.48 44.22 631.48S81.63 629.62 116.33 629.62S153.88 648.65 188.44 648.65S226.33 635 260.54 635S297.76 616.75 332.65 616.75S369.01 627.01 404.76 627.01S443.23 630.36 476.87 630.36S514.06 642.92 548.98 642.92S586.32 631.17 621.09 631.17S658.94 632.8 693.2 632.8S730.24 631.47 765.31 631.47S803 627.79 837.41 627.79S874 639.16 909.52 639.16S945.86 631.18 981.63 631.18S1019.36 636.62 1053.74 636.62S1091.04 626.57 1125.85 626.57S1164.15 634.56 1197.96 634.56S1235.44 635.85 1270.07 635.85S1306.47 635.47 1342.18 635.47S1380.35 647.93 1414.29 647.93S1452.7 620.45 1486.39 620.45S1524.51 628.57 1558.5 628.57S1596.61 620.69 1630.61 620.69S1667.81 627.07 1702.72 627.07S1738.81 629.74 1774.83 629.74S1812.7 648.57 1846.94 648.57S1885.37 627.14 1919.05 627.14S1956.07 648.31 1991.16 648.31S2028.08 634.63 2063.27 634.63L2020 977 L-100 977 Z"></animate>
  <animateTransform attributeName="transform" type="translate" dur="20s" begin="-4s" repeatCount="indefinite" values="0;10;0" calcMode="spline" keySplines="0.3 0 0.7 1;0.3 0 0.7 1"></animateTransform>
</path><path d="M-100 645.34C-60.98 647.72 -62.35 665.86 -25.87 665.86S12.93 661.47 48.25 661.47S86.31 667.19 122.38 667.19S159.81 648.3 196.5 648.3S233.89 677.68 270.63 677.68S307.73 652.34 344.76 652.34S382.89 644.55 418.88 644.55S456.13 646.27 493.01 646.27S531.24 661.17 567.13 661.17S605.76 643.98 641.26 643.98S678.66 660.14 715.38 660.14S754.57 664.16 789.51 664.16S827.07 659.41 863.64 659.41S901.35 647.43 937.76 647.43S975.88 675.91 1011.89 675.91S1050.57 655.46 1086.01 655.46S1125.46 658.64 1160.14 658.64S1197.53 658.02 1234.27 658.02S1272.61 657 1308.39 657S1347.22 654.63 1382.52 654.63S1421.91 661.69 1456.64 661.69S1495.72 661.83 1530.77 661.83S1569.11 665.82 1604.9 665.82S1643.1 645.34 1679.02 645.34S1716.09 674.57 1753.15 674.57S1790.52 649.81 1827.27 649.81S1865.94 664.68 1901.4 664.68S1938.83 649.37 1975.52 649.37S2014.51 662.95 2049.65 662.95L2020 977 L-100 977 Z" fill="#8e7b39" stroke-width="0">
  <animate attributeName="d" dur="17.5s" repeatCount="indefinite" values="M-100 645.34C-60.98 647.72 -62.35 665.86 -25.87 665.86S12.93 661.47 48.25 661.47S86.31 667.19 122.38 667.19S159.81 648.3 196.5 648.3S233.89 677.68 270.63 677.68S307.73 652.34 344.76 652.34S382.89 644.55 418.88 644.55S456.13 646.27 493.01 646.27S531.24 661.17 567.13 661.17S605.76 643.98 641.26 643.98S678.66 660.14 715.38 660.14S754.57 664.16 789.51 664.16S827.07 659.41 863.64 659.41S901.35 647.43 937.76 647.43S975.88 675.91 1011.89 675.91S1050.57 655.46 1086.01 655.46S1125.46 658.64 1160.14 658.64S1197.53 658.02 1234.27 658.02S1272.61 657 1308.39 657S1347.22 654.63 1382.52 654.63S1421.91 661.69 1456.64 661.69S1495.72 661.83 1530.77 661.83S1569.11 665.82 1604.9 665.82S1643.1 645.34 1679.02 645.34S1716.09 674.57 1753.15 674.57S1790.52 649.81 1827.27 649.81S1865.94 664.68 1901.4 664.68S1938.83 649.37 1975.52 649.37S2014.51 662.95 2049.65 662.95L2020 977 L-100 977 Z;M-100 655.22C-61.91 649.29 -61.1 672.93 -25.87 672.93S12.49 655.72 48.25 655.72S85.56 674.71 122.38 674.71S160 657.27 196.5 657.27S233.84 659.77 270.63 659.77S307.84 642.58 344.76 642.58S383.28 676.53 418.88 676.53S456.36 654.1 493.01 654.1S530.56 675.66 567.13 675.66S604.76 646.55 641.26 646.55S680.14 662.1 715.38 662.1S753.57 646.14 789.51 646.14S826.81 662.83 863.64 662.83S902.81 649.29 937.76 649.29S975.41 674.92 1011.89 674.92S1051.35 649.88 1086.01 649.88S1123.7 678.07 1160.14 678.07S1199.19 646.96 1234.27 646.96S1273.05 655.42 1308.39 655.42S1347.59 657.09 1382.52 657.09S1421.38 663.62 1456.64 663.62S1495.32 652.55 1530.77 652.55S1570.13 670.53 1604.9 670.53S1643.89 651.84 1679.02 651.84S1716.67 663.51 1753.15 663.51S1790.29 653.44 1827.27 653.44S1865.41 658.83 1901.4 658.83S1940.41 655.86 1975.52 655.86S2013.65 656.42 2049.65 656.42L2020 977 L-100 977 Z;M-100 645.34C-60.98 647.72 -62.35 665.86 -25.87 665.86S12.93 661.47 48.25 661.47S86.31 667.19 122.38 667.19S159.81 648.3 196.5 648.3S233.89 677.68 270.63 677.68S307.73 652.34 344.76 652.34S382.89 644.55 418.88 644.55S456.13 646.27 493.01 646.27S531.24 661.17 567.13 661.17S605.76 643.98 641.26 643.98S678.66 660.14 715.38 660.14S754.57 664.16 789.51 664.16S827.07 659.41 863.64 659.41S901.35 647.43 937.76 647.43S975.88 675.91 1011.89 675.91S1050.57 655.46 1086.01 655.46S1125.46 658.64 1160.14 658.64S1197.53 658.02 1234.27 658.02S1272.61 657 1308.39 657S1347.22 654.63 1382.52 654.63S1421.91 661.69 1456.64 661.69S1495.72 661.83 1530.77 661.83S1569.11 665.82 1604.9 665.82S1643.1 645.34 1679.02 645.34S1716.09 674.57 1753.15 674.57S1790.52 649.81 1827.27 649.81S1865.94 664.68 1901.4 664.68S1938.83 649.37 1975.52 649.37S2014.51 662.95 2049.65 662.95L2020 977 L-100 977 Z"></animate>
  <animateTransform attributeName="transform" type="translate" dur="17.5s" begin="-5.25s" repeatCount="indefinite" values="0;10;0" calcMode="spline" keySplines="0.3 0 0.7 1;0.3 0 0.7 1"></animateTransform>
</path><path d="M-100 677.55C-61.38 671.23 -60.54 689.03 -23.74 689.03S15.49 674.75 52.52 674.75S92.09 689.46 128.78 689.46S167.99 672.61 205.04 672.61S243.88 688.62 281.29 688.62S321.37 687.31 357.55 687.31S396.06 686.02 433.81 686.02S472.76 673.8 510.07 673.8S548.22 690.2 586.33 690.2S625.17 668.33 662.59 668.33S701.74 693.08 738.85 693.08S777.01 665.76 815.11 665.76S855.4 693.84 891.37 693.84S930.74 698.67 967.63 698.67S1006.95 697.71 1043.88 697.71S1084.19 673.37 1120.14 673.37S1159.3 697.26 1196.4 697.26S1236.41 666.8 1272.66 666.8S1312.33 705.31 1348.92 705.31S1389.13 687.15 1425.18 687.15S1465.43 696.24 1501.44 696.24S1541.69 677.87 1577.7 677.87S1615.84 701.06 1653.96 701.06S1692.43 683.65 1730.22 683.65S1768.85 696.18 1806.47 696.18S1845.83 677.93 1882.73 677.93S1922.67 691.78 1958.99 691.78S1998.39 688.05 2035.25 688.05L2020 977 L-100 977 Z" fill="#8c9153" stroke-width="0">
  <animate attributeName="d" dur="15s" repeatCount="indefinite" values="M-100 677.55C-61.38 671.23 -60.54 689.03 -23.74 689.03S15.49 674.75 52.52 674.75S92.09 689.46 128.78 689.46S167.99 672.61 205.04 672.61S243.88 688.62 281.29 688.62S321.37 687.31 357.55 687.31S396.06 686.02 433.81 686.02S472.76 673.8 510.07 673.8S548.22 690.2 586.33 690.2S625.17 668.33 662.59 668.33S701.74 693.08 738.85 693.08S777.01 665.76 815.11 665.76S855.4 693.84 891.37 693.84S930.74 698.67 967.63 698.67S1006.95 697.71 1043.88 697.71S1084.19 673.37 1120.14 673.37S1159.3 697.26 1196.4 697.26S1236.41 666.8 1272.66 666.8S1312.33 705.31 1348.92 705.31S1389.13 687.15 1425.18 687.15S1465.43 696.24 1501.44 696.24S1541.69 677.87 1577.7 677.87S1615.84 701.06 1653.96 701.06S1692.43 683.65 1730.22 683.65S1768.85 696.18 1806.47 696.18S1845.83 677.93 1882.73 677.93S1922.67 691.78 1958.99 691.78S1998.39 688.05 2035.25 688.05L2020 977 L-100 977 Z;M-100 688.56C-60.4 675.31 -59.62 703.75 -23.74 703.75S16.83 677.71 52.52 677.71S93.01 701 128.78 701S167.94 669.26 205.04 669.26S244.13 701.14 281.29 701.14S320.84 679.57 357.55 679.57S397.61 692.96 433.81 692.96S473.25 679.41 510.07 679.41S548.42 704.03 586.33 704.03S625.35 670.22 662.59 670.22S702.88 697.17 738.85 697.17S778.32 673.11 815.11 673.11S854.64 698.88 891.37 698.88S930.78 684.38 967.63 684.38S1006.86 701.04 1043.88 701.04S1082.28 667.24 1120.14 667.24S1159.18 686.2 1196.4 686.2S1234.75 688.55 1272.66 688.55S1311.34 685.83 1348.92 685.83S1388.29 672.06 1425.18 672.06S1464.59 685.67 1501.44 685.67S1541 698.22 1577.7 698.22S1617.35 696.14 1653.96 696.14S1693.7 677.58 1730.22 677.58S1768.81 707.38 1806.47 707.38S1845.91 673.58 1882.73 673.58S1921.62 707.25 1958.99 707.25S1999.51 667.83 2035.25 667.83L2020 977 L-100 977 Z;M-100 677.55C-61.38 671.23 -60.54 689.03 -23.74 689.03S15.49 674.75 52.52 674.75S92.09 689.46 128.78 689.46S167.99 672.61 205.04 672.61S243.88 688.62 281.29 688.62S321.37 687.31 357.55 687.31S396.06 686.02 433.81 686.02S472.76 673.8 510.07 673.8S548.22 690.2 586.33 690.2S625.17 668.33 662.59 668.33S701.74 693.08 738.85 693.08S777.01 665.76 815.11 665.76S855.4 693.84 891.37 693.84S930.74 698.67 967.63 698.67S1006.95 697.71 1043.88 697.71S1084.19 673.37 1120.14 673.37S1159.3 697.26 1196.4 697.26S1236.41 666.8 1272.66 666.8S1312.33 705.31 1348.92 705.31S1389.13 687.15 1425.18 687.15S1465.43 696.24 1501.44 696.24S1541.69 677.87 1577.7 677.87S1615.84 701.06 1653.96 701.06S1692.43 683.65 1730.22 683.65S1768.85 696.18 1806.47 696.18S1845.83 677.93 1882.73 677.93S1922.67 691.78 1958.99 691.78S1998.39 688.05 2035.25 688.05L2020 977 L-100 977 Z"></animate>
  <animateTransform attributeName="transform" type="translate" dur="15s" begin="-6s" repeatCount="indefinite" values="0;10;0" calcMode="spline" keySplines="0.3 0 0.7 1;0.3 0 0.7 1"></animateTransform>
</path><path d="M-100 689.12C-59.83 710.95 -58.67 723.4 -21.48 723.4S18.22 706.78 57.04 706.78S98.6 729.1 135.56 729.1S176.5 704.69 214.07 704.69S255.3 718.21 292.59 718.21S332.75 707.03 371.11 707.03S411.66 735.75 449.63 735.75S491.25 729.89 528.15 729.89S568.18 737.63 606.67 737.63S647.67 701.02 685.19 701.02S725.52 727.1 763.7 727.1S803.56 724.74 842.22 724.74S883.14 728.51 920.74 728.51S961.55 732.15 999.26 732.15S1038.65 708.48 1077.78 708.48S1117.51 703.64 1156.3 703.64S1197.15 718.78 1234.81 718.78S1274.32 710.61 1313.33 710.61S1353.47 715.42 1391.85 715.42S1433.21 706.77 1470.37 706.77S1511.78 699.41 1548.89 699.41S1589.25 696.1 1627.41 696.1S1667.01 717.49 1705.93 717.49S1745.84 702.74 1784.44 702.74S1824.17 728.52 1862.96 728.52S1903.49 706.04 1941.48 706.04S1982.46 724.79 2020 724.79S2061.17 728.88 2098.52 728.88L2020 977 L-100 977 Z" fill="#8da573" stroke-width="0">
  <animate attributeName="d" dur="12.5s" repeatCount="indefinite" values="M-100 689.12C-59.83 710.95 -58.67 723.4 -21.48 723.4S18.22 706.78 57.04 706.78S98.6 729.1 135.56 729.1S176.5 704.69 214.07 704.69S255.3 718.21 292.59 718.21S332.75 707.03 371.11 707.03S411.66 735.75 449.63 735.75S491.25 729.89 528.15 729.89S568.18 737.63 606.67 737.63S647.67 701.02 685.19 701.02S725.52 727.1 763.7 727.1S803.56 724.74 842.22 724.74S883.14 728.51 920.74 728.51S961.55 732.15 999.26 732.15S1038.65 708.48 1077.78 708.48S1117.51 703.64 1156.3 703.64S1197.15 718.78 1234.81 718.78S1274.32 710.61 1313.33 710.61S1353.47 715.42 1391.85 715.42S1433.21 706.77 1470.37 706.77S1511.78 699.41 1548.89 699.41S1589.25 696.1 1627.41 696.1S1667.01 717.49 1705.93 717.49S1745.84 702.74 1784.44 702.74S1824.17 728.52 1862.96 728.52S1903.49 706.04 1941.48 706.04S1982.46 724.79 2020 724.79S2061.17 728.88 2098.52 728.88L2020 977 L-100 977 Z;M-100 712.68C-58.62 706.02 -59.38 735.16 -21.48 735.16S19.66 737.33 57.04 737.33S98.16 731.68 135.56 731.68S174.97 708.4 214.07 708.4S255.05 718.95 292.59 718.95S332.67 706.57 371.11 706.57S411.13 719.48 449.63 719.48S490.57 705.59 528.15 705.59S568.26 713.98 606.67 713.98S646.14 711.3 685.19 711.3S725 725.86 763.7 725.86S805.09 688.82 842.22 688.82S883.8 716.33 920.74 716.33S960.84 694.28 999.26 694.28S1039.6 715.34 1077.78 715.34S1117.95 699.26 1156.3 699.26S1197.21 714.1 1234.81 714.1S1275.65 698.7 1313.33 698.7S1354.08 723.2 1391.85 723.2S1433.34 695.22 1470.37 695.22S1509.69 719.65 1548.89 719.65S1589.46 708.34 1627.41 708.34S1667.61 714.82 1705.93 714.82S1746.06 712.99 1784.44 712.99S1825.98 714.29 1862.96 714.29S1902.29 690.33 1941.48 690.33S1982.24 689.31 2020 689.31S2060.89 697.46 2098.52 697.46L2020 977 L-100 977 Z;M-100 689.12C-59.83 710.95 -58.67 723.4 -21.48 723.4S18.22 706.78 57.04 706.78S98.6 729.1 135.56 729.1S176.5 704.69 214.07 704.69S255.3 718.21 292.59 718.21S332.75 707.03 371.11 707.03S411.66 735.75 449.63 735.75S491.25 729.89 528.15 729.89S568.18 737.63 606.67 737.63S647.67 701.02 685.19 701.02S725.52 727.1 763.7 727.1S803.56 724.74 842.22 724.74S883.14 728.51 920.74 728.51S961.55 732.15 999.26 732.15S1038.65 708.48 1077.78 708.48S1117.51 703.64 1156.3 703.64S1197.15 718.78 1234.81 718.78S1274.32 710.61 1313.33 710.61S1353.47 715.42 1391.85 715.42S1433.21 706.77 1470.37 706.77S1511.78 699.41 1548.89 699.41S1589.25 696.1 1627.41 696.1S1667.01 717.49 1705.93 717.49S1745.84 702.74 1784.44 702.74S1824.17 728.52 1862.96 728.52S1903.49 706.04 1941.48 706.04S1982.46 724.79 2020 724.79S2061.17 728.88 2098.52 728.88L2020 977 L-100 977 Z"></animate>
  <animateTransform attributeName="transform" type="translate" dur="12.5s" begin="-6.25s" repeatCount="indefinite" values="0;10;0" calcMode="spline" keySplines="0.3 0 0.7 1;0.3 0 0.7 1"></animateTransform>
</path><path d="M-100 714.26C-57.94 716.55 -58.02 758.31 -19.08 758.31S21.45 746.35 61.83 746.35S102.56 760.35 142.75 760.35S184.05 731.7 223.66 731.7S264.68 729.75 304.58 729.75S345.6 726.65 385.5 726.65S426.48 717.51 466.41 717.51S507.02 735.72 547.33 735.72S588.31 743.52 628.24 743.52S669.71 732.98 709.16 732.98S749.75 765.33 790.08 765.33S830.93 718.59 870.99 718.59S911.72 758.06 951.91 758.06S993.15 736.2 1032.82 736.2S1074.6 735.02 1113.74 735.02S1156.5 737.4 1194.66 737.4S1237.56 748.22 1275.57 748.22S1317.3 732.68 1356.49 732.68S1399.01 752.16 1437.4 752.16S1478.78 729.36 1518.32 729.36S1558.98 749.69 1599.24 749.69S1641.47 735.89 1680.15 735.89S1721.81 745.87 1761.07 745.87S1802.29 721.65 1841.98 721.65S1883.89 766.79 1922.9 766.79S1964.16 727.25 2003.82 727.25S2045.49 728.47 2084.73 728.47L2020 977 L-100 977 Z" fill="#93b794" stroke-width="0">
  <animate attributeName="d" dur="10s" repeatCount="indefinite" values="M-100 714.26C-57.94 716.55 -58.02 758.31 -19.08 758.31S21.45 746.35 61.83 746.35S102.56 760.35 142.75 760.35S184.05 731.7 223.66 731.7S264.68 729.75 304.58 729.75S345.6 726.65 385.5 726.65S426.48 717.51 466.41 717.51S507.02 735.72 547.33 735.72S588.31 743.52 628.24 743.52S669.71 732.98 709.16 732.98S749.75 765.33 790.08 765.33S830.93 718.59 870.99 718.59S911.72 758.06 951.91 758.06S993.15 736.2 1032.82 736.2S1074.6 735.02 1113.74 735.02S1156.5 737.4 1194.66 737.4S1237.56 748.22 1275.57 748.22S1317.3 732.68 1356.49 732.68S1399.01 752.16 1437.4 752.16S1478.78 729.36 1518.32 729.36S1558.98 749.69 1599.24 749.69S1641.47 735.89 1680.15 735.89S1721.81 745.87 1761.07 745.87S1802.29 721.65 1841.98 721.65S1883.89 766.79 1922.9 766.79S1964.16 727.25 2003.82 727.25S2045.49 728.47 2084.73 728.47L2020 977 L-100 977 Z;M-100 742.68C-58.9 751.05 -59.08 714.08 -19.08 714.08S22.04 729.48 61.83 729.48S102.56 747.1 142.75 747.1S185.64 736.97 223.66 736.97S264.78 753.34 304.58 753.34S346.72 716.08 385.5 716.08S427.24 761.51 466.41 761.51S508.45 719.18 547.33 719.18S588.41 746.61 628.24 746.61S668.77 733.94 709.16 733.94S750.89 754.12 790.08 754.12S832.96 718.52 870.99 718.52S913.31 765.58 951.91 765.58S992.99 732.15 1032.82 732.15S1073.88 743.13 1113.74 743.13S1155.58 730.12 1194.66 730.12S1236.32 763.23 1275.57 763.23S1318.25 718.34 1356.49 718.34S1398.4 746.06 1437.4 746.06S1477.93 724.99 1518.32 724.99S1561.04 757.67 1599.24 757.67S1640.74 721.14 1680.15 721.14S1721.2 762.37 1761.07 762.37S1802.46 737.02 1841.98 737.02S1882.49 746.97 1922.9 746.97S1964.39 721.53 2003.82 721.53S2044.7 759.13 2084.73 759.13L2020 977 L-100 977 Z;M-100 714.26C-57.94 716.55 -58.02 758.31 -19.08 758.31S21.45 746.35 61.83 746.35S102.56 760.35 142.75 760.35S184.05 731.7 223.66 731.7S264.68 729.75 304.58 729.75S345.6 726.65 385.5 726.65S426.48 717.51 466.41 717.51S507.02 735.72 547.33 735.72S588.31 743.52 628.24 743.52S669.71 732.98 709.16 732.98S749.75 765.33 790.08 765.33S830.93 718.59 870.99 718.59S911.72 758.06 951.91 758.06S993.15 736.2 1032.82 736.2S1074.6 735.02 1113.74 735.02S1156.5 737.4 1194.66 737.4S1237.56 748.22 1275.57 748.22S1317.3 732.68 1356.49 732.68S1399.01 752.16 1437.4 752.16S1478.78 729.36 1518.32 729.36S1558.98 749.69 1599.24 749.69S1641.47 735.89 1680.15 735.89S1721.81 745.87 1761.07 745.87S1802.29 721.65 1841.98 721.65S1883.89 766.79 1922.9 766.79S1964.16 727.25 2003.82 727.25S2045.49 728.47 2084.73 728.47L2020 977 L-100 977 Z"></animate>
  <animateTransform attributeName="transform" type="translate" dur="10s" begin="-6s" repeatCount="indefinite" values="0;10;0" calcMode="spline" keySplines="0.3 0 0.7 1;0.3 0 0.7 1"></animateTransform>
</path><path d="M-100 760.52C-57.72 758.08 -58.08 781.5 -16.54 781.5S26.89 737.98 66.93 737.98S110.43 780.31 150.39 780.31S192.55 747.1 233.86 747.1S276.59 789.17 317.32 789.17S361.48 747.96 400.79 747.96S442.69 793.81 484.25 793.81S527.73 739.9 567.72 739.9S610.13 782.32 651.18 782.32S694.39 745.71 734.65 745.71S778.08 782.62 818.11 782.62S859.93 748.07 901.57 748.07S943.53 743.93 985.04 743.93S1028.69 753.2 1068.5 753.2S1111.42 772.93 1151.97 772.93S1194.42 750.18 1235.43 750.18S1277.45 772.06 1318.9 772.06S1362.2 751.7 1402.36 751.7S1446.39 789.92 1485.83 789.92S1528.39 751.76 1569.29 751.76S1612.98 774.31 1652.76 774.31S1696.03 740.82 1736.22 740.82S1779.83 784.16 1819.69 784.16S1862.9 740.64 1903.15 740.64S1945.74 794.05 1986.61 794.05S2029.04 743.5 2070.08 743.5L2020 977 L-100 977 Z" fill="#a1c8b3" stroke-width="0">
  <animate attributeName="d" dur="7.5s" repeatCount="indefinite" values="M-100 760.52C-57.72 758.08 -58.08 781.5 -16.54 781.5S26.89 737.98 66.93 737.98S110.43 780.31 150.39 780.31S192.55 747.1 233.86 747.1S276.59 789.17 317.32 789.17S361.48 747.96 400.79 747.96S442.69 793.81 484.25 793.81S527.73 739.9 567.72 739.9S610.13 782.32 651.18 782.32S694.39 745.71 734.65 745.71S778.08 782.62 818.11 782.62S859.93 748.07 901.57 748.07S943.53 743.93 985.04 743.93S1028.69 753.2 1068.5 753.2S1111.42 772.93 1151.97 772.93S1194.42 750.18 1235.43 750.18S1277.45 772.06 1318.9 772.06S1362.2 751.7 1402.36 751.7S1446.39 789.92 1485.83 789.92S1528.39 751.76 1569.29 751.76S1612.98 774.31 1652.76 774.31S1696.03 740.82 1736.22 740.82S1779.83 784.16 1819.69 784.16S1862.9 740.64 1903.15 740.64S1945.74 794.05 1986.61 794.05S2029.04 743.5 2070.08 743.5L2020 977 L-100 977 Z;M-100 744.96C-56.3 753.92 -57.17 779.88 -16.54 779.88S27.18 750.72 66.93 750.72S110.5 773.91 150.39 773.91S192.9 748.46 233.86 748.46S277.24 748.24 317.32 748.24S361.25 757.55 400.79 757.55S444.14 787.25 484.25 787.25S526.85 746.35 567.72 746.35S610.8 788.36 651.18 788.36S695.25 754.1 734.65 754.1S778.14 772.36 818.11 772.36S860.02 778.99 901.57 778.99S945.61 776.02 985.04 776.02S1029.18 752.02 1068.5 752.02S1110.64 787.34 1151.97 787.34S1195.07 786 1235.43 786S1277.89 780.54 1318.9 780.54S1360.81 745.84 1402.36 745.84S1444.61 775.92 1485.83 775.92S1529.2 755.35 1569.29 755.35S1611.51 777.76 1652.76 777.76S1696.31 747.3 1736.22 747.3S1779.96 786.41 1819.69 786.41S1863.45 758.66 1903.15 758.66S1946.54 743.13 1986.61 743.13S2030.2 749.68 2070.08 749.68L2020 977 L-100 977 Z;M-100 760.52C-57.72 758.08 -58.08 781.5 -16.54 781.5S26.89 737.98 66.93 737.98S110.43 780.31 150.39 780.31S192.55 747.1 233.86 747.1S276.59 789.17 317.32 789.17S361.48 747.96 400.79 747.96S442.69 793.81 484.25 793.81S527.73 739.9 567.72 739.9S610.13 782.32 651.18 782.32S694.39 745.71 734.65 745.71S778.08 782.62 818.11 782.62S859.93 748.07 901.57 748.07S943.53 743.93 985.04 743.93S1028.69 753.2 1068.5 753.2S1111.42 772.93 1151.97 772.93S1194.42 750.18 1235.43 750.18S1277.45 772.06 1318.9 772.06S1362.2 751.7 1402.36 751.7S1446.39 789.92 1485.83 789.92S1528.39 751.76 1569.29 751.76S1612.98 774.31 1652.76 774.31S1696.03 740.82 1736.22 740.82S1779.83 784.16 1819.69 784.16S1862.9 740.64 1903.15 740.64S1945.74 794.05 1986.61 794.05S2029.04 743.5 2070.08 743.5L2020 977 L-100 977 Z"></animate>
  <animateTransform attributeName="transform" type="translate" dur="7.5s" begin="-5.25s" repeatCount="indefinite" values="0;10;0" calcMode="spline" keySplines="0.3 0 0.7 1;0.3 0 0.7 1"></animateTransform>
</path><path d="M-100 762.71C-54.75 773.84 -55.26 806.09 -13.82 806.09S31.39 823.02 72.36 823.02S117.35 805.4 158.54 805.4S202.23 784.2 244.72 784.2S289.12 777.93 330.89 777.93S375.21 767.94 417.07 767.94S461.35 809.51 503.25 809.51S546.61 775.94 589.43 775.94S633.5 802.36 675.61 802.36S719.94 802.35 761.79 802.35S805.34 770.89 847.97 770.89S891.94 770.04 934.15 770.04S979.35 805.44 1020.33 805.44S1065.51 814.28 1106.5 814.28S1151.4 824.56 1192.68 824.56S1237.03 783.87 1278.86 783.87S1322.99 817.31 1365.04 817.31S1409.86 818.05 1451.22 818.05S1495.61 811.46 1537.4 811.46S1582.76 820.96 1623.58 820.96S1667.62 782.22 1709.76 782.22S1754.48 772.1 1795.93 772.1S1839.31 819.92 1882.11 819.92S1925.45 773.96 1968.29 773.96S2013.38 818.8 2054.47 818.8L2020 977 L-100 977 Z" fill="#b7d8cf" stroke-width="0">
  <animate attributeName="d" dur="5s" repeatCount="indefinite" values="M-100 762.71C-54.75 773.84 -55.26 806.09 -13.82 806.09S31.39 823.02 72.36 823.02S117.35 805.4 158.54 805.4S202.23 784.2 244.72 784.2S289.12 777.93 330.89 777.93S375.21 767.94 417.07 767.94S461.35 809.51 503.25 809.51S546.61 775.94 589.43 775.94S633.5 802.36 675.61 802.36S719.94 802.35 761.79 802.35S805.34 770.89 847.97 770.89S891.94 770.04 934.15 770.04S979.35 805.44 1020.33 805.44S1065.51 814.28 1106.5 814.28S1151.4 824.56 1192.68 824.56S1237.03 783.87 1278.86 783.87S1322.99 817.31 1365.04 817.31S1409.86 818.05 1451.22 818.05S1495.61 811.46 1537.4 811.46S1582.76 820.96 1623.58 820.96S1667.62 782.22 1709.76 782.22S1754.48 772.1 1795.93 772.1S1839.31 819.92 1882.11 819.92S1925.45 773.96 1968.29 773.96S2013.38 818.8 2054.47 818.8L2020 977 L-100 977 Z;M-100 781.32C-56.31 781.74 -54.6 813.15 -13.82 813.15S31.54 766.87 72.36 766.87S115.71 806.63 158.54 806.63S201.75 812.88 244.72 812.88S287.85 813.38 330.89 813.38S374.91 785.84 417.07 785.84S460.2 773.85 503.25 773.85S547.74 776.24 589.43 776.24S632.71 773.75 675.61 773.75S720.42 765.75 761.79 765.75S805.14 811.81 847.97 811.81S893.09 771.8 934.15 771.8S978.74 819.85 1020.33 819.85S1064.77 762.41 1106.5 762.41S1151.95 763.06 1192.68 763.06S1237.28 777.03 1278.86 777.03S1323.41 772.15 1365.04 772.15S1408.79 786.35 1451.22 786.35S1496.47 824 1537.4 824S1580.64 763.74 1623.58 763.74S1666.85 811.37 1709.76 811.37S1754.96 766.46 1795.93 766.46S1840.11 812.86 1882.11 812.86S1927.15 769 1968.29 769S2012.35 824.98 2054.47 824.98L2020 977 L-100 977 Z;M-100 762.71C-54.75 773.84 -55.26 806.09 -13.82 806.09S31.39 823.02 72.36 823.02S117.35 805.4 158.54 805.4S202.23 784.2 244.72 784.2S289.12 777.93 330.89 777.93S375.21 767.94 417.07 767.94S461.35 809.51 503.25 809.51S546.61 775.94 589.43 775.94S633.5 802.36 675.61 802.36S719.94 802.35 761.79 802.35S805.34 770.89 847.97 770.89S891.94 770.04 934.15 770.04S979.35 805.44 1020.33 805.44S1065.51 814.28 1106.5 814.28S1151.4 824.56 1192.68 824.56S1237.03 783.87 1278.86 783.87S1322.99 817.31 1365.04 817.31S1409.86 818.05 1451.22 818.05S1495.61 811.46 1537.4 811.46S1582.76 820.96 1623.58 820.96S1667.62 782.22 1709.76 782.22S1754.48 772.1 1795.93 772.1S1839.31 819.92 1882.11 819.92S1925.45 773.96 1968.29 773.96S2013.38 818.8 2054.47 818.8L2020 977 L-100 977 Z"></animate>
  <animateTransform attributeName="transform" type="translate" dur="5s" begin="-4s" repeatCount="indefinite" values="0;10;0" calcMode="spline" keySplines="0.3 0 0.7 1;0.3 0 0.7 1"></animateTransform>
</path><path d="M-100 791.78C-55.38 802.49 -54.38 838.58 -10.92 838.58S34.93 803.24 78.15 803.24S123.21 833.69 167.23 833.69S212.22 853.98 256.3 853.98S301.79 852.03 345.38 852.03S390.91 802.78 434.45 802.78S481.23 847.23 523.53 847.23S569.41 802.49 612.61 802.49S658.54 853.7 701.68 853.7S746.95 795.89 790.76 795.89S836.13 834.62 879.83 834.62S926 789.99 968.91 789.99S1015.72 843.38 1057.98 843.38S1103.61 805.8 1147.06 805.8S1193.18 848.97 1236.13 848.97S1282.21 836.76 1325.21 836.76S1370.24 840.21 1414.29 840.21S1460.78 795.73 1503.36 795.73S1548.37 807.78 1592.44 807.78S1637.07 789.5 1681.51 789.5S1726.08 843.78 1770.59 843.78S1817.09 798.93 1859.66 798.93S1904.65 854.68 1948.74 854.68S1993.97 797.49 2037.82 797.49L2020 977 L-100 977 Z" fill="#d3e6e6" stroke-width="0">
  <animate attributeName="d" dur="2.5s" repeatCount="indefinite" values="M-100 791.78C-55.38 802.49 -54.38 838.58 -10.92 838.58S34.93 803.24 78.15 803.24S123.21 833.69 167.23 833.69S212.22 853.98 256.3 853.98S301.79 852.03 345.38 852.03S390.91 802.78 434.45 802.78S481.23 847.23 523.53 847.23S569.41 802.49 612.61 802.49S658.54 853.7 701.68 853.7S746.95 795.89 790.76 795.89S836.13 834.62 879.83 834.62S926 789.99 968.91 789.99S1015.72 843.38 1057.98 843.38S1103.61 805.8 1147.06 805.8S1193.18 848.97 1236.13 848.97S1282.21 836.76 1325.21 836.76S1370.24 840.21 1414.29 840.21S1460.78 795.73 1503.36 795.73S1548.37 807.78 1592.44 807.78S1637.07 789.5 1681.51 789.5S1726.08 843.78 1770.59 843.78S1817.09 798.93 1859.66 798.93S1904.65 854.68 1948.74 854.68S1993.97 797.49 2037.82 797.49L2020 977 L-100 977 Z;M-100 796.24C-54.31 804.69 -53.71 848.69 -10.92 848.69S35.29 792.62 78.15 792.62S123.87 836.39 167.23 836.39S212.43 804.44 256.3 804.44S302.21 795.61 345.38 795.61S391.22 794.27 434.45 794.27S479.01 794.42 523.53 794.42S569.87 789.02 612.61 789.02S659.21 834.99 701.68 834.99S747.51 787.44 790.76 787.44S837.26 832.13 879.83 832.13S926.42 830.8 968.91 830.8S1014.98 852.23 1057.98 852.23S1104.68 808.58 1147.06 808.58S1192.27 843.32 1236.13 843.32S1281.76 801.71 1325.21 801.71S1370.58 830.7 1414.29 830.7S1460.03 806.5 1503.36 806.5S1549.2 790.32 1592.44 790.32S1638.93 786.65 1681.51 786.65S1726.18 852.66 1770.59 852.66S1816.62 791.97 1859.66 791.97S1904.21 796.79 1948.74 796.79S1994.84 810.35 2037.82 810.35L2020 977 L-100 977 Z;M-100 791.78C-55.38 802.49 -54.38 838.58 -10.92 838.58S34.93 803.24 78.15 803.24S123.21 833.69 167.23 833.69S212.22 853.98 256.3 853.98S301.79 852.03 345.38 852.03S390.91 802.78 434.45 802.78S481.23 847.23 523.53 847.23S569.41 802.49 612.61 802.49S658.54 853.7 701.68 853.7S746.95 795.89 790.76 795.89S836.13 834.62 879.83 834.62S926 789.99 968.91 789.99S1015.72 843.38 1057.98 843.38S1103.61 805.8 1147.06 805.8S1193.18 848.97 1236.13 848.97S1282.21 836.76 1325.21 836.76S1370.24 840.21 1414.29 840.21S1460.78 795.73 1503.36 795.73S1548.37 807.78 1592.44 807.78S1637.07 789.5 1681.51 789.5S1726.08 843.78 1770.59 843.78S1817.09 798.93 1859.66 798.93S1904.65 854.68 1948.74 854.68S1993.97 797.49 2037.82 797.49L2020 977 L-100 977 Z"></animate>
  <animateTransform attributeName="transform" type="translate" dur="2.5s" begin="-2.25s" repeatCount="indefinite" values="0;10;0" calcMode="spline" keySplines="0.3 0 0.7 1;0.3 0 0.7 1"></animateTransform>
</path></g>
</svg>