<svg xmlns="http://www.w3.org/2000/svg" xmlns:xlink="http://www.w3.org/1999/xlink" style="margin:auto;background:#e0bbe4;display:block;z-index:1;position:relative" width="1920" height="947" preserveAspectRatio="xMidYMid" viewBox="0 0 1920 947">
<g transform="translate(960,473.5) scale(1,1) translate(-960,-473.5)"><g transform="translate(-100 790.1201093379105) rotate(0)">
  <animateTransform attributeName="transform" type="translate" keyTimes="0;1" values="-100 790.1201093379105;1920 790.1201093379105" dur="66.66666666666667s" repeatCount="indefinite" begin="-15.335801914453755s"></animateTransform>
  <path d="M84.717,33.597c0.791-2.503,1.186-5.138,1.186-7.773C85.903,11.594,74.308,0,60.079,0 c-9.881,0-18.445,5.534-22.793,13.702c-1.581-0.527-3.426-0.791-5.138-0.791c-9.486,0-17.128,7.642-17.128,17.128 c0,1.186,0.132,2.372,0.395,3.426C6.719,34.783,0,42.424,0,51.515C0,61.66,8.169,69.829,18.314,69.829h63.373 C91.831,69.829,100,61.66,100,51.515C99.868,42.556,93.281,35.046,84.717,33.597z" fill="#ffdfd3" transform="scale(0.5725)"></path>
</g><g transform="translate(-100 341.72208856789604) rotate(0)">
  <animateTransform attributeName="transform" type="translate" keyTimes="0;1" values="-100 341.72208856789604;1920 341.72208856789604" dur="66.66666666666667s" repeatCount="indefinite" begin="-31.744447790694565s"></animateTransform>
  <path d="M84.717,33.597c0.791-2.503,1.186-5.138,1.186-7.773C85.903,11.594,74.308,0,60.079,0 c-9.881,0-18.445,5.534-22.793,13.702c-1.581-0.527-3.426-0.791-5.138-0.791c-9.486,0-17.128,7.642-17.128,17.128 c0,1.186,0.132,2.372,0.395,3.426C6.719,34.783,0,42.424,0,51.515C0,61.66,8.169,69.829,18.314,69.829h63.373 C91.831,69.829,100,61.66,100,51.515C99.868,42.556,93.281,35.046,84.717,33.597z" fill="#ffdfd3" transform="scale(0.5725)"></path>
</g><g transform="translate(-100 404.8545213358077) rotate(0)">
  <animateTransform attributeName="transform" type="translate" keyTimes="0;1" values="-100 404.8545213358077;1920 404.8545213358077" dur="66.66666666666667s" repeatCount="indefinite" begin="-18.828314728594588s"></animateTransform>
  <path d="M84.717,33.597c0.791-2.503,1.186-5.138,1.186-7.773C85.903,11.594,74.308,0,60.079,0 c-9.881,0-18.445,5.534-22.793,13.702c-1.581-0.527-3.426-0.791-5.138-0.791c-9.486,0-17.128,7.642-17.128,17.128 c0,1.186,0.132,2.372,0.395,3.426C6.719,34.783,0,42.424,0,51.515C0,61.66,8.169,69.829,18.314,69.829h63.373 C91.831,69.829,100,61.66,100,51.515C99.868,42.556,93.281,35.046,84.717,33.597z" fill="#ffdfd3" transform="scale(0.5725)"></path>
</g><g transform="translate(-100 930.3800969224986) rotate(0)">
  <animateTransform attributeName="transform" type="translate" keyTimes="0;1" values="-100 930.3800969224986;1920 930.3800969224986" dur="66.66666666666667s" repeatCount="indefinite" begin="-38.10968728831125s"></animateTransform>
  <path d="M84.717,33.597c0.791-2.503,1.186-5.138,1.186-7.773C85.903,11.594,74.308,0,60.079,0 c-9.881,0-18.445,5.534-22.793,13.702c-1.581-0.527-3.426-0.791-5.138-0.791c-9.486,0-17.128,7.642-17.128,17.128 c0,1.186,0.132,2.372,0.395,3.426C6.719,34.783,0,42.424,0,51.515C0,61.66,8.169,69.829,18.314,69.829h63.373 C91.831,69.829,100,61.66,100,51.515C99.868,42.556,93.281,35.046,84.717,33.597z" fill="#ffdfd3" transform="scale(0.5725)"></path>
</g><g transform="translate(-100 879.0289450605895) rotate(0)">
  <animateTransform attributeName="transform" type="translate" keyTimes="0;1" values="-100 879.0289450605895;1920 879.0289450605895" dur="66.66666666666667s" repeatCount="indefinite" begin="-24.94153777700506s"></animateTransform>
  <path d="M84.717,33.597c0.791-2.503,1.186-5.138,1.186-7.773C85.903,11.594,74.308,0,60.079,0 c-9.881,0-18.445,5.534-22.793,13.702c-1.581-0.527-3.426-0.791-5.138-0.791c-9.486,0-17.128,7.642-17.128,17.128 c0,1.186,0.132,2.372,0.395,3.426C6.719,34.783,0,42.424,0,51.515C0,61.66,8.169,69.829,18.314,69.829h63.373 C91.831,69.829,100,61.66,100,51.515C99.868,42.556,93.281,35.046,84.717,33.597z" fill="#ffdfd3" transform="scale(0.5725)"></path>
</g><g transform="translate(-100 421.0439939229272) rotate(0)">
  <animateTransform attributeName="transform" type="translate" keyTimes="0;1" values="-100 421.0439939229272;1920 421.0439939229272" dur="66.66666666666667s" repeatCount="indefinite" begin="-56.36178530832091s"></animateTransform>
  <path d="M84.717,33.597c0.791-2.503,1.186-5.138,1.186-7.773C85.903,11.594,74.308,0,60.079,0 c-9.881,0-18.445,5.534-22.793,13.702c-1.581-0.527-3.426-0.791-5.138-0.791c-9.486,0-17.128,7.642-17.128,17.128 c0,1.186,0.132,2.372,0.395,3.426C6.719,34.783,0,42.424,0,51.515C0,61.66,8.169,69.829,18.314,69.829h63.373 C91.831,69.829,100,61.66,100,51.515C99.868,42.556,93.281,35.046,84.717,33.597z" fill="#ffdfd3" transform="scale(0.5725)"></path>
</g><g transform="translate(-100 835.9478058465393) rotate(0)">
  <animateTransform attributeName="transform" type="translate" keyTimes="0;1" values="-100 835.9478058465393;1920 835.9478058465393" dur="66.66666666666667s" repeatCount="indefinite" begin="-25.12965107189313s"></animateTransform>
  <path d="M84.717,33.597c0.791-2.503,1.186-5.138,1.186-7.773C85.903,11.594,74.308,0,60.079,0 c-9.881,0-18.445,5.534-22.793,13.702c-1.581-0.527-3.426-0.791-5.138-0.791c-9.486,0-17.128,7.642-17.128,17.128 c0,1.186,0.132,2.372,0.395,3.426C6.719,34.783,0,42.424,0,51.515C0,61.66,8.169,69.829,18.314,69.829h63.373 C91.831,69.829,100,61.66,100,51.515C99.868,42.556,93.281,35.046,84.717,33.597z" fill="#ffdfd3" transform="scale(0.5725)"></path>
</g><g transform="translate(-100 529.7189027139686) rotate(0)">
  <animateTransform attributeName="transform" type="translate" keyTimes="0;1" values="-100 529.7189027139686;1920 529.7189027139686" dur="66.66666666666667s" repeatCount="indefinite" begin="-8.865070703148808s"></animateTransform>
  <path d="M84.717,33.597c0.791-2.503,1.186-5.138,1.186-7.773C85.903,11.594,74.308,0,60.079,0 c-9.881,0-18.445,5.534-22.793,13.702c-1.581-0.527-3.426-0.791-5.138-0.791c-9.486,0-17.128,7.642-17.128,17.128 c0,1.186,0.132,2.372,0.395,3.426C6.719,34.783,0,42.424,0,51.515C0,61.66,8.169,69.829,18.314,69.829h63.373 C91.831,69.829,100,61.66,100,51.515C99.868,42.556,93.281,35.046,84.717,33.597z" fill="#ffdfd3" transform="scale(0.5725)"></path>
</g><g transform="translate(-100 645.33914209433) rotate(0)">
  <animateTransform attributeName="transform" type="translate" keyTimes="0;1" values="-100 645.33914209433;1920 645.33914209433" dur="66.66666666666667s" repeatCount="indefinite" begin="-31.158905197459646s"></animateTransform>
  <path d="M84.717,33.597c0.791-2.503,1.186-5.138,1.186-7.773C85.903,11.594,74.308,0,60.079,0 c-9.881,0-18.445,5.534-22.793,13.702c-1.581-0.527-3.426-0.791-5.138-0.791c-9.486,0-17.128,7.642-17.128,17.128 c0,1.186,0.132,2.372,0.395,3.426C6.719,34.783,0,42.424,0,51.515C0,61.66,8.169,69.829,18.314,69.829h63.373 C91.831,69.829,100,61.66,100,51.515C99.868,42.556,93.281,35.046,84.717,33.597z" fill="#ffdfd3" transform="scale(0.5725)"></path>
</g><g transform="translate(-100 222.97964052057273) rotate(0)">
  <animateTransform attributeName="transform" type="translate" keyTimes="0;1" values="-100 222.97964052057273;1920 222.97964052057273" dur="66.66666666666667s" repeatCount="indefinite" begin="-13.034526459205969s"></animateTransform>
  <path d="M84.717,33.597c0.791-2.503,1.186-5.138,1.186-7.773C85.903,11.594,74.308,0,60.079,0 c-9.881,0-18.445,5.534-22.793,13.702c-1.581-0.527-3.426-0.791-5.138-0.791c-9.486,0-17.128,7.642-17.128,17.128 c0,1.186,0.132,2.372,0.395,3.426C6.719,34.783,0,42.424,0,51.515C0,61.66,8.169,69.829,18.314,69.829h63.373 C91.831,69.829,100,61.66,100,51.515C99.868,42.556,93.281,35.046,84.717,33.597z" fill="#ffdfd3" transform="scale(0.5725)"></path>
</g><g transform="translate(-100 354.3626062801613) rotate(0)">
  <animateTransform attributeName="transform" type="translate" keyTimes="0;1" values="-100 354.3626062801613;1920 354.3626062801613" dur="66.66666666666667s" repeatCount="indefinite" begin="-43.77642200236555s"></animateTransform>
  <path d="M84.717,33.597c0.791-2.503,1.186-5.138,1.186-7.773C85.903,11.594,74.308,0,60.079,0 c-9.881,0-18.445,5.534-22.793,13.702c-1.581-0.527-3.426-0.791-5.138-0.791c-9.486,0-17.128,7.642-17.128,17.128 c0,1.186,0.132,2.372,0.395,3.426C6.719,34.783,0,42.424,0,51.515C0,61.66,8.169,69.829,18.314,69.829h63.373 C91.831,69.829,100,61.66,100,51.515C99.868,42.556,93.281,35.046,84.717,33.597z" fill="#ffdfd3" transform="scale(0.5725)"></path>
</g><g transform="translate(-100 80.51877575503511) rotate(0)">
  <animateTransform attributeName="transform" type="translate" keyTimes="0;1" values="-100 80.51877575503511;1920 80.51877575503511" dur="33.333333333333336s" repeatCount="indefinite" begin="-57.978955456422604s"></animateTransform>
  <path d="M84.717,33.597c0.791-2.503,1.186-5.138,1.186-7.773C85.903,11.594,74.308,0,60.079,0 c-9.881,0-18.445,5.534-22.793,13.702c-1.581-0.527-3.426-0.791-5.138-0.791c-9.486,0-17.128,7.642-17.128,17.128 c0,1.186,0.132,2.372,0.395,3.426C6.719,34.783,0,42.424,0,51.515C0,61.66,8.169,69.829,18.314,69.829h63.373 C91.831,69.829,100,61.66,100,51.515C99.868,42.556,93.281,35.046,84.717,33.597z" fill="#fec8d8" transform="scale(0.715)"></path>
</g><g transform="translate(-100 612.2852817056278) rotate(0)">
  <animateTransform attributeName="transform" type="translate" keyTimes="0;1" values="-100 612.2852817056278;1920 612.2852817056278" dur="33.333333333333336s" repeatCount="indefinite" begin="-10.71206905428633s"></animateTransform>
  <path d="M84.717,33.597c0.791-2.503,1.186-5.138,1.186-7.773C85.903,11.594,74.308,0,60.079,0 c-9.881,0-18.445,5.534-22.793,13.702c-1.581-0.527-3.426-0.791-5.138-0.791c-9.486,0-17.128,7.642-17.128,17.128 c0,1.186,0.132,2.372,0.395,3.426C6.719,34.783,0,42.424,0,51.515C0,61.66,8.169,69.829,18.314,69.829h63.373 C91.831,69.829,100,61.66,100,51.515C99.868,42.556,93.281,35.046,84.717,33.597z" fill="#fec8d8" transform="scale(0.715)"></path>
</g><g transform="translate(-100 369.60670373316447) rotate(0)">
  <animateTransform attributeName="transform" type="translate" keyTimes="0;1" values="-100 369.60670373316447;1920 369.60670373316447" dur="33.333333333333336s" repeatCount="indefinite" begin="-57.09648360756719s"></animateTransform>
  <path d="M84.717,33.597c0.791-2.503,1.186-5.138,1.186-7.773C85.903,11.594,74.308,0,60.079,0 c-9.881,0-18.445,5.534-22.793,13.702c-1.581-0.527-3.426-0.791-5.138-0.791c-9.486,0-17.128,7.642-17.128,17.128 c0,1.186,0.132,2.372,0.395,3.426C6.719,34.783,0,42.424,0,51.515C0,61.66,8.169,69.829,18.314,69.829h63.373 C91.831,69.829,100,61.66,100,51.515C99.868,42.556,93.281,35.046,84.717,33.597z" fill="#fec8d8" transform="scale(0.715)"></path>
</g><g transform="translate(-100 362.7450099953892) rotate(0)">
  <animateTransform attributeName="transform" type="translate" keyTimes="0;1" values="-100 362.7450099953892;1920 362.7450099953892" dur="33.333333333333336s" repeatCount="indefinite" begin="-5.146686214729934s"></animateTransform>
  <path d="M84.717,33.597c0.791-2.503,1.186-5.138,1.186-7.773C85.903,11.594,74.308,0,60.079,0 c-9.881,0-18.445,5.534-22.793,13.702c-1.581-0.527-3.426-0.791-5.138-0.791c-9.486,0-17.128,7.642-17.128,17.128 c0,1.186,0.132,2.372,0.395,3.426C6.719,34.783,0,42.424,0,51.515C0,61.66,8.169,69.829,18.314,69.829h63.373 C91.831,69.829,100,61.66,100,51.515C99.868,42.556,93.281,35.046,84.717,33.597z" fill="#fec8d8" transform="scale(0.715)"></path>
</g><g transform="translate(-100 615.0213960590675) rotate(0)">
  <animateTransform attributeName="transform" type="translate" keyTimes="0;1" values="-100 615.0213960590675;1920 615.0213960590675" dur="33.333333333333336s" repeatCount="indefinite" begin="-33.68786968384513s"></animateTransform>
  <path d="M84.717,33.597c0.791-2.503,1.186-5.138,1.186-7.773C85.903,11.594,74.308,0,60.079,0 c-9.881,0-18.445,5.534-22.793,13.702c-1.581-0.527-3.426-0.791-5.138-0.791c-9.486,0-17.128,7.642-17.128,17.128 c0,1.186,0.132,2.372,0.395,3.426C6.719,34.783,0,42.424,0,51.515C0,61.66,8.169,69.829,18.314,69.829h63.373 C91.831,69.829,100,61.66,100,51.515C99.868,42.556,93.281,35.046,84.717,33.597z" fill="#fec8d8" transform="scale(0.715)"></path>
</g><g transform="translate(-100 511.99017315549713) rotate(0)">
  <animateTransform attributeName="transform" type="translate" keyTimes="0;1" values="-100 511.99017315549713;1920 511.99017315549713" dur="33.333333333333336s" repeatCount="indefinite" begin="-53.42879874813607s"></animateTransform>
  <path d="M84.717,33.597c0.791-2.503,1.186-5.138,1.186-7.773C85.903,11.594,74.308,0,60.079,0 c-9.881,0-18.445,5.534-22.793,13.702c-1.581-0.527-3.426-0.791-5.138-0.791c-9.486,0-17.128,7.642-17.128,17.128 c0,1.186,0.132,2.372,0.395,3.426C6.719,34.783,0,42.424,0,51.515C0,61.66,8.169,69.829,18.314,69.829h63.373 C91.831,69.829,100,61.66,100,51.515C99.868,42.556,93.281,35.046,84.717,33.597z" fill="#fec8d8" transform="scale(0.715)"></path>
</g><g transform="translate(-100 705.8079243602729) rotate(0)">
  <animateTransform attributeName="transform" type="translate" keyTimes="0;1" values="-100 705.8079243602729;1920 705.8079243602729" dur="33.333333333333336s" repeatCount="indefinite" begin="-23.290778183907612s"></animateTransform>
  <path d="M84.717,33.597c0.791-2.503,1.186-5.138,1.186-7.773C85.903,11.594,74.308,0,60.079,0 c-9.881,0-18.445,5.534-22.793,13.702c-1.581-0.527-3.426-0.791-5.138-0.791c-9.486,0-17.128,7.642-17.128,17.128 c0,1.186,0.132,2.372,0.395,3.426C6.719,34.783,0,42.424,0,51.515C0,61.66,8.169,69.829,18.314,69.829h63.373 C91.831,69.829,100,61.66,100,51.515C99.868,42.556,93.281,35.046,84.717,33.597z" fill="#fec8d8" transform="scale(0.715)"></path>
</g><g transform="translate(-100 474.0748992781316) rotate(0)">
  <animateTransform attributeName="transform" type="translate" keyTimes="0;1" values="-100 474.0748992781316;1920 474.0748992781316" dur="33.333333333333336s" repeatCount="indefinite" begin="-14.03502219215603s"></animateTransform>
  <path d="M84.717,33.597c0.791-2.503,1.186-5.138,1.186-7.773C85.903,11.594,74.308,0,60.079,0 c-9.881,0-18.445,5.534-22.793,13.702c-1.581-0.527-3.426-0.791-5.138-0.791c-9.486,0-17.128,7.642-17.128,17.128 c0,1.186,0.132,2.372,0.395,3.426C6.719,34.783,0,42.424,0,51.515C0,61.66,8.169,69.829,18.314,69.829h63.373 C91.831,69.829,100,61.66,100,51.515C99.868,42.556,93.281,35.046,84.717,33.597z" fill="#fec8d8" transform="scale(0.715)"></path>
</g><g transform="translate(-100 134.10331184785042) rotate(0)">
  <animateTransform attributeName="transform" type="translate" keyTimes="0;1" values="-100 134.10331184785042;1920 134.10331184785042" dur="33.333333333333336s" repeatCount="indefinite" begin="-39.23738410001825s"></animateTransform>
  <path d="M84.717,33.597c0.791-2.503,1.186-5.138,1.186-7.773C85.903,11.594,74.308,0,60.079,0 c-9.881,0-18.445,5.534-22.793,13.702c-1.581-0.527-3.426-0.791-5.138-0.791c-9.486,0-17.128,7.642-17.128,17.128 c0,1.186,0.132,2.372,0.395,3.426C6.719,34.783,0,42.424,0,51.515C0,61.66,8.169,69.829,18.314,69.829h63.373 C91.831,69.829,100,61.66,100,51.515C99.868,42.556,93.281,35.046,84.717,33.597z" fill="#fec8d8" transform="scale(0.715)"></path>
</g><g transform="translate(-100 129.3646463571302) rotate(0)">
  <animateTransform attributeName="transform" type="translate" keyTimes="0;1" values="-100 129.3646463571302;1920 129.3646463571302" dur="33.333333333333336s" repeatCount="indefinite" begin="-23.14381233712508s"></animateTransform>
  <path d="M84.717,33.597c0.791-2.503,1.186-5.138,1.186-7.773C85.903,11.594,74.308,0,60.079,0 c-9.881,0-18.445,5.534-22.793,13.702c-1.581-0.527-3.426-0.791-5.138-0.791c-9.486,0-17.128,7.642-17.128,17.128 c0,1.186,0.132,2.372,0.395,3.426C6.719,34.783,0,42.424,0,51.515C0,61.66,8.169,69.829,18.314,69.829h63.373 C91.831,69.829,100,61.66,100,51.515C99.868,42.556,93.281,35.046,84.717,33.597z" fill="#fec8d8" transform="scale(0.715)"></path>
</g><g transform="translate(-100 832.9168595264451) rotate(0)">
  <animateTransform attributeName="transform" type="translate" keyTimes="0;1" values="-100 832.9168595264451;1920 832.9168595264451" dur="33.333333333333336s" repeatCount="indefinite" begin="-13.905461171094288s"></animateTransform>
  <path d="M84.717,33.597c0.791-2.503,1.186-5.138,1.186-7.773C85.903,11.594,74.308,0,60.079,0 c-9.881,0-18.445,5.534-22.793,13.702c-1.581-0.527-3.426-0.791-5.138-0.791c-9.486,0-17.128,7.642-17.128,17.128 c0,1.186,0.132,2.372,0.395,3.426C6.719,34.783,0,42.424,0,51.515C0,61.66,8.169,69.829,18.314,69.829h63.373 C91.831,69.829,100,61.66,100,51.515C99.868,42.556,93.281,35.046,84.717,33.597z" fill="#fec8d8" transform="scale(0.715)"></path>
</g><g transform="translate(-100 235.46476692941988) rotate(0)">
  <animateTransform attributeName="transform" type="translate" keyTimes="0;1" values="-100 235.46476692941988;1920 235.46476692941988" dur="22.222222222222225s" repeatCount="indefinite" begin="-59.68341464153853s"></animateTransform>
  <path d="M84.717,33.597c0.791-2.503,1.186-5.138,1.186-7.773C85.903,11.594,74.308,0,60.079,0 c-9.881,0-18.445,5.534-22.793,13.702c-1.581-0.527-3.426-0.791-5.138-0.791c-9.486,0-17.128,7.642-17.128,17.128 c0,1.186,0.132,2.372,0.395,3.426C6.719,34.783,0,42.424,0,51.515C0,61.66,8.169,69.829,18.314,69.829h63.373 C91.831,69.829,100,61.66,100,51.515C99.868,42.556,93.281,35.046,84.717,33.597z" fill="#d291bc" transform="scale(0.8574999999999999)"></path>
</g><g transform="translate(-100 61.650264477190426) rotate(0)">
  <animateTransform attributeName="transform" type="translate" keyTimes="0;1" values="-100 61.650264477190426;1920 61.650264477190426" dur="22.222222222222225s" repeatCount="indefinite" begin="-9.449693867617892s"></animateTransform>
  <path d="M84.717,33.597c0.791-2.503,1.186-5.138,1.186-7.773C85.903,11.594,74.308,0,60.079,0 c-9.881,0-18.445,5.534-22.793,13.702c-1.581-0.527-3.426-0.791-5.138-0.791c-9.486,0-17.128,7.642-17.128,17.128 c0,1.186,0.132,2.372,0.395,3.426C6.719,34.783,0,42.424,0,51.515C0,61.66,8.169,69.829,18.314,69.829h63.373 C91.831,69.829,100,61.66,100,51.515C99.868,42.556,93.281,35.046,84.717,33.597z" fill="#d291bc" transform="scale(0.8574999999999999)"></path>
</g><g transform="translate(-100 645.2536212106415) rotate(0)">
  <animateTransform attributeName="transform" type="translate" keyTimes="0;1" values="-100 645.2536212106415;1920 645.2536212106415" dur="22.222222222222225s" repeatCount="indefinite" begin="-23.759156693624846s"></animateTransform>
  <path d="M84.717,33.597c0.791-2.503,1.186-5.138,1.186-7.773C85.903,11.594,74.308,0,60.079,0 c-9.881,0-18.445,5.534-22.793,13.702c-1.581-0.527-3.426-0.791-5.138-0.791c-9.486,0-17.128,7.642-17.128,17.128 c0,1.186,0.132,2.372,0.395,3.426C6.719,34.783,0,42.424,0,51.515C0,61.66,8.169,69.829,18.314,69.829h63.373 C91.831,69.829,100,61.66,100,51.515C99.868,42.556,93.281,35.046,84.717,33.597z" fill="#d291bc" transform="scale(0.8574999999999999)"></path>
</g><g transform="translate(-100 375.02680218796206) rotate(0)">
  <animateTransform attributeName="transform" type="translate" keyTimes="0;1" values="-100 375.02680218796206;1920 375.02680218796206" dur="22.222222222222225s" repeatCount="indefinite" begin="-12.279770494604863s"></animateTransform>
  <path d="M84.717,33.597c0.791-2.503,1.186-5.138,1.186-7.773C85.903,11.594,74.308,0,60.079,0 c-9.881,0-18.445,5.534-22.793,13.702c-1.581-0.527-3.426-0.791-5.138-0.791c-9.486,0-17.128,7.642-17.128,17.128 c0,1.186,0.132,2.372,0.395,3.426C6.719,34.783,0,42.424,0,51.515C0,61.66,8.169,69.829,18.314,69.829h63.373 C91.831,69.829,100,61.66,100,51.515C99.868,42.556,93.281,35.046,84.717,33.597z" fill="#d291bc" transform="scale(0.8574999999999999)"></path>
</g><g transform="translate(-100 270.29651680084794) rotate(0)">
  <animateTransform attributeName="transform" type="translate" keyTimes="0;1" values="-100 270.29651680084794;1920 270.29651680084794" dur="22.222222222222225s" repeatCount="indefinite" begin="-12.030920723550736s"></animateTransform>
  <path d="M84.717,33.597c0.791-2.503,1.186-5.138,1.186-7.773C85.903,11.594,74.308,0,60.079,0 c-9.881,0-18.445,5.534-22.793,13.702c-1.581-0.527-3.426-0.791-5.138-0.791c-9.486,0-17.128,7.642-17.128,17.128 c0,1.186,0.132,2.372,0.395,3.426C6.719,34.783,0,42.424,0,51.515C0,61.66,8.169,69.829,18.314,69.829h63.373 C91.831,69.829,100,61.66,100,51.515C99.868,42.556,93.281,35.046,84.717,33.597z" fill="#d291bc" transform="scale(0.8574999999999999)"></path>
</g><g transform="translate(-100 5.157744645135382) rotate(0)">
  <animateTransform attributeName="transform" type="translate" keyTimes="0;1" values="-100 5.157744645135382;1920 5.157744645135382" dur="22.222222222222225s" repeatCount="indefinite" begin="-1.1788745015720656s"></animateTransform>
  <path d="M84.717,33.597c0.791-2.503,1.186-5.138,1.186-7.773C85.903,11.594,74.308,0,60.079,0 c-9.881,0-18.445,5.534-22.793,13.702c-1.581-0.527-3.426-0.791-5.138-0.791c-9.486,0-17.128,7.642-17.128,17.128 c0,1.186,0.132,2.372,0.395,3.426C6.719,34.783,0,42.424,0,51.515C0,61.66,8.169,69.829,18.314,69.829h63.373 C91.831,69.829,100,61.66,100,51.515C99.868,42.556,93.281,35.046,84.717,33.597z" fill="#d291bc" transform="scale(0.8574999999999999)"></path>
</g><g transform="translate(-100 327.65506715948334) rotate(0)">
  <animateTransform attributeName="transform" type="translate" keyTimes="0;1" values="-100 327.65506715948334;1920 327.65506715948334" dur="22.222222222222225s" repeatCount="indefinite" begin="-6.938277442860856s"></animateTransform>
  <path d="M84.717,33.597c0.791-2.503,1.186-5.138,1.186-7.773C85.903,11.594,74.308,0,60.079,0 c-9.881,0-18.445,5.534-22.793,13.702c-1.581-0.527-3.426-0.791-5.138-0.791c-9.486,0-17.128,7.642-17.128,17.128 c0,1.186,0.132,2.372,0.395,3.426C6.719,34.783,0,42.424,0,51.515C0,61.66,8.169,69.829,18.314,69.829h63.373 C91.831,69.829,100,61.66,100,51.515C99.868,42.556,93.281,35.046,84.717,33.597z" fill="#d291bc" transform="scale(0.8574999999999999)"></path>
</g><g transform="translate(-100 533.7496685549507) rotate(0)">
  <animateTransform attributeName="transform" type="translate" keyTimes="0;1" values="-100 533.7496685549507;1920 533.7496685549507" dur="22.222222222222225s" repeatCount="indefinite" begin="-10.94794337910705s"></animateTransform>
  <path d="M84.717,33.597c0.791-2.503,1.186-5.138,1.186-7.773C85.903,11.594,74.308,0,60.079,0 c-9.881,0-18.445,5.534-22.793,13.702c-1.581-0.527-3.426-0.791-5.138-0.791c-9.486,0-17.128,7.642-17.128,17.128 c0,1.186,0.132,2.372,0.395,3.426C6.719,34.783,0,42.424,0,51.515C0,61.66,8.169,69.829,18.314,69.829h63.373 C91.831,69.829,100,61.66,100,51.515C99.868,42.556,93.281,35.046,84.717,33.597z" fill="#d291bc" transform="scale(0.8574999999999999)"></path>
</g><g transform="translate(-100 123.61582172931065) rotate(0)">
  <animateTransform attributeName="transform" type="translate" keyTimes="0;1" values="-100 123.61582172931065;1920 123.61582172931065" dur="22.222222222222225s" repeatCount="indefinite" begin="-13.883557425066789s"></animateTransform>
  <path d="M84.717,33.597c0.791-2.503,1.186-5.138,1.186-7.773C85.903,11.594,74.308,0,60.079,0 c-9.881,0-18.445,5.534-22.793,13.702c-1.581-0.527-3.426-0.791-5.138-0.791c-9.486,0-17.128,7.642-17.128,17.128 c0,1.186,0.132,2.372,0.395,3.426C6.719,34.783,0,42.424,0,51.515C0,61.66,8.169,69.829,18.314,69.829h63.373 C91.831,69.829,100,61.66,100,51.515C99.868,42.556,93.281,35.046,84.717,33.597z" fill="#d291bc" transform="scale(0.8574999999999999)"></path>
</g><g transform="translate(-100 903.9951231325646) rotate(0)">
  <animateTransform attributeName="transform" type="translate" keyTimes="0;1" values="-100 903.9951231325646;1920 903.9951231325646" dur="22.222222222222225s" repeatCount="indefinite" begin="-27.8028028713607s"></animateTransform>
  <path d="M84.717,33.597c0.791-2.503,1.186-5.138,1.186-7.773C85.903,11.594,74.308,0,60.079,0 c-9.881,0-18.445,5.534-22.793,13.702c-1.581-0.527-3.426-0.791-5.138-0.791c-9.486,0-17.128,7.642-17.128,17.128 c0,1.186,0.132,2.372,0.395,3.426C6.719,34.783,0,42.424,0,51.515C0,61.66,8.169,69.829,18.314,69.829h63.373 C91.831,69.829,100,61.66,100,51.515C99.868,42.556,93.281,35.046,84.717,33.597z" fill="#d291bc" transform="scale(0.8574999999999999)"></path>
</g><g transform="translate(-100 535.4407055904126) rotate(0)">
  <animateTransform attributeName="transform" type="translate" keyTimes="0;1" values="-100 535.4407055904126;1920 535.4407055904126" dur="22.222222222222225s" repeatCount="indefinite" begin="-7.692229882447125s"></animateTransform>
  <path d="M84.717,33.597c0.791-2.503,1.186-5.138,1.186-7.773C85.903,11.594,74.308,0,60.079,0 c-9.881,0-18.445,5.534-22.793,13.702c-1.581-0.527-3.426-0.791-5.138-0.791c-9.486,0-17.128,7.642-17.128,17.128 c0,1.186,0.132,2.372,0.395,3.426C6.719,34.783,0,42.424,0,51.515C0,61.66,8.169,69.829,18.314,69.829h63.373 C91.831,69.829,100,61.66,100,51.515C99.868,42.556,93.281,35.046,84.717,33.597z" fill="#d291bc" transform="scale(0.8574999999999999)"></path>
</g><g transform="translate(-100 290.9440100533291) rotate(0)">
  <animateTransform attributeName="transform" type="translate" keyTimes="0;1" values="-100 290.9440100533291;1920 290.9440100533291" dur="16.666666666666668s" repeatCount="indefinite" begin="-49.35347238159825s"></animateTransform>
  <path d="M84.717,33.597c0.791-2.503,1.186-5.138,1.186-7.773C85.903,11.594,74.308,0,60.079,0 c-9.881,0-18.445,5.534-22.793,13.702c-1.581-0.527-3.426-0.791-5.138-0.791c-9.486,0-17.128,7.642-17.128,17.128 c0,1.186,0.132,2.372,0.395,3.426C6.719,34.783,0,42.424,0,51.515C0,61.66,8.169,69.829,18.314,69.829h63.373 C91.831,69.829,100,61.66,100,51.515C99.868,42.556,93.281,35.046,84.717,33.597z" fill="#957dad" transform="scale(1)"></path>
</g><g transform="translate(-100 616.3696042053201) rotate(0)">
  <animateTransform attributeName="transform" type="translate" keyTimes="0;1" values="-100 616.3696042053201;1920 616.3696042053201" dur="16.666666666666668s" repeatCount="indefinite" begin="-13.498326051239456s"></animateTransform>
  <path d="M84.717,33.597c0.791-2.503,1.186-5.138,1.186-7.773C85.903,11.594,74.308,0,60.079,0 c-9.881,0-18.445,5.534-22.793,13.702c-1.581-0.527-3.426-0.791-5.138-0.791c-9.486,0-17.128,7.642-17.128,17.128 c0,1.186,0.132,2.372,0.395,3.426C6.719,34.783,0,42.424,0,51.515C0,61.66,8.169,69.829,18.314,69.829h63.373 C91.831,69.829,100,61.66,100,51.515C99.868,42.556,93.281,35.046,84.717,33.597z" fill="#957dad" transform="scale(1)"></path>
</g><g transform="translate(-100 265.08497004312176) rotate(0)">
  <animateTransform attributeName="transform" type="translate" keyTimes="0;1" values="-100 265.08497004312176;1920 265.08497004312176" dur="16.666666666666668s" repeatCount="indefinite" begin="-20.306048420749097s"></animateTransform>
  <path d="M84.717,33.597c0.791-2.503,1.186-5.138,1.186-7.773C85.903,11.594,74.308,0,60.079,0 c-9.881,0-18.445,5.534-22.793,13.702c-1.581-0.527-3.426-0.791-5.138-0.791c-9.486,0-17.128,7.642-17.128,17.128 c0,1.186,0.132,2.372,0.395,3.426C6.719,34.783,0,42.424,0,51.515C0,61.66,8.169,69.829,18.314,69.829h63.373 C91.831,69.829,100,61.66,100,51.515C99.868,42.556,93.281,35.046,84.717,33.597z" fill="#957dad" transform="scale(1)"></path>
</g><g transform="translate(-100 336.4358591616203) rotate(0)">
  <animateTransform attributeName="transform" type="translate" keyTimes="0;1" values="-100 336.4358591616203;1920 336.4358591616203" dur="16.666666666666668s" repeatCount="indefinite" begin="-19.371348633826102s"></animateTransform>
  <path d="M84.717,33.597c0.791-2.503,1.186-5.138,1.186-7.773C85.903,11.594,74.308,0,60.079,0 c-9.881,0-18.445,5.534-22.793,13.702c-1.581-0.527-3.426-0.791-5.138-0.791c-9.486,0-17.128,7.642-17.128,17.128 c0,1.186,0.132,2.372,0.395,3.426C6.719,34.783,0,42.424,0,51.515C0,61.66,8.169,69.829,18.314,69.829h63.373 C91.831,69.829,100,61.66,100,51.515C99.868,42.556,93.281,35.046,84.717,33.597z" fill="#957dad" transform="scale(1)"></path>
</g><g transform="translate(-100 666.5520063806301) rotate(0)">
  <animateTransform attributeName="transform" type="translate" keyTimes="0;1" values="-100 666.5520063806301;1920 666.5520063806301" dur="16.666666666666668s" repeatCount="indefinite" begin="-19.600960298536606s"></animateTransform>
  <path d="M84.717,33.597c0.791-2.503,1.186-5.138,1.186-7.773C85.903,11.594,74.308,0,60.079,0 c-9.881,0-18.445,5.534-22.793,13.702c-1.581-0.527-3.426-0.791-5.138-0.791c-9.486,0-17.128,7.642-17.128,17.128 c0,1.186,0.132,2.372,0.395,3.426C6.719,34.783,0,42.424,0,51.515C0,61.66,8.169,69.829,18.314,69.829h63.373 C91.831,69.829,100,61.66,100,51.515C99.868,42.556,93.281,35.046,84.717,33.597z" fill="#957dad" transform="scale(1)"></path>
</g><g transform="translate(-100 450.6049730067339) rotate(0)">
  <animateTransform attributeName="transform" type="translate" keyTimes="0;1" values="-100 450.6049730067339;1920 450.6049730067339" dur="16.666666666666668s" repeatCount="indefinite" begin="-7.035110701263644s"></animateTransform>
  <path d="M84.717,33.597c0.791-2.503,1.186-5.138,1.186-7.773C85.903,11.594,74.308,0,60.079,0 c-9.881,0-18.445,5.534-22.793,13.702c-1.581-0.527-3.426-0.791-5.138-0.791c-9.486,0-17.128,7.642-17.128,17.128 c0,1.186,0.132,2.372,0.395,3.426C6.719,34.783,0,42.424,0,51.515C0,61.66,8.169,69.829,18.314,69.829h63.373 C91.831,69.829,100,61.66,100,51.515C99.868,42.556,93.281,35.046,84.717,33.597z" fill="#957dad" transform="scale(1)"></path>
</g><g transform="translate(-100 274.2476965069511) rotate(0)">
  <animateTransform attributeName="transform" type="translate" keyTimes="0;1" values="-100 274.2476965069511;1920 274.2476965069511" dur="16.666666666666668s" repeatCount="indefinite" begin="-27.24526880385717s"></animateTransform>
  <path d="M84.717,33.597c0.791-2.503,1.186-5.138,1.186-7.773C85.903,11.594,74.308,0,60.079,0 c-9.881,0-18.445,5.534-22.793,13.702c-1.581-0.527-3.426-0.791-5.138-0.791c-9.486,0-17.128,7.642-17.128,17.128 c0,1.186,0.132,2.372,0.395,3.426C6.719,34.783,0,42.424,0,51.515C0,61.66,8.169,69.829,18.314,69.829h63.373 C91.831,69.829,100,61.66,100,51.515C99.868,42.556,93.281,35.046,84.717,33.597z" fill="#957dad" transform="scale(1)"></path>
</g><g transform="translate(-100 814.1165278698655) rotate(0)">
  <animateTransform attributeName="transform" type="translate" keyTimes="0;1" values="-100 814.1165278698655;1920 814.1165278698655" dur="16.666666666666668s" repeatCount="indefinite" begin="-10.721170996414358s"></animateTransform>
  <path d="M84.717,33.597c0.791-2.503,1.186-5.138,1.186-7.773C85.903,11.594,74.308,0,60.079,0 c-9.881,0-18.445,5.534-22.793,13.702c-1.581-0.527-3.426-0.791-5.138-0.791c-9.486,0-17.128,7.642-17.128,17.128 c0,1.186,0.132,2.372,0.395,3.426C6.719,34.783,0,42.424,0,51.515C0,61.66,8.169,69.829,18.314,69.829h63.373 C91.831,69.829,100,61.66,100,51.515C99.868,42.556,93.281,35.046,84.717,33.597z" fill="#957dad" transform="scale(1)"></path>
</g><g transform="translate(-100 810.1267507847696) rotate(0)">
  <animateTransform attributeName="transform" type="translate" keyTimes="0;1" values="-100 810.1267507847696;1920 810.1267507847696" dur="16.666666666666668s" repeatCount="indefinite" begin="-52.17231811209349s"></animateTransform>
  <path d="M84.717,33.597c0.791-2.503,1.186-5.138,1.186-7.773C85.903,11.594,74.308,0,60.079,0 c-9.881,0-18.445,5.534-22.793,13.702c-1.581-0.527-3.426-0.791-5.138-0.791c-9.486,0-17.128,7.642-17.128,17.128 c0,1.186,0.132,2.372,0.395,3.426C6.719,34.783,0,42.424,0,51.515C0,61.66,8.169,69.829,18.314,69.829h63.373 C91.831,69.829,100,61.66,100,51.515C99.868,42.556,93.281,35.046,84.717,33.597z" fill="#957dad" transform="scale(1)"></path>
</g><g transform="translate(-100 691.9719169011192) rotate(0)">
  <animateTransform attributeName="transform" type="translate" keyTimes="0;1" values="-100 691.9719169011192;1920 691.9719169011192" dur="16.666666666666668s" repeatCount="indefinite" begin="-5.11986701801912s"></animateTransform>
  <path d="M84.717,33.597c0.791-2.503,1.186-5.138,1.186-7.773C85.903,11.594,74.308,0,60.079,0 c-9.881,0-18.445,5.534-22.793,13.702c-1.581-0.527-3.426-0.791-5.138-0.791c-9.486,0-17.128,7.642-17.128,17.128 c0,1.186,0.132,2.372,0.395,3.426C6.719,34.783,0,42.424,0,51.515C0,61.66,8.169,69.829,18.314,69.829h63.373 C91.831,69.829,100,61.66,100,51.515C99.868,42.556,93.281,35.046,84.717,33.597z" fill="#957dad" transform="scale(1)"></path>
</g><g transform="translate(-100 507.6578301680517) rotate(0)">
  <animateTransform attributeName="transform" type="translate" keyTimes="0;1" values="-100 507.6578301680517;1920 507.6578301680517" dur="16.666666666666668s" repeatCount="indefinite" begin="-42.740597849697856s"></animateTransform>
  <path d="M84.717,33.597c0.791-2.503,1.186-5.138,1.186-7.773C85.903,11.594,74.308,0,60.079,0 c-9.881,0-18.445,5.534-22.793,13.702c-1.581-0.527-3.426-0.791-5.138-0.791c-9.486,0-17.128,7.642-17.128,17.128 c0,1.186,0.132,2.372,0.395,3.426C6.719,34.783,0,42.424,0,51.515C0,61.66,8.169,69.829,18.314,69.829h63.373 C91.831,69.829,100,61.66,100,51.515C99.868,42.556,93.281,35.046,84.717,33.597z" fill="#957dad" transform="scale(1)"></path>
</g><g transform="translate(-100 473.9559739175212) rotate(0)">
  <animateTransform attributeName="transform" type="translate" keyTimes="0;1" values="-100 473.9559739175212;1920 473.9559739175212" dur="16.666666666666668s" repeatCount="indefinite" begin="-60.48638375287016s"></animateTransform>
  <path d="M84.717,33.597c0.791-2.503,1.186-5.138,1.186-7.773C85.903,11.594,74.308,0,60.079,0 c-9.881,0-18.445,5.534-22.793,13.702c-1.581-0.527-3.426-0.791-5.138-0.791c-9.486,0-17.128,7.642-17.128,17.128 c0,1.186,0.132,2.372,0.395,3.426C6.719,34.783,0,42.424,0,51.515C0,61.66,8.169,69.829,18.314,69.829h63.373 C91.831,69.829,100,61.66,100,51.515C99.868,42.556,93.281,35.046,84.717,33.597z" fill="#957dad" transform="scale(1)"></path>
</g></g>
</svg>