<svg xmlns="http://www.w3.org/2000/svg" xmlns:xlink="http://www.w3.org/1999/xlink" style="margin:auto;background:#d5d6ea;display:block;z-index:1;position:relative" width="1920" height="947" preserveAspectRatio="xMidYMid" viewBox="0 0 1920 947">
<g transform="translate(960,473.5) scale(1,1) translate(-960,-473.5)"><g transform="translate(-100 69.87108368287234) rotate(0)">
  <animateTransform attributeName="transform" type="translate" keyTimes="0;1" values="-100 69.87108368287234;1920 69.87108368287234" dur="66.66666666666667s" repeatCount="indefinite" begin="-10.088175401021257s"></animateTransform>
  <path d="M84.717,33.597c0.791-2.503,1.186-5.138,1.186-7.773C85.903,11.594,74.308,0,60.079,0 c-9.881,0-18.445,5.534-22.793,13.702c-1.581-0.527-3.426-0.791-5.138-0.791c-9.486,0-17.128,7.642-17.128,17.128 c0,1.186,0.132,2.372,0.395,3.426C6.719,34.783,0,42.424,0,51.515C0,61.66,8.169,69.829,18.314,69.829h63.373 C91.831,69.829,100,61.66,100,51.515C99.868,42.556,93.281,35.046,84.717,33.597z" fill="#f3ddf2" transform="scale(0.5725)"></path>
</g><g transform="translate(-100 662.2201513058338) rotate(0)">
  <animateTransform attributeName="transform" type="translate" keyTimes="0;1" values="-100 662.2201513058338;1920 662.2201513058338" dur="66.66666666666667s" repeatCount="indefinite" begin="-29.050810706263093s"></animateTransform>
  <path d="M84.717,33.597c0.791-2.503,1.186-5.138,1.186-7.773C85.903,11.594,74.308,0,60.079,0 c-9.881,0-18.445,5.534-22.793,13.702c-1.581-0.527-3.426-0.791-5.138-0.791c-9.486,0-17.128,7.642-17.128,17.128 c0,1.186,0.132,2.372,0.395,3.426C6.719,34.783,0,42.424,0,51.515C0,61.66,8.169,69.829,18.314,69.829h63.373 C91.831,69.829,100,61.66,100,51.515C99.868,42.556,93.281,35.046,84.717,33.597z" fill="#f3ddf2" transform="scale(0.5725)"></path>
</g><g transform="translate(-100 224.960836150606) rotate(0)">
  <animateTransform attributeName="transform" type="translate" keyTimes="0;1" values="-100 224.960836150606;1920 224.960836150606" dur="66.66666666666667s" repeatCount="indefinite" begin="-39.35644152551917s"></animateTransform>
  <path d="M84.717,33.597c0.791-2.503,1.186-5.138,1.186-7.773C85.903,11.594,74.308,0,60.079,0 c-9.881,0-18.445,5.534-22.793,13.702c-1.581-0.527-3.426-0.791-5.138-0.791c-9.486,0-17.128,7.642-17.128,17.128 c0,1.186,0.132,2.372,0.395,3.426C6.719,34.783,0,42.424,0,51.515C0,61.66,8.169,69.829,18.314,69.829h63.373 C91.831,69.829,100,61.66,100,51.515C99.868,42.556,93.281,35.046,84.717,33.597z" fill="#f3ddf2" transform="scale(0.5725)"></path>
</g><g transform="translate(-100 382.2202753540206) rotate(0)">
  <animateTransform attributeName="transform" type="translate" keyTimes="0;1" values="-100 382.2202753540206;1920 382.2202753540206" dur="66.66666666666667s" repeatCount="indefinite" begin="-31.471371165358832s"></animateTransform>
  <path d="M84.717,33.597c0.791-2.503,1.186-5.138,1.186-7.773C85.903,11.594,74.308,0,60.079,0 c-9.881,0-18.445,5.534-22.793,13.702c-1.581-0.527-3.426-0.791-5.138-0.791c-9.486,0-17.128,7.642-17.128,17.128 c0,1.186,0.132,2.372,0.395,3.426C6.719,34.783,0,42.424,0,51.515C0,61.66,8.169,69.829,18.314,69.829h63.373 C91.831,69.829,100,61.66,100,51.515C99.868,42.556,93.281,35.046,84.717,33.597z" fill="#f3ddf2" transform="scale(0.5725)"></path>
</g><g transform="translate(-100 864.7593525707924) rotate(0)">
  <animateTransform attributeName="transform" type="translate" keyTimes="0;1" values="-100 864.7593525707924;1920 864.7593525707924" dur="66.66666666666667s" repeatCount="indefinite" begin="-5.118890057005269s"></animateTransform>
  <path d="M84.717,33.597c0.791-2.503,1.186-5.138,1.186-7.773C85.903,11.594,74.308,0,60.079,0 c-9.881,0-18.445,5.534-22.793,13.702c-1.581-0.527-3.426-0.791-5.138-0.791c-9.486,0-17.128,7.642-17.128,17.128 c0,1.186,0.132,2.372,0.395,3.426C6.719,34.783,0,42.424,0,51.515C0,61.66,8.169,69.829,18.314,69.829h63.373 C91.831,69.829,100,61.66,100,51.515C99.868,42.556,93.281,35.046,84.717,33.597z" fill="#f3ddf2" transform="scale(0.5725)"></path>
</g><g transform="translate(-100 258.40644650876357) rotate(0)">
  <animateTransform attributeName="transform" type="translate" keyTimes="0;1" values="-100 258.40644650876357;1920 258.40644650876357" dur="66.66666666666667s" repeatCount="indefinite" begin="-15.635920948579448s"></animateTransform>
  <path d="M84.717,33.597c0.791-2.503,1.186-5.138,1.186-7.773C85.903,11.594,74.308,0,60.079,0 c-9.881,0-18.445,5.534-22.793,13.702c-1.581-0.527-3.426-0.791-5.138-0.791c-9.486,0-17.128,7.642-17.128,17.128 c0,1.186,0.132,2.372,0.395,3.426C6.719,34.783,0,42.424,0,51.515C0,61.66,8.169,69.829,18.314,69.829h63.373 C91.831,69.829,100,61.66,100,51.515C99.868,42.556,93.281,35.046,84.717,33.597z" fill="#f3ddf2" transform="scale(0.5725)"></path>
</g><g transform="translate(-100 519.1278909147643) rotate(0)">
  <animateTransform attributeName="transform" type="translate" keyTimes="0;1" values="-100 519.1278909147643;1920 519.1278909147643" dur="66.66666666666667s" repeatCount="indefinite" begin="-8.958232445225978s"></animateTransform>
  <path d="M84.717,33.597c0.791-2.503,1.186-5.138,1.186-7.773C85.903,11.594,74.308,0,60.079,0 c-9.881,0-18.445,5.534-22.793,13.702c-1.581-0.527-3.426-0.791-5.138-0.791c-9.486,0-17.128,7.642-17.128,17.128 c0,1.186,0.132,2.372,0.395,3.426C6.719,34.783,0,42.424,0,51.515C0,61.66,8.169,69.829,18.314,69.829h63.373 C91.831,69.829,100,61.66,100,51.515C99.868,42.556,93.281,35.046,84.717,33.597z" fill="#f3ddf2" transform="scale(0.5725)"></path>
</g><g transform="translate(-100 265.44817712723545) rotate(0)">
  <animateTransform attributeName="transform" type="translate" keyTimes="0;1" values="-100 265.44817712723545;1920 265.44817712723545" dur="66.66666666666667s" repeatCount="indefinite" begin="-63.98475117095596s"></animateTransform>
  <path d="M84.717,33.597c0.791-2.503,1.186-5.138,1.186-7.773C85.903,11.594,74.308,0,60.079,0 c-9.881,0-18.445,5.534-22.793,13.702c-1.581-0.527-3.426-0.791-5.138-0.791c-9.486,0-17.128,7.642-17.128,17.128 c0,1.186,0.132,2.372,0.395,3.426C6.719,34.783,0,42.424,0,51.515C0,61.66,8.169,69.829,18.314,69.829h63.373 C91.831,69.829,100,61.66,100,51.515C99.868,42.556,93.281,35.046,84.717,33.597z" fill="#f3ddf2" transform="scale(0.5725)"></path>
</g><g transform="translate(-100 22.965727368923424) rotate(0)">
  <animateTransform attributeName="transform" type="translate" keyTimes="0;1" values="-100 22.965727368923424;1920 22.965727368923424" dur="66.66666666666667s" repeatCount="indefinite" begin="-61.09038013846635s"></animateTransform>
  <path d="M84.717,33.597c0.791-2.503,1.186-5.138,1.186-7.773C85.903,11.594,74.308,0,60.079,0 c-9.881,0-18.445,5.534-22.793,13.702c-1.581-0.527-3.426-0.791-5.138-0.791c-9.486,0-17.128,7.642-17.128,17.128 c0,1.186,0.132,2.372,0.395,3.426C6.719,34.783,0,42.424,0,51.515C0,61.66,8.169,69.829,18.314,69.829h63.373 C91.831,69.829,100,61.66,100,51.515C99.868,42.556,93.281,35.046,84.717,33.597z" fill="#f3ddf2" transform="scale(0.5725)"></path>
</g><g transform="translate(-100 807.1986529736481) rotate(0)">
  <animateTransform attributeName="transform" type="translate" keyTimes="0;1" values="-100 807.1986529736481;1920 807.1986529736481" dur="66.66666666666667s" repeatCount="indefinite" begin="-2.837130504870385s"></animateTransform>
  <path d="M84.717,33.597c0.791-2.503,1.186-5.138,1.186-7.773C85.903,11.594,74.308,0,60.079,0 c-9.881,0-18.445,5.534-22.793,13.702c-1.581-0.527-3.426-0.791-5.138-0.791c-9.486,0-17.128,7.642-17.128,17.128 c0,1.186,0.132,2.372,0.395,3.426C6.719,34.783,0,42.424,0,51.515C0,61.66,8.169,69.829,18.314,69.829h63.373 C91.831,69.829,100,61.66,100,51.515C99.868,42.556,93.281,35.046,84.717,33.597z" fill="#f3ddf2" transform="scale(0.5725)"></path>
</g><g transform="translate(-100 620.6325005748413) rotate(0)">
  <animateTransform attributeName="transform" type="translate" keyTimes="0;1" values="-100 620.6325005748413;1920 620.6325005748413" dur="66.66666666666667s" repeatCount="indefinite" begin="-36.54718054746543s"></animateTransform>
  <path d="M84.717,33.597c0.791-2.503,1.186-5.138,1.186-7.773C85.903,11.594,74.308,0,60.079,0 c-9.881,0-18.445,5.534-22.793,13.702c-1.581-0.527-3.426-0.791-5.138-0.791c-9.486,0-17.128,7.642-17.128,17.128 c0,1.186,0.132,2.372,0.395,3.426C6.719,34.783,0,42.424,0,51.515C0,61.66,8.169,69.829,18.314,69.829h63.373 C91.831,69.829,100,61.66,100,51.515C99.868,42.556,93.281,35.046,84.717,33.597z" fill="#f3ddf2" transform="scale(0.5725)"></path>
</g><g transform="translate(-100 702.3419150553068) rotate(0)">
  <animateTransform attributeName="transform" type="translate" keyTimes="0;1" values="-100 702.3419150553068;1920 702.3419150553068" dur="33.333333333333336s" repeatCount="indefinite" begin="-26.520933137577902s"></animateTransform>
  <path d="M84.717,33.597c0.791-2.503,1.186-5.138,1.186-7.773C85.903,11.594,74.308,0,60.079,0 c-9.881,0-18.445,5.534-22.793,13.702c-1.581-0.527-3.426-0.791-5.138-0.791c-9.486,0-17.128,7.642-17.128,17.128 c0,1.186,0.132,2.372,0.395,3.426C6.719,34.783,0,42.424,0,51.515C0,61.66,8.169,69.829,18.314,69.829h63.373 C91.831,69.829,100,61.66,100,51.515C99.868,42.556,93.281,35.046,84.717,33.597z" fill="#f6ecf5" transform="scale(0.715)"></path>
</g><g transform="translate(-100 470.89944366805156) rotate(0)">
  <animateTransform attributeName="transform" type="translate" keyTimes="0;1" values="-100 470.89944366805156;1920 470.89944366805156" dur="33.333333333333336s" repeatCount="indefinite" begin="-28.543870693150367s"></animateTransform>
  <path d="M84.717,33.597c0.791-2.503,1.186-5.138,1.186-7.773C85.903,11.594,74.308,0,60.079,0 c-9.881,0-18.445,5.534-22.793,13.702c-1.581-0.527-3.426-0.791-5.138-0.791c-9.486,0-17.128,7.642-17.128,17.128 c0,1.186,0.132,2.372,0.395,3.426C6.719,34.783,0,42.424,0,51.515C0,61.66,8.169,69.829,18.314,69.829h63.373 C91.831,69.829,100,61.66,100,51.515C99.868,42.556,93.281,35.046,84.717,33.597z" fill="#f6ecf5" transform="scale(0.715)"></path>
</g><g transform="translate(-100 90.29399113620023) rotate(0)">
  <animateTransform attributeName="transform" type="translate" keyTimes="0;1" values="-100 90.29399113620023;1920 90.29399113620023" dur="33.333333333333336s" repeatCount="indefinite" begin="-51.82209227542008s"></animateTransform>
  <path d="M84.717,33.597c0.791-2.503,1.186-5.138,1.186-7.773C85.903,11.594,74.308,0,60.079,0 c-9.881,0-18.445,5.534-22.793,13.702c-1.581-0.527-3.426-0.791-5.138-0.791c-9.486,0-17.128,7.642-17.128,17.128 c0,1.186,0.132,2.372,0.395,3.426C6.719,34.783,0,42.424,0,51.515C0,61.66,8.169,69.829,18.314,69.829h63.373 C91.831,69.829,100,61.66,100,51.515C99.868,42.556,93.281,35.046,84.717,33.597z" fill="#f6ecf5" transform="scale(0.715)"></path>
</g><g transform="translate(-100 872.9513806227822) rotate(0)">
  <animateTransform attributeName="transform" type="translate" keyTimes="0;1" values="-100 872.9513806227822;1920 872.9513806227822" dur="33.333333333333336s" repeatCount="indefinite" begin="-56.156952943703836s"></animateTransform>
  <path d="M84.717,33.597c0.791-2.503,1.186-5.138,1.186-7.773C85.903,11.594,74.308,0,60.079,0 c-9.881,0-18.445,5.534-22.793,13.702c-1.581-0.527-3.426-0.791-5.138-0.791c-9.486,0-17.128,7.642-17.128,17.128 c0,1.186,0.132,2.372,0.395,3.426C6.719,34.783,0,42.424,0,51.515C0,61.66,8.169,69.829,18.314,69.829h63.373 C91.831,69.829,100,61.66,100,51.515C99.868,42.556,93.281,35.046,84.717,33.597z" fill="#f6ecf5" transform="scale(0.715)"></path>
</g><g transform="translate(-100 253.4756250227039) rotate(0)">
  <animateTransform attributeName="transform" type="translate" keyTimes="0;1" values="-100 253.4756250227039;1920 253.4756250227039" dur="33.333333333333336s" repeatCount="indefinite" begin="-52.64978189176157s"></animateTransform>
  <path d="M84.717,33.597c0.791-2.503,1.186-5.138,1.186-7.773C85.903,11.594,74.308,0,60.079,0 c-9.881,0-18.445,5.534-22.793,13.702c-1.581-0.527-3.426-0.791-5.138-0.791c-9.486,0-17.128,7.642-17.128,17.128 c0,1.186,0.132,2.372,0.395,3.426C6.719,34.783,0,42.424,0,51.515C0,61.66,8.169,69.829,18.314,69.829h63.373 C91.831,69.829,100,61.66,100,51.515C99.868,42.556,93.281,35.046,84.717,33.597z" fill="#f6ecf5" transform="scale(0.715)"></path>
</g><g transform="translate(-100 825.1456845831192) rotate(0)">
  <animateTransform attributeName="transform" type="translate" keyTimes="0;1" values="-100 825.1456845831192;1920 825.1456845831192" dur="33.333333333333336s" repeatCount="indefinite" begin="-59.17521497001732s"></animateTransform>
  <path d="M84.717,33.597c0.791-2.503,1.186-5.138,1.186-7.773C85.903,11.594,74.308,0,60.079,0 c-9.881,0-18.445,5.534-22.793,13.702c-1.581-0.527-3.426-0.791-5.138-0.791c-9.486,0-17.128,7.642-17.128,17.128 c0,1.186,0.132,2.372,0.395,3.426C6.719,34.783,0,42.424,0,51.515C0,61.66,8.169,69.829,18.314,69.829h63.373 C91.831,69.829,100,61.66,100,51.515C99.868,42.556,93.281,35.046,84.717,33.597z" fill="#f6ecf5" transform="scale(0.715)"></path>
</g><g transform="translate(-100 654.697624984795) rotate(0)">
  <animateTransform attributeName="transform" type="translate" keyTimes="0;1" values="-100 654.697624984795;1920 654.697624984795" dur="33.333333333333336s" repeatCount="indefinite" begin="-10.553855710569223s"></animateTransform>
  <path d="M84.717,33.597c0.791-2.503,1.186-5.138,1.186-7.773C85.903,11.594,74.308,0,60.079,0 c-9.881,0-18.445,5.534-22.793,13.702c-1.581-0.527-3.426-0.791-5.138-0.791c-9.486,0-17.128,7.642-17.128,17.128 c0,1.186,0.132,2.372,0.395,3.426C6.719,34.783,0,42.424,0,51.515C0,61.66,8.169,69.829,18.314,69.829h63.373 C91.831,69.829,100,61.66,100,51.515C99.868,42.556,93.281,35.046,84.717,33.597z" fill="#f6ecf5" transform="scale(0.715)"></path>
</g><g transform="translate(-100 864.6583262713735) rotate(0)">
  <animateTransform attributeName="transform" type="translate" keyTimes="0;1" values="-100 864.6583262713735;1920 864.6583262713735" dur="33.333333333333336s" repeatCount="indefinite" begin="-15.845403313701198s"></animateTransform>
  <path d="M84.717,33.597c0.791-2.503,1.186-5.138,1.186-7.773C85.903,11.594,74.308,0,60.079,0 c-9.881,0-18.445,5.534-22.793,13.702c-1.581-0.527-3.426-0.791-5.138-0.791c-9.486,0-17.128,7.642-17.128,17.128 c0,1.186,0.132,2.372,0.395,3.426C6.719,34.783,0,42.424,0,51.515C0,61.66,8.169,69.829,18.314,69.829h63.373 C91.831,69.829,100,61.66,100,51.515C99.868,42.556,93.281,35.046,84.717,33.597z" fill="#f6ecf5" transform="scale(0.715)"></path>
</g><g transform="translate(-100 752.2172467939274) rotate(0)">
  <animateTransform attributeName="transform" type="translate" keyTimes="0;1" values="-100 752.2172467939274;1920 752.2172467939274" dur="33.333333333333336s" repeatCount="indefinite" begin="-8.390304985909374s"></animateTransform>
  <path d="M84.717,33.597c0.791-2.503,1.186-5.138,1.186-7.773C85.903,11.594,74.308,0,60.079,0 c-9.881,0-18.445,5.534-22.793,13.702c-1.581-0.527-3.426-0.791-5.138-0.791c-9.486,0-17.128,7.642-17.128,17.128 c0,1.186,0.132,2.372,0.395,3.426C6.719,34.783,0,42.424,0,51.515C0,61.66,8.169,69.829,18.314,69.829h63.373 C91.831,69.829,100,61.66,100,51.515C99.868,42.556,93.281,35.046,84.717,33.597z" fill="#f6ecf5" transform="scale(0.715)"></path>
</g><g transform="translate(-100 172.77518585950997) rotate(0)">
  <animateTransform attributeName="transform" type="translate" keyTimes="0;1" values="-100 172.77518585950997;1920 172.77518585950997" dur="33.333333333333336s" repeatCount="indefinite" begin="-19.086453956418055s"></animateTransform>
  <path d="M84.717,33.597c0.791-2.503,1.186-5.138,1.186-7.773C85.903,11.594,74.308,0,60.079,0 c-9.881,0-18.445,5.534-22.793,13.702c-1.581-0.527-3.426-0.791-5.138-0.791c-9.486,0-17.128,7.642-17.128,17.128 c0,1.186,0.132,2.372,0.395,3.426C6.719,34.783,0,42.424,0,51.515C0,61.66,8.169,69.829,18.314,69.829h63.373 C91.831,69.829,100,61.66,100,51.515C99.868,42.556,93.281,35.046,84.717,33.597z" fill="#f6ecf5" transform="scale(0.715)"></path>
</g><g transform="translate(-100 41.53764168743401) rotate(0)">
  <animateTransform attributeName="transform" type="translate" keyTimes="0;1" values="-100 41.53764168743401;1920 41.53764168743401" dur="33.333333333333336s" repeatCount="indefinite" begin="-18.470723482516625s"></animateTransform>
  <path d="M84.717,33.597c0.791-2.503,1.186-5.138,1.186-7.773C85.903,11.594,74.308,0,60.079,0 c-9.881,0-18.445,5.534-22.793,13.702c-1.581-0.527-3.426-0.791-5.138-0.791c-9.486,0-17.128,7.642-17.128,17.128 c0,1.186,0.132,2.372,0.395,3.426C6.719,34.783,0,42.424,0,51.515C0,61.66,8.169,69.829,18.314,69.829h63.373 C91.831,69.829,100,61.66,100,51.515C99.868,42.556,93.281,35.046,84.717,33.597z" fill="#f6ecf5" transform="scale(0.715)"></path>
</g><g transform="translate(-100 720.7419282521814) rotate(0)">
  <animateTransform attributeName="transform" type="translate" keyTimes="0;1" values="-100 720.7419282521814;1920 720.7419282521814" dur="22.222222222222225s" repeatCount="indefinite" begin="-46.573449815102805s"></animateTransform>
  <path d="M84.717,33.597c0.791-2.503,1.186-5.138,1.186-7.773C85.903,11.594,74.308,0,60.079,0 c-9.881,0-18.445,5.534-22.793,13.702c-1.581-0.527-3.426-0.791-5.138-0.791c-9.486,0-17.128,7.642-17.128,17.128 c0,1.186,0.132,2.372,0.395,3.426C6.719,34.783,0,42.424,0,51.515C0,61.66,8.169,69.829,18.314,69.829h63.373 C91.831,69.829,100,61.66,100,51.515C99.868,42.556,93.281,35.046,84.717,33.597z" fill="#f5d5cb" transform="scale(0.8574999999999999)"></path>
</g><g transform="translate(-100 333.4614790113945) rotate(0)">
  <animateTransform attributeName="transform" type="translate" keyTimes="0;1" values="-100 333.4614790113945;1920 333.4614790113945" dur="22.222222222222225s" repeatCount="indefinite" begin="-16.191062355836902s"></animateTransform>
  <path d="M84.717,33.597c0.791-2.503,1.186-5.138,1.186-7.773C85.903,11.594,74.308,0,60.079,0 c-9.881,0-18.445,5.534-22.793,13.702c-1.581-0.527-3.426-0.791-5.138-0.791c-9.486,0-17.128,7.642-17.128,17.128 c0,1.186,0.132,2.372,0.395,3.426C6.719,34.783,0,42.424,0,51.515C0,61.66,8.169,69.829,18.314,69.829h63.373 C91.831,69.829,100,61.66,100,51.515C99.868,42.556,93.281,35.046,84.717,33.597z" fill="#f5d5cb" transform="scale(0.8574999999999999)"></path>
</g><g transform="translate(-100 162.5854416477734) rotate(0)">
  <animateTransform attributeName="transform" type="translate" keyTimes="0;1" values="-100 162.5854416477734;1920 162.5854416477734" dur="22.222222222222225s" repeatCount="indefinite" begin="-56.43496853186479s"></animateTransform>
  <path d="M84.717,33.597c0.791-2.503,1.186-5.138,1.186-7.773C85.903,11.594,74.308,0,60.079,0 c-9.881,0-18.445,5.534-22.793,13.702c-1.581-0.527-3.426-0.791-5.138-0.791c-9.486,0-17.128,7.642-17.128,17.128 c0,1.186,0.132,2.372,0.395,3.426C6.719,34.783,0,42.424,0,51.515C0,61.66,8.169,69.829,18.314,69.829h63.373 C91.831,69.829,100,61.66,100,51.515C99.868,42.556,93.281,35.046,84.717,33.597z" fill="#f5d5cb" transform="scale(0.8574999999999999)"></path>
</g><g transform="translate(-100 552.0345766678843) rotate(0)">
  <animateTransform attributeName="transform" type="translate" keyTimes="0;1" values="-100 552.0345766678843;1920 552.0345766678843" dur="22.222222222222225s" repeatCount="indefinite" begin="-45.98813254794456s"></animateTransform>
  <path d="M84.717,33.597c0.791-2.503,1.186-5.138,1.186-7.773C85.903,11.594,74.308,0,60.079,0 c-9.881,0-18.445,5.534-22.793,13.702c-1.581-0.527-3.426-0.791-5.138-0.791c-9.486,0-17.128,7.642-17.128,17.128 c0,1.186,0.132,2.372,0.395,3.426C6.719,34.783,0,42.424,0,51.515C0,61.66,8.169,69.829,18.314,69.829h63.373 C91.831,69.829,100,61.66,100,51.515C99.868,42.556,93.281,35.046,84.717,33.597z" fill="#f5d5cb" transform="scale(0.8574999999999999)"></path>
</g><g transform="translate(-100 715.9875036243071) rotate(0)">
  <animateTransform attributeName="transform" type="translate" keyTimes="0;1" values="-100 715.9875036243071;1920 715.9875036243071" dur="22.222222222222225s" repeatCount="indefinite" begin="-19.07182163262881s"></animateTransform>
  <path d="M84.717,33.597c0.791-2.503,1.186-5.138,1.186-7.773C85.903,11.594,74.308,0,60.079,0 c-9.881,0-18.445,5.534-22.793,13.702c-1.581-0.527-3.426-0.791-5.138-0.791c-9.486,0-17.128,7.642-17.128,17.128 c0,1.186,0.132,2.372,0.395,3.426C6.719,34.783,0,42.424,0,51.515C0,61.66,8.169,69.829,18.314,69.829h63.373 C91.831,69.829,100,61.66,100,51.515C99.868,42.556,93.281,35.046,84.717,33.597z" fill="#f5d5cb" transform="scale(0.8574999999999999)"></path>
</g><g transform="translate(-100 140.92438570644924) rotate(0)">
  <animateTransform attributeName="transform" type="translate" keyTimes="0;1" values="-100 140.92438570644924;1920 140.92438570644924" dur="22.222222222222225s" repeatCount="indefinite" begin="-33.467787218189855s"></animateTransform>
  <path d="M84.717,33.597c0.791-2.503,1.186-5.138,1.186-7.773C85.903,11.594,74.308,0,60.079,0 c-9.881,0-18.445,5.534-22.793,13.702c-1.581-0.527-3.426-0.791-5.138-0.791c-9.486,0-17.128,7.642-17.128,17.128 c0,1.186,0.132,2.372,0.395,3.426C6.719,34.783,0,42.424,0,51.515C0,61.66,8.169,69.829,18.314,69.829h63.373 C91.831,69.829,100,61.66,100,51.515C99.868,42.556,93.281,35.046,84.717,33.597z" fill="#f5d5cb" transform="scale(0.8574999999999999)"></path>
</g><g transform="translate(-100 191.03194501734245) rotate(0)">
  <animateTransform attributeName="transform" type="translate" keyTimes="0;1" values="-100 191.03194501734245;1920 191.03194501734245" dur="22.222222222222225s" repeatCount="indefinite" begin="-46.369703472574905s"></animateTransform>
  <path d="M84.717,33.597c0.791-2.503,1.186-5.138,1.186-7.773C85.903,11.594,74.308,0,60.079,0 c-9.881,0-18.445,5.534-22.793,13.702c-1.581-0.527-3.426-0.791-5.138-0.791c-9.486,0-17.128,7.642-17.128,17.128 c0,1.186,0.132,2.372,0.395,3.426C6.719,34.783,0,42.424,0,51.515C0,61.66,8.169,69.829,18.314,69.829h63.373 C91.831,69.829,100,61.66,100,51.515C99.868,42.556,93.281,35.046,84.717,33.597z" fill="#f5d5cb" transform="scale(0.8574999999999999)"></path>
</g><g transform="translate(-100 927.4320630119346) rotate(0)">
  <animateTransform attributeName="transform" type="translate" keyTimes="0;1" values="-100 927.4320630119346;1920 927.4320630119346" dur="22.222222222222225s" repeatCount="indefinite" begin="-33.17661883540836s"></animateTransform>
  <path d="M84.717,33.597c0.791-2.503,1.186-5.138,1.186-7.773C85.903,11.594,74.308,0,60.079,0 c-9.881,0-18.445,5.534-22.793,13.702c-1.581-0.527-3.426-0.791-5.138-0.791c-9.486,0-17.128,7.642-17.128,17.128 c0,1.186,0.132,2.372,0.395,3.426C6.719,34.783,0,42.424,0,51.515C0,61.66,8.169,69.829,18.314,69.829h63.373 C91.831,69.829,100,61.66,100,51.515C99.868,42.556,93.281,35.046,84.717,33.597z" fill="#f5d5cb" transform="scale(0.8574999999999999)"></path>
</g><g transform="translate(-100 469.21229560000864) rotate(0)">
  <animateTransform attributeName="transform" type="translate" keyTimes="0;1" values="-100 469.21229560000864;1920 469.21229560000864" dur="22.222222222222225s" repeatCount="indefinite" begin="-4.360610640203315s"></animateTransform>
  <path d="M84.717,33.597c0.791-2.503,1.186-5.138,1.186-7.773C85.903,11.594,74.308,0,60.079,0 c-9.881,0-18.445,5.534-22.793,13.702c-1.581-0.527-3.426-0.791-5.138-0.791c-9.486,0-17.128,7.642-17.128,17.128 c0,1.186,0.132,2.372,0.395,3.426C6.719,34.783,0,42.424,0,51.515C0,61.66,8.169,69.829,18.314,69.829h63.373 C91.831,69.829,100,61.66,100,51.515C99.868,42.556,93.281,35.046,84.717,33.597z" fill="#f5d5cb" transform="scale(0.8574999999999999)"></path>
</g><g transform="translate(-100 194.01745365480218) rotate(0)">
  <animateTransform attributeName="transform" type="translate" keyTimes="0;1" values="-100 194.01745365480218;1920 194.01745365480218" dur="22.222222222222225s" repeatCount="indefinite" begin="-1.7460376504902768s"></animateTransform>
  <path d="M84.717,33.597c0.791-2.503,1.186-5.138,1.186-7.773C85.903,11.594,74.308,0,60.079,0 c-9.881,0-18.445,5.534-22.793,13.702c-1.581-0.527-3.426-0.791-5.138-0.791c-9.486,0-17.128,7.642-17.128,17.128 c0,1.186,0.132,2.372,0.395,3.426C6.719,34.783,0,42.424,0,51.515C0,61.66,8.169,69.829,18.314,69.829h63.373 C91.831,69.829,100,61.66,100,51.515C99.868,42.556,93.281,35.046,84.717,33.597z" fill="#f5d5cb" transform="scale(0.8574999999999999)"></path>
</g><g transform="translate(-100 361.39664546294017) rotate(0)">
  <animateTransform attributeName="transform" type="translate" keyTimes="0;1" values="-100 361.39664546294017;1920 361.39664546294017" dur="22.222222222222225s" repeatCount="indefinite" begin="-65.38067390583274s"></animateTransform>
  <path d="M84.717,33.597c0.791-2.503,1.186-5.138,1.186-7.773C85.903,11.594,74.308,0,60.079,0 c-9.881,0-18.445,5.534-22.793,13.702c-1.581-0.527-3.426-0.791-5.138-0.791c-9.486,0-17.128,7.642-17.128,17.128 c0,1.186,0.132,2.372,0.395,3.426C6.719,34.783,0,42.424,0,51.515C0,61.66,8.169,69.829,18.314,69.829h63.373 C91.831,69.829,100,61.66,100,51.515C99.868,42.556,93.281,35.046,84.717,33.597z" fill="#f5d5cb" transform="scale(0.8574999999999999)"></path>
</g><g transform="translate(-100 714.5351111824298) rotate(0)">
  <animateTransform attributeName="transform" type="translate" keyTimes="0;1" values="-100 714.5351111824298;1920 714.5351111824298" dur="16.666666666666668s" repeatCount="indefinite" begin="-45.88562239427332s"></animateTransform>
  <path d="M84.717,33.597c0.791-2.503,1.186-5.138,1.186-7.773C85.903,11.594,74.308,0,60.079,0 c-9.881,0-18.445,5.534-22.793,13.702c-1.581-0.527-3.426-0.791-5.138-0.791c-9.486,0-17.128,7.642-17.128,17.128 c0,1.186,0.132,2.372,0.395,3.426C6.719,34.783,0,42.424,0,51.515C0,61.66,8.169,69.829,18.314,69.829h63.373 C91.831,69.829,100,61.66,100,51.515C99.868,42.556,93.281,35.046,84.717,33.597z" fill="#957dad" transform="scale(1)"></path>
</g><g transform="translate(-100 491.50650334886785) rotate(0)">
  <animateTransform attributeName="transform" type="translate" keyTimes="0;1" values="-100 491.50650334886785;1920 491.50650334886785" dur="16.666666666666668s" repeatCount="indefinite" begin="-34.43151805207078s"></animateTransform>
  <path d="M84.717,33.597c0.791-2.503,1.186-5.138,1.186-7.773C85.903,11.594,74.308,0,60.079,0 c-9.881,0-18.445,5.534-22.793,13.702c-1.581-0.527-3.426-0.791-5.138-0.791c-9.486,0-17.128,7.642-17.128,17.128 c0,1.186,0.132,2.372,0.395,3.426C6.719,34.783,0,42.424,0,51.515C0,61.66,8.169,69.829,18.314,69.829h63.373 C91.831,69.829,100,61.66,100,51.515C99.868,42.556,93.281,35.046,84.717,33.597z" fill="#957dad" transform="scale(1)"></path>
</g><g transform="translate(-100 110.25408676414554) rotate(0)">
  <animateTransform attributeName="transform" type="translate" keyTimes="0;1" values="-100 110.25408676414554;1920 110.25408676414554" dur="16.666666666666668s" repeatCount="indefinite" begin="-32.75211492151547s"></animateTransform>
  <path d="M84.717,33.597c0.791-2.503,1.186-5.138,1.186-7.773C85.903,11.594,74.308,0,60.079,0 c-9.881,0-18.445,5.534-22.793,13.702c-1.581-0.527-3.426-0.791-5.138-0.791c-9.486,0-17.128,7.642-17.128,17.128 c0,1.186,0.132,2.372,0.395,3.426C6.719,34.783,0,42.424,0,51.515C0,61.66,8.169,69.829,18.314,69.829h63.373 C91.831,69.829,100,61.66,100,51.515C99.868,42.556,93.281,35.046,84.717,33.597z" fill="#957dad" transform="scale(1)"></path>
</g><g transform="translate(-100 576.4367007691128) rotate(0)">
  <animateTransform attributeName="transform" type="translate" keyTimes="0;1" values="-100 576.4367007691128;1920 576.4367007691128" dur="16.666666666666668s" repeatCount="indefinite" begin="-12.999424361402669s"></animateTransform>
  <path d="M84.717,33.597c0.791-2.503,1.186-5.138,1.186-7.773C85.903,11.594,74.308,0,60.079,0 c-9.881,0-18.445,5.534-22.793,13.702c-1.581-0.527-3.426-0.791-5.138-0.791c-9.486,0-17.128,7.642-17.128,17.128 c0,1.186,0.132,2.372,0.395,3.426C6.719,34.783,0,42.424,0,51.515C0,61.66,8.169,69.829,18.314,69.829h63.373 C91.831,69.829,100,61.66,100,51.515C99.868,42.556,93.281,35.046,84.717,33.597z" fill="#957dad" transform="scale(1)"></path>
</g><g transform="translate(-100 67.87970291324659) rotate(0)">
  <animateTransform attributeName="transform" type="translate" keyTimes="0;1" values="-100 67.87970291324659;1920 67.87970291324659" dur="16.666666666666668s" repeatCount="indefinite" begin="-27.43162403044363s"></animateTransform>
  <path d="M84.717,33.597c0.791-2.503,1.186-5.138,1.186-7.773C85.903,11.594,74.308,0,60.079,0 c-9.881,0-18.445,5.534-22.793,13.702c-1.581-0.527-3.426-0.791-5.138-0.791c-9.486,0-17.128,7.642-17.128,17.128 c0,1.186,0.132,2.372,0.395,3.426C6.719,34.783,0,42.424,0,51.515C0,61.66,8.169,69.829,18.314,69.829h63.373 C91.831,69.829,100,61.66,100,51.515C99.868,42.556,93.281,35.046,84.717,33.597z" fill="#957dad" transform="scale(1)"></path>
</g><g transform="translate(-100 671.4137925913328) rotate(0)">
  <animateTransform attributeName="transform" type="translate" keyTimes="0;1" values="-100 671.4137925913328;1920 671.4137925913328" dur="16.666666666666668s" repeatCount="indefinite" begin="-61.42078315318598s"></animateTransform>
  <path d="M84.717,33.597c0.791-2.503,1.186-5.138,1.186-7.773C85.903,11.594,74.308,0,60.079,0 c-9.881,0-18.445,5.534-22.793,13.702c-1.581-0.527-3.426-0.791-5.138-0.791c-9.486,0-17.128,7.642-17.128,17.128 c0,1.186,0.132,2.372,0.395,3.426C6.719,34.783,0,42.424,0,51.515C0,61.66,8.169,69.829,18.314,69.829h63.373 C91.831,69.829,100,61.66,100,51.515C99.868,42.556,93.281,35.046,84.717,33.597z" fill="#957dad" transform="scale(1)"></path>
</g><g transform="translate(-100 231.45870303519655) rotate(0)">
  <animateTransform attributeName="transform" type="translate" keyTimes="0;1" values="-100 231.45870303519655;1920 231.45870303519655" dur="16.666666666666668s" repeatCount="indefinite" begin="-43.50036332415959s"></animateTransform>
  <path d="M84.717,33.597c0.791-2.503,1.186-5.138,1.186-7.773C85.903,11.594,74.308,0,60.079,0 c-9.881,0-18.445,5.534-22.793,13.702c-1.581-0.527-3.426-0.791-5.138-0.791c-9.486,0-17.128,7.642-17.128,17.128 c0,1.186,0.132,2.372,0.395,3.426C6.719,34.783,0,42.424,0,51.515C0,61.66,8.169,69.829,18.314,69.829h63.373 C91.831,69.829,100,61.66,100,51.515C99.868,42.556,93.281,35.046,84.717,33.597z" fill="#957dad" transform="scale(1)"></path>
</g><g transform="translate(-100 6.161236542023843) rotate(0)">
  <animateTransform attributeName="transform" type="translate" keyTimes="0;1" values="-100 6.161236542023843;1920 6.161236542023843" dur="16.666666666666668s" repeatCount="indefinite" begin="-0.5656726033590687s"></animateTransform>
  <path d="M84.717,33.597c0.791-2.503,1.186-5.138,1.186-7.773C85.903,11.594,74.308,0,60.079,0 c-9.881,0-18.445,5.534-22.793,13.702c-1.581-0.527-3.426-0.791-5.138-0.791c-9.486,0-17.128,7.642-17.128,17.128 c0,1.186,0.132,2.372,0.395,3.426C6.719,34.783,0,42.424,0,51.515C0,61.66,8.169,69.829,18.314,69.829h63.373 C91.831,69.829,100,61.66,100,51.515C99.868,42.556,93.281,35.046,84.717,33.597z" fill="#957dad" transform="scale(1)"></path>
</g><g transform="translate(-100 63.166404230024796) rotate(0)">
  <animateTransform attributeName="transform" type="translate" keyTimes="0;1" values="-100 63.166404230024796;1920 63.166404230024796" dur="16.666666666666668s" repeatCount="indefinite" begin="-43.253641168810525s"></animateTransform>
  <path d="M84.717,33.597c0.791-2.503,1.186-5.138,1.186-7.773C85.903,11.594,74.308,0,60.079,0 c-9.881,0-18.445,5.534-22.793,13.702c-1.581-0.527-3.426-0.791-5.138-0.791c-9.486,0-17.128,7.642-17.128,17.128 c0,1.186,0.132,2.372,0.395,3.426C6.719,34.783,0,42.424,0,51.515C0,61.66,8.169,69.829,18.314,69.829h63.373 C91.831,69.829,100,61.66,100,51.515C99.868,42.556,93.281,35.046,84.717,33.597z" fill="#957dad" transform="scale(1)"></path>
</g><g transform="translate(-100 916.7265641291938) rotate(0)">
  <animateTransform attributeName="transform" type="translate" keyTimes="0;1" values="-100 916.7265641291938;1920 916.7265641291938" dur="16.666666666666668s" repeatCount="indefinite" begin="-21.997053265393284s"></animateTransform>
  <path d="M84.717,33.597c0.791-2.503,1.186-5.138,1.186-7.773C85.903,11.594,74.308,0,60.079,0 c-9.881,0-18.445,5.534-22.793,13.702c-1.581-0.527-3.426-0.791-5.138-0.791c-9.486,0-17.128,7.642-17.128,17.128 c0,1.186,0.132,2.372,0.395,3.426C6.719,34.783,0,42.424,0,51.515C0,61.66,8.169,69.829,18.314,69.829h63.373 C91.831,69.829,100,61.66,100,51.515C99.868,42.556,93.281,35.046,84.717,33.597z" fill="#957dad" transform="scale(1)"></path>
</g><g transform="translate(-100 681.6607776341341) rotate(0)">
  <animateTransform attributeName="transform" type="translate" keyTimes="0;1" values="-100 681.6607776341341;1920 681.6607776341341" dur="16.666666666666668s" repeatCount="indefinite" begin="-41.05967921871873s"></animateTransform>
  <path d="M84.717,33.597c0.791-2.503,1.186-5.138,1.186-7.773C85.903,11.594,74.308,0,60.079,0 c-9.881,0-18.445,5.534-22.793,13.702c-1.581-0.527-3.426-0.791-5.138-0.791c-9.486,0-17.128,7.642-17.128,17.128 c0,1.186,0.132,2.372,0.395,3.426C6.719,34.783,0,42.424,0,51.515C0,61.66,8.169,69.829,18.314,69.829h63.373 C91.831,69.829,100,61.66,100,51.515C99.868,42.556,93.281,35.046,84.717,33.597z" fill="#957dad" transform="scale(1)"></path>
</g><g transform="translate(-100 320.6289390803962) rotate(0)">
  <animateTransform attributeName="transform" type="translate" keyTimes="0;1" values="-100 320.6289390803962;1920 320.6289390803962" dur="16.666666666666668s" repeatCount="indefinite" begin="-13.913516105509002s"></animateTransform>
  <path d="M84.717,33.597c0.791-2.503,1.186-5.138,1.186-7.773C85.903,11.594,74.308,0,60.079,0 c-9.881,0-18.445,5.534-22.793,13.702c-1.581-0.527-3.426-0.791-5.138-0.791c-9.486,0-17.128,7.642-17.128,17.128 c0,1.186,0.132,2.372,0.395,3.426C6.719,34.783,0,42.424,0,51.515C0,61.66,8.169,69.829,18.314,69.829h63.373 C91.831,69.829,100,61.66,100,51.515C99.868,42.556,93.281,35.046,84.717,33.597z" fill="#957dad" transform="scale(1)"></path>
</g></g>
</svg>