<svg xmlns="http://www.w3.org/2000/svg" xmlns:xlink="http://www.w3.org/1999/xlink" style="margin:auto;background:#f1f2f3;display:block;z-index:1;position:relative"  preserveAspectRatio="xMidYMid" viewBox="0 0 1920 977">
<g transform="translate(960,488.5) scale(1,1) translate(-960,-488.5)"><defs>
<linearGradient id="lg-0.5597593875196785" x1="0" x2="0" y1="0" y2="1">
  <stop stop-color="#514134" offset="0.3"></stop>
  <stop stop-color="#e35839" offset="0.6499999999999999"></stop>
  <stop stop-color="#e35839" offset="1"></stop>
</linearGradient>
<linearGradient id="fg-lg-0.5597593875196785" x1="0" x2="0" y1="0" y2="1">
  <stop stop-color="#514134" stop-opacity="1" offset="0.3"></stop>
  <stop stop-color="#e35839" stop-opacity="0.66" offset="0.6499999999999999"></stop>
  <stop stop-color="#e35839" stop-opacity="0" offset="1"></stop>
</linearGradient>
<style type="text/css">
  path { fill: none; stroke: #d28d4f; stroke-width: 2px }
</style>
</defs>
<rect x="0" y="0" width="1920" height="977" fill="url(#lg-0.5597593875196785)"></rect><path d="M0 293.09999999999997 L-13440 977"></path><path d="M14.76923076923077 293.09999999999997 L-13218.461538461539 977"></path><path d="M29.53846153846154 293.09999999999997 L-12996.923076923076 977"></path><path d="M44.30769230769231 293.09999999999997 L-12775.384615384615 977"></path><path d="M59.07692307692308 293.09999999999997 L-12553.846153846154 977"></path><path d="M73.84615384615384 293.09999999999997 L-12332.307692307691 977"></path><path d="M88.61538461538461 293.09999999999997 L-12110.76923076923 977"></path><path d="M103.38461538461539 293.09999999999997 L-11889.23076923077 977"></path><path d="M118.15384615384616 293.09999999999997 L-11667.692307692309 977"></path><path d="M132.92307692307693 293.09999999999997 L-11446.153846153846 977"></path><path d="M147.69230769230768 293.09999999999997 L-11224.615384615385 977"></path><path d="M162.46153846153845 293.09999999999997 L-11003.076923076922 977"></path><path d="M177.23076923076923 293.09999999999997 L-10781.538461538461 977"></path><path d="M192 293.09999999999997 L-10560 977"></path><path d="M206.76923076923077 293.09999999999997 L-10338.461538461539 977"></path><path d="M221.53846153846155 293.09999999999997 L-10116.923076923078 977"></path><path d="M236.30769230769232 293.09999999999997 L-9895.384615384615 977"></path><path d="M251.07692307692307 293.09999999999997 L-9673.846153846154 977"></path><path d="M265.84615384615387 293.09999999999997 L-9452.307692307691 977"></path><path d="M280.61538461538464 293.09999999999997 L-9230.76923076923 977"></path><path d="M295.38461538461536 293.09999999999997 L-9009.23076923077 977"></path><path d="M310.15384615384613 293.09999999999997 L-8787.692307692309 977"></path><path d="M324.9230769230769 293.09999999999997 L-8566.153846153846 977"></path><path d="M339.6923076923077 293.09999999999997 L-8344.615384615385 977"></path><path d="M354.46153846153845 293.09999999999997 L-8123.076923076923 977"></path><path d="M369.2307692307692 293.09999999999997 L-7901.538461538462 977"></path><path d="M384 293.09999999999997 L-7680 977"></path><path d="M398.7692307692308 293.09999999999997 L-7458.461538461538 977"></path><path d="M413.53846153846155 293.09999999999997 L-7236.923076923077 977"></path><path d="M428.3076923076923 293.09999999999997 L-7015.384615384615 977"></path><path d="M443.0769230769231 293.09999999999997 L-6793.846153846154 977"></path><path d="M457.84615384615387 293.09999999999997 L-6572.307692307692 977"></path><path d="M472.61538461538464 293.09999999999997 L-6350.7692307692305 977"></path><path d="M487.38461538461536 293.09999999999997 L-6129.2307692307695 977"></path><path d="M502.15384615384613 293.09999999999997 L-5907.692307692308 977"></path><path d="M516.9230769230769 293.09999999999997 L-5686.153846153846 977"></path><path d="M531.6923076923077 293.09999999999997 L-5464.615384615385 977"></path><path d="M546.4615384615385 293.09999999999997 L-5243.076923076924 977"></path><path d="M561.2307692307693 293.09999999999997 L-5021.538461538461 977"></path><path d="M576 293.09999999999997 L-4800 977"></path><path d="M590.7692307692307 293.09999999999997 L-4578.461538461539 977"></path><path d="M605.5384615384615 293.09999999999997 L-4356.923076923076 977"></path><path d="M620.3076923076923 293.09999999999997 L-4135.384615384615 977"></path><path d="M635.0769230769231 293.09999999999997 L-3913.8461538461543 977"></path><path d="M649.8461538461538 293.09999999999997 L-3692.3076923076915 977"></path><path d="M664.6153846153846 293.09999999999997 L-3470.7692307692305 977"></path><path d="M679.3846153846154 293.09999999999997 L-3249.2307692307695 977"></path><path d="M694.1538461538462 293.09999999999997 L-3027.6923076923085 977"></path><path d="M708.9230769230769 293.09999999999997 L-2806.1538461538457 977"></path><path d="M723.6923076923077 293.09999999999997 L-2584.6153846153848 977"></path><path d="M738.4615384615385 293.09999999999997 L-2363.076923076924 977"></path><path d="M753.2307692307693 293.09999999999997 L-2141.538461538461 977"></path><path d="M768 293.09999999999997 L-1920 977"></path><path d="M782.7692307692307 293.09999999999997 L-1698.461538461539 977"></path><path d="M797.5384615384615 293.09999999999997 L-1476.9230769230762 977"></path><path d="M812.3076923076923 293.09999999999997 L-1255.3846153846152 977"></path><path d="M827.0769230769231 293.09999999999997 L-1033.8461538461543 977"></path><path d="M841.8461538461538 293.09999999999997 L-812.3076923076915 977"></path><path d="M856.6153846153846 293.09999999999997 L-590.7692307692305 977"></path><path d="M871.3846153846154 293.09999999999997 L-369.2307692307695 977"></path><path d="M886.1538461538462 293.09999999999997 L-147.69230769230853 977"></path><path d="M900.9230769230769 293.09999999999997 L73.84615384615427 977"></path><path d="M915.6923076923077 293.09999999999997 L295.38461538461524 977"></path><path d="M930.4615384615385 293.09999999999997 L516.9230769230762 977"></path><path d="M945.2307692307693 293.09999999999997 L738.461538461539 977"></path><path d="M960 293.09999999999997 L960 977"></path><path d="M974.7692307692307 293.09999999999997 L1181.538461538461 977"></path><path d="M989.5384615384615 293.09999999999997 L1403.0769230769238 977"></path><path d="M1004.3076923076923 293.09999999999997 L1624.6153846153848 977"></path><path d="M1019.0769230769231 293.09999999999997 L1846.1538461538457 977"></path><path d="M1033.8461538461538 293.09999999999997 L2067.6923076923085 977"></path><path d="M1048.6153846153845 293.09999999999997 L2289.2307692307695 977"></path><path d="M1063.3846153846155 293.09999999999997 L2510.7692307692305 977"></path><path d="M1078.1538461538462 293.09999999999997 L2732.3076923076915 977"></path><path d="M1092.923076923077 293.09999999999997 L2953.8461538461524 977"></path><path d="M1107.6923076923076 293.09999999999997 L3175.384615384617 977"></path><path d="M1122.4615384615386 293.09999999999997 L3396.923076923078 977"></path><path d="M1137.2307692307693 293.09999999999997 L3618.461538461539 977"></path><path d="M1152 293.09999999999997 L3840 977"></path><path d="M1166.7692307692307 293.09999999999997 L4061.538461538461 977"></path><path d="M1181.5384615384614 293.09999999999997 L4283.076923076922 977"></path><path d="M1196.3076923076924 293.09999999999997 L4504.615384615383 977"></path><path d="M1211.076923076923 293.09999999999997 L4726.153846153848 977"></path><path d="M1225.8461538461538 293.09999999999997 L4947.6923076923085 977"></path><path d="M1240.6153846153845 293.09999999999997 L5169.2307692307695 977"></path><path d="M1255.3846153846155 293.09999999999997 L5390.7692307692305 977"></path><path d="M1270.1538461538462 293.09999999999997 L5612.3076923076915 977"></path><path d="M1284.923076923077 293.09999999999997 L5833.846153846152 977"></path><path d="M1299.6923076923076 293.09999999999997 L6055.384615384617 977"></path><path d="M1314.4615384615386 293.09999999999997 L6276.923076923078 977"></path><path d="M1329.2307692307693 293.09999999999997 L6498.461538461539 977"></path><path d="M1344 293.09999999999997 L6720 977"></path><path d="M1358.7692307692307 293.09999999999997 L6941.538461538461 977"></path><path d="M1373.5384615384614 293.09999999999997 L7163.076923076922 977"></path><path d="M1388.3076923076924 293.09999999999997 L7384.615384615383 977"></path><path d="M1403.076923076923 293.09999999999997 L7606.153846153848 977"></path><path d="M1417.8461538461538 293.09999999999997 L7827.6923076923085 977"></path><path d="M1432.6153846153845 293.09999999999997 L8049.2307692307695 977"></path><path d="M1447.3846153846155 293.09999999999997 L8270.76923076923 977"></path><path d="M1462.1538461538462 293.09999999999997 L8492.307692307691 977"></path><path d="M1476.923076923077 293.09999999999997 L8713.846153846152 977"></path><path d="M1491.6923076923076 293.09999999999997 L8935.384615384617 977"></path><path d="M1506.4615384615386 293.09999999999997 L9156.923076923078 977"></path><path d="M1521.2307692307693 293.09999999999997 L9378.461538461539 977"></path><path d="M1536 293.09999999999997 L9600 977"></path><path d="M1550.7692307692307 293.09999999999997 L9821.538461538461 977"></path><path d="M1565.5384615384614 293.09999999999997 L10043.076923076922 977"></path><path d="M1580.3076923076924 293.09999999999997 L10264.615384615383 977"></path><path d="M1595.076923076923 293.09999999999997 L10486.153846153848 977"></path><path d="M1609.8461538461538 293.09999999999997 L10707.692307692309 977"></path><path d="M1624.6153846153845 293.09999999999997 L10929.23076923077 977"></path><path d="M1639.3846153846155 293.09999999999997 L11150.76923076923 977"></path><path d="M1654.1538461538462 293.09999999999997 L11372.307692307691 977"></path><path d="M1668.923076923077 293.09999999999997 L11593.846153846152 977"></path><path d="M1683.6923076923076 293.09999999999997 L11815.384615384617 977"></path><path d="M1698.4615384615386 293.09999999999997 L12036.923076923078 977"></path><path d="M1713.2307692307693 293.09999999999997 L12258.461538461539 977"></path><path d="M1728 293.09999999999997 L12480 977"></path><path d="M1742.7692307692307 293.09999999999997 L12701.538461538461 977"></path><path d="M1757.5384615384614 293.09999999999997 L12923.076923076922 977"></path><path d="M1772.3076923076924 293.09999999999997 L13144.615384615383 977"></path><path d="M1787.076923076923 293.09999999999997 L13366.153846153848 977"></path><path d="M1801.8461538461538 293.09999999999997 L13587.692307692309 977"></path><path d="M1816.6153846153845 293.09999999999997 L13809.23076923077 977"></path><path d="M1831.3846153846155 293.09999999999997 L14030.76923076923 977"></path><path d="M1846.1538461538462 293.09999999999997 L14252.307692307691 977"></path><path d="M1860.923076923077 293.09999999999997 L14473.846153846152 977"></path><path d="M1875.6923076923076 293.09999999999997 L14695.384615384617 977"></path><path d="M1890.4615384615386 293.09999999999997 L14916.923076923078 977"></path><path d="M1905.2307692307693 293.09999999999997 L15138.461538461539 977"></path><path d="M1920 293.09999999999997 L15360 977"></path><g>
<path d="M0 293.09999999999997 L1920 293.09999999999997"></path>
<animateTransform attributeName="transform" type="translate" repeatCount="indefinite" calcMode="linear" keyTimes="0;1" values="0 0;0 5.179834319526627" begin="0s" dur="0.8333333333333334s"></animateTransform>

</g><g>
<path d="M0 298.27983431952657 L1920 298.27983431952657"></path>
<animateTransform attributeName="transform" type="translate" repeatCount="indefinite" calcMode="linear" keyTimes="0;1" values="0 0;0 10.359668639053254" begin="0s" dur="0.8333333333333334s"></animateTransform>

</g><g>
<path d="M0 308.63950295857984 L1920 308.63950295857984"></path>
<animateTransform attributeName="transform" type="translate" repeatCount="indefinite" calcMode="linear" keyTimes="0;1" values="0 0;0 15.539502958579881" begin="0s" dur="0.8333333333333334s"></animateTransform>

</g><g>
<path d="M0 324.1790059171597 L1920 324.1790059171597"></path>
<animateTransform attributeName="transform" type="translate" repeatCount="indefinite" calcMode="linear" keyTimes="0;1" values="0 0;0 20.719337278106508" begin="0s" dur="0.8333333333333334s"></animateTransform>

</g><g>
<path d="M0 344.8983431952662 L1920 344.8983431952662"></path>
<animateTransform attributeName="transform" type="translate" repeatCount="indefinite" calcMode="linear" keyTimes="0;1" values="0 0;0 25.899171597633135" begin="0s" dur="0.8333333333333334s"></animateTransform>

</g><g>
<path d="M0 370.79751479289934 L1920 370.79751479289934"></path>
<animateTransform attributeName="transform" type="translate" repeatCount="indefinite" calcMode="linear" keyTimes="0;1" values="0 0;0 31.079005917159762" begin="0s" dur="0.8333333333333334s"></animateTransform>

</g><g>
<path d="M0 401.8765207100591 L1920 401.8765207100591"></path>
<animateTransform attributeName="transform" type="translate" repeatCount="indefinite" calcMode="linear" keyTimes="0;1" values="0 0;0 36.25884023668639" begin="0s" dur="0.8333333333333334s"></animateTransform>

</g><g>
<path d="M0 438.1353609467455 L1920 438.1353609467455"></path>
<animateTransform attributeName="transform" type="translate" repeatCount="indefinite" calcMode="linear" keyTimes="0;1" values="0 0;0 41.438674556213016" begin="0s" dur="0.8333333333333334s"></animateTransform>

</g><g>
<path d="M0 479.5740355029585 L1920 479.5740355029585"></path>
<animateTransform attributeName="transform" type="translate" repeatCount="indefinite" calcMode="linear" keyTimes="0;1" values="0 0;0 46.61850887573964" begin="0s" dur="0.8333333333333334s"></animateTransform>

</g><g>
<path d="M0 526.1925443786981 L1920 526.1925443786981"></path>
<animateTransform attributeName="transform" type="translate" repeatCount="indefinite" calcMode="linear" keyTimes="0;1" values="0 0;0 51.79834319526627" begin="0s" dur="0.8333333333333334s"></animateTransform>

</g><g>
<path d="M0 577.9908875739644 L1920 577.9908875739644"></path>
<animateTransform attributeName="transform" type="translate" repeatCount="indefinite" calcMode="linear" keyTimes="0;1" values="0 0;0 56.9781775147929" begin="0s" dur="0.8333333333333334s"></animateTransform>

</g><g>
<path d="M0 634.9690650887574 L1920 634.9690650887574"></path>
<animateTransform attributeName="transform" type="translate" repeatCount="indefinite" calcMode="linear" keyTimes="0;1" values="0 0;0 62.15801183431953" begin="0s" dur="0.8333333333333334s"></animateTransform>

</g><g>
<path d="M0 697.1270769230769 L1920 697.1270769230769"></path>
<animateTransform attributeName="transform" type="translate" repeatCount="indefinite" calcMode="linear" keyTimes="0;1" values="0 0;0 67.33784615384616" begin="0s" dur="0.8333333333333334s"></animateTransform>

</g><g>
<path d="M0 764.464923076923 L1920 764.464923076923"></path>
<animateTransform attributeName="transform" type="translate" repeatCount="indefinite" calcMode="linear" keyTimes="0;1" values="0 0;0 72.51768047337279" begin="0s" dur="0.8333333333333334s"></animateTransform>

</g><g>
<path d="M0 836.9826035502958 L1920 836.9826035502958"></path>
<animateTransform attributeName="transform" type="translate" repeatCount="indefinite" calcMode="linear" keyTimes="0;1" values="0 0;0 77.69751479289943" begin="0s" dur="0.8333333333333334s"></animateTransform>

</g><g>
<path d="M0 914.6801183431953 L1920 914.6801183431953"></path>
<animateTransform attributeName="transform" type="translate" repeatCount="indefinite" calcMode="linear" keyTimes="0;1" values="0 0;0 82.87734911242606" begin="0s" dur="0.8333333333333334s"></animateTransform>

</g><g>
<path d="M0 997.5574674556213 L1920 997.5574674556213"></path>
<animateTransform attributeName="transform" type="translate" repeatCount="indefinite" calcMode="linear" keyTimes="0;1" values="0 0;0 88.0571834319527" begin="0s" dur="0.8333333333333334s"></animateTransform>

</g><rect x="0" y="0" width="1920" height="977" fill="url(#fg-lg-0.5597593875196785)"></rect></g>
</svg>