<svg width="39" height="43" viewBox="0 0 39 43" fill="none" xmlns="http://www.w3.org/2000/svg">
<path d="M0 0V42.5H38.5V0H0ZM17.6878 25.25V33.375H13.625V11.5H17.375V14C18.1231 13.1569 18.8591 12.33 19.8884 11.8219C22.5209 10.5222 25.3781 11.7628 26.6306 14.3159C28.7488 18.6337 27.5791 29.42 20.5019 27.11C19.3912 26.7475 18.549 26.005 17.6878 25.25ZM19.6438 14.3875C17.0684 15.5244 17.2041 19.9084 17.9025 22.1172C18.3706 23.5975 19.7181 24.9522 21.3875 24.2934C24.0409 23.2466 23.8822 18.3613 23.0387 16.1981C22.5006 14.8175 21.1672 13.715 19.6438 14.3875Z" fill="#0E69C7"/>
</svg>
